<?xml version="1.0" standalone="no"?>
<!DOCTYPE svg PUBLIC "-//W3C//DTD SVG 20010904//EN"
 "http://www.w3.org/TR/2001/REC-SVG-20010904/DTD/svg10.dtd">
<svg version="1.0" xmlns="http://www.w3.org/2000/svg"
 width="710.000000pt" height="710.000000pt" viewBox="0 0 710.000000 710.000000"
 preserveAspectRatio="xMidYMid meet">
<metadata>
Created by potrace 1.11, written by Peter Selinger 2001-2013
</metadata>
<g transform="translate(0.000000,710.000000) scale(0.100000,-0.100000)"
fill="#000000" stroke="none">
<path d="M3387 7040 c-115 -50 -176 -95 -178 -132 -1 -13 -3 -34 -5 -48 -9
-64 -10 -158 -2 -186 4 -17 24 -49 43 -70 19 -21 39 -52 44 -69 8 -30 6 -308
-4 -680 -6 -209 -6 -181 -2 -273 2 -43 -1 -76 -7 -81 -9 -6 -290 -10 -788 -11
-87 0 -110 -3 -123 -17 -16 -16 -16 -18 6 -35 13 -11 31 -25 39 -32 22 -18
181 -115 280 -171 151 -86 232 -125 272 -130 21 -3 57 -8 81 -11 23 -3 53 -7
67 -7 25 -2 25 -2 24 -102 -1 -150 -16 -245 -38 -245 -23 0 -163 -73 -246
-128 -47 -31 -126 -97 -176 -147 -189 -188 -293 -383 -350 -660 -18 -85 -23
-272 -11 -365 10 -71 18 -114 23 -130 3 -8 8 -26 10 -39 14 -71 106 -291 126
-299 4 -2 8 -9 8 -16 0 -6 7 -21 15 -31 8 -11 39 -52 68 -90 93 -123 230 -244
358 -318 l46 -26 -2 -223 c-2 -123 -4 -223 -5 -223 -1 0 -3 -45 -5 -100 -1
-55 -6 -161 -11 -235 -12 -211 -9 -318 11 -386 17 -53 90 -251 118 -314 5 -14
11 -27 12 -30 1 -3 7 -18 14 -35 7 -16 19 -47 27 -68 7 -20 20 -52 28 -70 8
-17 31 -72 52 -122 63 -157 165 -371 198 -420 12 -16 20 -31 19 -32 -7 -8 65
-138 102 -186 19 -25 33 -31 66 -28 19 1 57 67 86 151 13 36 27 74 32 85 18
39 71 180 71 188 0 4 9 26 19 50 10 23 31 74 46 112 15 39 32 81 38 95 6 14
11 27 12 30 1 3 7 19 14 35 7 17 19 46 26 65 15 43 124 286 190 425 18 37 32
77 33 89 0 5 4 12 9 15 5 3 17 29 26 56 13 41 15 80 11 215 -2 91 -6 190 -8
220 -7 113 -17 309 -21 420 -3 63 -7 135 -10 160 -3 25 -7 54 -8 64 -1 13 10
26 33 39 113 63 276 216 365 344 82 117 167 304 191 418 2 11 9 45 16 75 12
59 17 328 6 395 -20 128 -59 251 -116 370 -34 70 -101 177 -114 183 -5 2 -8 7
-8 12 0 18 -134 158 -211 221 -57 47 -150 106 -219 140 -69 34 -99 84 -115
189 -3 19 -10 60 -15 90 -17 91 -20 130 -12 131 4 0 15 2 26 4 10 2 58 7 105
10 128 10 138 12 210 54 36 21 120 66 186 101 244 127 313 176 288 201 -5 5
-207 11 -448 14 -422 4 -480 7 -494 21 -7 7 -10 149 -10 559 -1 491 0 505 38
563 37 57 37 57 46 177 10 130 9 132 -138 204 -136 67 -148 71 -222 76 -41 2
-69 -6 -158 -45z"/>
</g>
</svg>
