<?xml version="1.0" encoding="utf-8"?>
<!-- Generator: Adobe Illustrator 23.0.2, SVG Export Plug-In . SVG Version: 6.00 Build 0)  -->
<svg version="1.1" id="Layer_1" xmlns="http://www.w3.org/2000/svg" xmlns:xlink="http://www.w3.org/1999/xlink" x="0px" y="0px"
	 viewBox="0 0 512 512" style="enable-background:new 0 0 512 512;" xml:space="preserve">
<style type="text/css">
	.st0{fill:#C6C6C6;}
</style>
<path d="M255.7,44.8c-6.2,0-12.4,1.4-17.1,4.2L85.8,137.3c-9.6,5.5-9.6,14.3,0,19.8l152.8,88.4c9.6,5.5,24.7,5.5,34.3,0l152.8-88.4
	c9.6-5.5,9.6-14.3,0-19.8L272.8,48.9C268.1,46.1,261.9,44.8,255.7,44.8L255.7,44.8z"/>
<path class="st0" d="M237.6,102.7l14.6,9.1c-4.3,0.6-8.1,1.5-11.2,2.4c-3.2,1-5.9,2.1-8.2,3.5c-4.9,3-7.1,6.3-6.5,10.1
	c0.6,3.7,4,7.8,10.2,12.3c0.2-2.2,0.9-4.3,2.3-6.1c1.3-1.9,3.3-3.6,5.9-5.2c6.6-3.9,14.2-5.7,23-5.1c8.8,0.5,17,3.2,24.7,8
	c8.5,5.3,13,10.9,13.6,16.8c0.6,5.9-2.9,11.1-10.5,15.7c-8.4,5-18.3,6.7-29.8,5.2c-11.5-1.6-23.7-6.4-36.4-14.4
	c-13.1-8.2-20.6-16.2-22.7-24c-2.1-7.9,1.5-14.7,10.8-20.3c3-1.8,6.1-3.3,9.5-4.6C230.2,104.7,233.8,103.6,237.6,102.7L237.6,102.7z
	"/>
<path d="M262.4,136.7c-2.7,0-5.1,0.7-7.3,2c-2.9,1.7-3.9,3.8-3.1,6.1c0.9,2.3,3.6,4.9,8.2,7.8c4.6,2.9,8.8,4.6,12.6,5.2
	c3.8,0.6,7.1,0,10-1.8c2.9-1.8,4-3.8,3.1-6.1c-0.9-2.3-3.6-4.9-8.2-7.8c-4.6-2.9-8.8-4.6-12.6-5.2
	C264.2,136.8,263.3,136.7,262.4,136.7L262.4,136.7z"/>
<path d="M435.9,173.8c-1.9,0.1-4.2,0.9-7,2.4L282,261.1c-9.6,5.5-17.1,18.6-17.1,29.7v157.7c0,11,7.6,15.4,17.1,9.9l146.9-84.8
	c9.6-5.5,17.1-18.6,17.1-29.7V186.1C443.6,178.1,440.8,173.6,435.9,173.8L435.9,173.8z"/>
<path d="M76.1,174.3c-6.2,0-10,5.3-10.2,11.8v157.7c0,11.1,7.6,24.2,17.1,29.7L230,458.4c9.6,5.5,17.1,1.2,17.1-9.9V290.8
	c0-11.1-7.6-24.2-17.1-29.7L83.1,176.2C80.5,174.9,78.2,174.3,76.1,174.3L76.1,174.3z"/>
<path class="st0" d="M128.4,267.8l43.6,26.2v16.2l-29.6-17.8v13.2c1.4,0.4,2.7,0.8,4,1.4c1.4,0.6,2.8,1.3,4.2,2.1
	c8.3,5,14.7,11.5,19.4,19.4c4.6,8,6.9,16.6,6.9,25.9c0,9.2-2.5,14.9-7.6,17.1c-5,2.2-12,0.6-20.9-4.7c-3.9-2.3-7.7-5.1-11.5-8.3
	c-3.8-3.2-7.5-6.8-11.2-11v-17.3c3.7,4.9,7.2,9,10.5,12.3c3.3,3.3,6.5,5.9,9.4,7.7c4.3,2.6,7.6,3.3,10,2.1c2.5-1.2,3.7-4,3.7-8.4
	c0-4.5-1.2-8.8-3.7-12.8c-2.4-4-5.8-7.3-10-9.9c-2.5-1.5-5.2-2.7-8.1-3.6c-2.9-0.9-5.9-1.5-9.2-1.7L128.4,267.8L128.4,267.8z"/>
<polygon class="st0" points="383.1,267.8 383.1,322.7 391.9,317.4 391.9,333.7 383.1,339 383.1,354.8 368,363.8 368,348 
	340.7,364.4 340.7,345.2 365.4,278.4 383.1,267.8 "/>
<polygon points="368,295.3 350.6,342.2 368,331.7 368,295.3 "/>
</svg>
