<?xml version="1.0" encoding="utf-8"?>
<!-- Generator: Adobe Illustrator 23.0.2, SVG Export Plug-In . SVG Version: 6.00 Build 0)  -->
<svg version="1.1" id="Layer_1" xmlns="http://www.w3.org/2000/svg" xmlns:xlink="http://www.w3.org/1999/xlink" x="0px" y="0px"
	 viewBox="0 0 512 512" style="enable-background:new 0 0 512 512;" xml:space="preserve">
<style type="text/css">
	.st0{fill:#C6C6C6;}
</style>
<polygon points="256,37.1 77.9,343.9 434.1,343.9 "/>
<polygon points="230.2,49.8 72,164.2 72,322.1 "/>
<polygon points="281.8,49.8 440,322.1 440,164.2 "/>
<path class="st0" d="M149.3,139.8v21.8l-8.5,9.7v-16.9c-2.8,3.2-5.7,6.4-8.4,9.7c3.5,0.3,2.5,5.4,2.2,7.8
	c-1.7,9.5-8.2,17.6-13.4,24.8c-1.9,2.5-3.9,5.1-6,7.5c-4.7,3.4-8.5,4.4-10.8-1.5c0.3-7.8,3.8-15.2,8-21l5.3-7.9c0,2.5,0.1,5-0.1,7.4
	c-2.3,4.3-6.8,9.5-5.8,14.6c7.8,0.9,12.2-10.9,14.5-16.6c0.8-2.8,2.1-5.5-1.4-5.4v-7.3L149.3,139.8z"/>
<path class="st0" d="M361.5,141l44.9,54.5v7.3L376,166.4v8.5l-6.1-7.3c-0.2-4.1-1.4-8.4-2.4-12.1c-1.9-2.9-4-5.7-6.1-8.5L361.5,141z
	"/>
<path class="st0" d="M256.1,203.9c8.4,0,14.7,1.5,19.1,4.6c4.4,3,6.5,7.5,6.5,13.3c0,3.9-1.1,7.2-3.2,9.8c-2.1,2.6-5.3,4.6-9.5,5.8
	c4.7,1.3,8.2,3.4,10.6,6.4c2.4,2.9,3.6,6.6,3.6,11c0,6.9-2.3,12-6.9,15.6c-4.5,3.5-11.3,5.2-20.2,5.2c-9,0-15.8-1.7-20.4-5.2
	c-4.6-3.5-6.9-8.7-6.9-15.6c0-4.4,1.2-8.1,3.6-11c2.4-2.9,6-5.1,10.7-6.4c-4.2-1.3-7.4-3.2-9.5-5.8c-2.1-2.6-3.2-5.9-3.2-9.8
	c0-5.8,2.2-10.3,6.5-13.3S247.6,203.9,256.1,203.9L256.1,203.9z"/>
<path d="M256.1,215.1c-2.8,0-5,0.7-6.6,2.2c-1.5,1.5-2.3,3.6-2.3,6.3c0,2.8,0.8,4.9,2.3,6.3c1.5,1.5,3.7,2.2,6.6,2.2
	c2.8,0,4.9-0.7,6.4-2.2c1.5-1.5,2.3-3.6,2.3-6.3c0-2.8-0.8-4.9-2.3-6.3C261,215.8,258.9,215.1,256.1,215.1L256.1,215.1z"/>
<path d="M256.1,243.3c-3.3,0-5.9,0.9-7.7,2.7c-1.8,1.8-2.7,4.4-2.7,7.8c0,3.4,0.9,6,2.7,7.8c1.8,1.8,4.4,2.7,7.7,2.7
	c3.3,0,5.8-0.9,7.6-2.7c1.8-1.8,2.6-4.4,2.6-7.8c0-3.4-0.9-6-2.6-7.8C261.9,244.2,259.4,243.3,256.1,243.3L256.1,243.3z"/>
<polygon points="88.7,359.9 256,480.9 423.3,359.9 "/>
<path class="st0" d="M228.1,383.1h54.5v4.8c-14.4,5.9-21.6,12.9-27.9,25.4H239c7.1-13.8,14.5-17.7,26.7-25.4h-37.6L228.1,383.1z"/>
</svg>
