<svg id="Layer_1" data-name="Layer 1" xmlns="http://www.w3.org/2000/svg" xmlns:xlink="http://www.w3.org/1999/xlink" viewBox="0 0 512 512"><defs><clipPath id="clip-path"><rect x="83.2" y="77.8" width="345.61" height="356.4" fill="none"/></clipPath><clipPath id="clip-path-2"><polygon points="202.09 326.66 168.79 224.17 255.97 160.83 343.14 224.17 309.85 326.66 202.09 326.66" fill="none"/></clipPath><linearGradient id="linear-gradient" x1="-2230.02" y1="506.2" x2="-2229.02" y2="506.2" gradientTransform="matrix(0, -398.95, -398.95, 0, 202204.49, -889213.94)" gradientUnits="userSpaceOnUse"><stop offset="0" stop-color="#cb9b51"/><stop offset="0.25" stop-color="#f6e27a"/><stop offset="0.5" stop-color="#f6f2c0"/><stop offset="0.75" stop-color="#f6e27a"/><stop offset="1" stop-color="#cb9b51"/></linearGradient><clipPath id="clip-path-3"><polygon points="155.64 393.13 201.76 329.7 310.17 329.7 356.3 393.13 255.97 432.59 155.64 393.13" fill="none"/></clipPath><linearGradient id="linear-gradient-2" x1="-2230.53" y1="502.65" x2="-2229.53" y2="502.65" gradientTransform="translate(124677.92 552375.76) rotate(90) scale(247.53)" gradientUnits="userSpaceOnUse"><stop offset="0" stop-color="#cb9b51"/><stop offset="0.2" stop-color="#cb9b51"/><stop offset="0.4" stop-color="#f6e27a"/><stop offset="0.42" stop-color="#f6e483"/><stop offset="0.46" stop-color="#f6ea9b"/><stop offset="0.5" stop-color="#f6f2c0"/><stop offset="0.6" stop-color="#f6e27a"/><stop offset="0.8" stop-color="#cb9b51"/><stop offset="1" stop-color="#cb9b51"/></linearGradient><clipPath id="clip-path-4"><polygon points="84.73 308.14 91.26 200.53 165.83 224.79 199.33 327.9 153.26 391.36 84.73 308.14" fill="none"/></clipPath><linearGradient id="linear-gradient-3" x1="-2239.2" y1="509.39" x2="-2238.2" y2="509.39" gradientTransform="translate(-554005.78 126384.3) rotate(180) scale(247.53)" xlink:href="#linear-gradient-2"/><clipPath id="clip-path-5"><polygon points="312.67 327.91 346.17 224.8 420.74 200.54 427.27 308.15 358.74 391.38 312.67 327.91" fill="none"/></clipPath><linearGradient id="linear-gradient-4" x1="-2221.42" y1="515.16" x2="-2220.42" y2="515.16" gradientTransform="matrix(0, 247.53, 247.53, 0, -127148.57, 550045.22)" xlink:href="#linear-gradient-2"/><clipPath id="clip-path-6"><polygon points="257.51 158.16 257.48 79.74 361.85 106.79 419.82 197.68 345.22 221.89 257.51 158.16" fill="none"/></clipPath><linearGradient id="linear-gradient-5" x1="-2224.46" y1="519.4" x2="-2223.46" y2="519.4" gradientTransform="translate(550833.99 -128418.3) scale(247.53)" xlink:href="#linear-gradient-2"/><clipPath id="clip-path-7"><polygon points="92.17 197.74 150.14 106.84 254.5 79.79 254.47 158.22 166.76 221.94 92.17 197.74" fill="none"/></clipPath><linearGradient id="linear-gradient-6" x1="-2235.45" y1="504.28" x2="-2234.45" y2="504.28" gradientTransform="matrix(0, -247.53, -247.53, 0, 124998.83, -553061.84)" xlink:href="#linear-gradient-2"/><clipPath id="clip-path-8"><rect x="222.77" y="220.74" width="66.45" height="70.52" fill="none"/></clipPath><clipPath id="clip-path-9"><rect x="222.77" y="220.74" width="66.45" height="70.52" fill="none"/></clipPath></defs><title>0d12</title><g id="D12"><g id="D12-2" data-name="D12"><g clip-path="url(#clip-path)"><g clip-path="url(#clip-path-2)"><rect x="168.79" y="160.83" width="174.36" height="165.83" fill="url(#linear-gradient)"/></g><path d="M256,162.69l85.41,62.06L308.76,325.16H203.18L170.55,224.75Zm0-3.71L167,223.6l34,104.56H310.94l34-104.56Z" fill="#0b0b0b"/><g clip-path="url(#clip-path-3)"><rect x="155.64" y="329.7" width="200.66" height="102.89" fill="url(#linear-gradient-2)"/></g><path d="M158,392.44l44.53-61.24H309.41l44.53,61.24L256,431Zm43-64.24-47.72,65.61L256,434.2l102.68-40.39L310.94,328.2Z" fill="#0b0b0b"/><g clip-path="url(#clip-path-4)"><rect x="58.05" y="187.49" width="167.97" height="216.91" transform="translate(-84.5 58.37) rotate(-18)" fill="url(#linear-gradient-3)"/></g><path d="M86.26,307.64l6.38-105.09,72,23.43,33,101.65-44.48,61.28Zm-3.06,1,70.14,85.17L201,328.16,167,223.6,89.88,198.5Z" fill="#0b0b0b"/><g clip-path="url(#clip-path-5)"><rect x="261.51" y="211.98" width="216.91" height="167.96" transform="translate(-25.83 556.36) rotate(-72)" fill="url(#linear-gradient-4)"/></g><path d="M314.33,327.65l33-101.66,72-23.42,6.38,105.08-66.93,81.28Zm30.65-104L311,328.17l47.66,65.66,70.14-85.18-6.68-110.14Z" fill="#0b0b0b"/><g clip-path="url(#clip-path-6)"><rect x="233.44" y="43.37" width="210.42" height="214.88" transform="translate(17.59 336.14) rotate(-54)" fill="url(#linear-gradient-5)"/></g><path d="M259,157.4l0-75.72L360.9,108.09l56.61,88.77-72,23.36Zm-3-79.6,0,81.13L345,223.55l77.17-25-59.34-93Z" fill="#0b0b0b"/><g clip-path="url(#clip-path-7)"><rect x="65.89" y="45.66" width="214.88" height="210.42" transform="translate(-55.57 130.7) rotate(-36)" fill="url(#linear-gradient-6)"/></g><path d="M94.47,196.91l56.62-88.77L253,81.73l0,75.72L166.5,220.28Zm54.72-91.37-59.33,93,77.17,25L256,159l0-81.13ZM256,77.85h0Z" fill="#0b0b0b"/></g></g><g id="_0" data-name="0"><g clip-path="url(#clip-path-8)"><g clip-path="url(#clip-path-9)"><path d="M288.73,255.89a35.1,35.1,0,0,1-9.17,24.33,31.53,31.53,0,0,1-47.06,0,35,35,0,0,1-9.23-24.33,34.62,34.62,0,0,1,9.23-24.27,31.79,31.79,0,0,1,47,0,34.76,34.76,0,0,1,9.23,24.27m-20.38,0a15.37,15.37,0,0,0-3.29-9.83,11.55,11.55,0,0,0-18.18-.05,15.35,15.35,0,0,0-3.24,9.88,15.87,15.87,0,0,0,3.24,9.94,11.2,11.2,0,0,0,18.12-.11,15.48,15.48,0,0,0,3.35-9.83" fill="#c14343"/><path d="M288.73,255.89a35.1,35.1,0,0,1-9.17,24.33,31.53,31.53,0,0,1-47.06,0,35,35,0,0,1-9.23-24.33,34.62,34.62,0,0,1,9.23-24.27,31.79,31.79,0,0,1,47,0A34.76,34.76,0,0,1,288.73,255.89Zm-20.38,0a15.37,15.37,0,0,0-3.29-9.83,11.55,11.55,0,0,0-18.18-.05,15.35,15.35,0,0,0-3.24,9.88,15.87,15.87,0,0,0,3.24,9.94,11.2,11.2,0,0,0,18.12-.11A15.48,15.48,0,0,0,268.35,255.89Z" fill="none" stroke="#000" stroke-miterlimit="10"/></g></g></g></g></svg>