<svg id="Layer_1" data-name="Layer 1" xmlns="http://www.w3.org/2000/svg" xmlns:xlink="http://www.w3.org/1999/xlink" viewBox="0 0 512 512"><defs><clipPath id="clip-path"><rect x="83.2" y="77.8" width="345.61" height="356.4" fill="none"/></clipPath><clipPath id="clip-path-2"><polygon points="202.09 326.66 168.79 224.17 255.97 160.83 343.14 224.17 309.85 326.66 202.09 326.66" fill="none"/></clipPath><linearGradient id="linear-gradient" x1="-2251.99" y1="-4872.35" x2="-2250.99" y2="-4872.35" gradientTransform="matrix(0, -398.95, -398.95, 0, -1943565.35, -897982.3)" gradientUnits="userSpaceOnUse"><stop offset="0" stop-color="#cb9b51"/><stop offset="0.25" stop-color="#f6e27a"/><stop offset="0.5" stop-color="#f6f2c0"/><stop offset="0.75" stop-color="#f6e27a"/><stop offset="1" stop-color="#cb9b51"/></linearGradient><clipPath id="clip-path-3"><polygon points="155.64 393.13 201.76 329.7 310.17 329.7 356.3 393.13 255.97 432.59 155.64 393.13" fill="none"/></clipPath><linearGradient id="linear-gradient-2" x1="-2217.29" y1="-4875.91" x2="-2216.29" y2="-4875.91" gradientTransform="translate(-1206679.13 549100.47) rotate(90) scale(247.53)" gradientUnits="userSpaceOnUse"><stop offset="0" stop-color="#cb9b51"/><stop offset="0.2" stop-color="#cb9b51"/><stop offset="0.4" stop-color="#f6e27a"/><stop offset="0.42" stop-color="#f6e483"/><stop offset="0.46" stop-color="#f6ea9b"/><stop offset="0.5" stop-color="#f6f2c0"/><stop offset="0.6" stop-color="#f6e27a"/><stop offset="0.8" stop-color="#cb9b51"/><stop offset="1" stop-color="#cb9b51"/></linearGradient><clipPath id="clip-path-4"><polygon points="84.73 308.14 91.26 200.53 165.83 224.79 199.33 327.9 153.26 391.36 84.73 308.14" fill="none"/></clipPath><linearGradient id="linear-gradient-3" x1="-2241.01" y1="-4889.82" x2="-2240.01" y2="-4889.82" gradientTransform="translate(-554455.06 -1210082.04) rotate(180) scale(247.53)" xlink:href="#linear-gradient-2"/><clipPath id="clip-path-5"><polygon points="312.67 327.91 346.17 224.8 420.74 200.54 427.27 308.15 358.74 391.38 312.67 327.91" fill="none"/></clipPath><linearGradient id="linear-gradient-4" x1="-2223.17" y1="-4884.03" x2="-2222.17" y2="-4884.03" gradientTransform="matrix(0, 247.53, 247.53, 0, 1209316.91, 550478.35)" xlink:href="#linear-gradient-2"/><clipPath id="clip-path-6"><polygon points="257.51 158.16 257.48 79.74 361.85 106.79 419.82 197.68 345.22 221.89 257.51 158.16" fill="none"/></clipPath><linearGradient id="linear-gradient-5" x1="-2250.52" y1="-4846.33" x2="-2249.52" y2="-4846.33" gradientTransform="translate(557283.55 1199770.24) scale(247.53)" xlink:href="#linear-gradient-2"/><clipPath id="clip-path-7"><polygon points="92.17 197.74 150.14 106.84 254.5 79.79 254.47 158.22 166.76 221.94 92.17 197.74" fill="none"/></clipPath><linearGradient id="linear-gradient-6" x1="-2261.55" y1="-4861.51" x2="-2260.55" y2="-4861.51" gradientTransform="matrix(0, -247.53, -247.53, 0, -1203198.19, -559521.53)" xlink:href="#linear-gradient-2"/><clipPath id="clip-path-8"><rect x="203.66" y="220" width="104.67" height="72" fill="none"/></clipPath></defs><title>10d12</title><g id="D12"><g id="D12-2" data-name="D12"><g clip-path="url(#clip-path)"><g clip-path="url(#clip-path-2)"><rect x="168.79" y="160.83" width="174.36" height="165.83" fill="url(#linear-gradient)"/></g><path d="M256,162.69l85.41,62.06L308.76,325.16H203.18L170.55,224.75Zm0-3.71L167,223.6l34,104.56H310.94l34-104.56Z" fill="#0b0b0b"/><g clip-path="url(#clip-path-3)"><rect x="155.64" y="329.7" width="200.66" height="102.89" fill="url(#linear-gradient-2)"/></g><path d="M158,392.44l44.53-61.24H309.41l44.53,61.24L256,431Zm43-64.24-47.72,65.61L256,434.2l102.68-40.39L310.94,328.2Z" fill="#0b0b0b"/><g clip-path="url(#clip-path-4)"><rect x="58.05" y="187.49" width="167.97" height="216.91" transform="translate(-84.5 58.37) rotate(-18)" fill="url(#linear-gradient-3)"/></g><path d="M86.26,307.64l6.38-105.09,72,23.43,33,101.65-44.48,61.28Zm-3.06,1,70.14,85.17L201,328.16,167,223.6,89.88,198.5Z" fill="#0b0b0b"/><g clip-path="url(#clip-path-5)"><rect x="261.51" y="211.98" width="216.91" height="167.96" transform="translate(-25.83 556.36) rotate(-72)" fill="url(#linear-gradient-4)"/></g><path d="M314.33,327.65l33-101.66,72-23.42,6.38,105.08-66.93,81.28Zm30.65-104L311,328.17l47.66,65.66,70.14-85.18-6.68-110.14Z" fill="#0b0b0b"/><g clip-path="url(#clip-path-6)"><rect x="233.44" y="43.37" width="210.42" height="214.88" transform="translate(17.59 336.14) rotate(-54)" fill="url(#linear-gradient-5)"/></g><path d="M259,157.4l0-75.72L360.9,108.09l56.61,88.77-72,23.36Zm-3-79.6,0,81.13L345,223.55l77.17-25-59.34-93Z" fill="#0b0b0b"/><g clip-path="url(#clip-path-7)"><rect x="65.89" y="45.66" width="214.88" height="210.42" transform="translate(-55.57 130.7) rotate(-36)" fill="url(#linear-gradient-6)"/></g><path d="M94.47,196.91l56.62-88.77L253,81.73l0,75.72L166.5,220.28Zm54.72-91.37-59.33,93,77.17,25L256,159l0-81.13ZM256,77.85h0Z" fill="#0b0b0b"/></g></g><g id="_10" data-name="10"><g clip-path="url(#clip-path-8)"><g clip-path="url(#clip-path-8)"><path d="M233.32,287a2.63,2.63,0,0,1-.93,1.92,2.89,2.89,0,0,1-2,.88q-2.64,0-7.91.05t-7.91.06c-1.35,0-2-.59-2-1.76l.05-.6q.76-21,.77-25.43V245.81c0-1-.24-1.53-.71-1.53a13.06,13.06,0,0,0-3.33.66,13.31,13.31,0,0,1-3.37.65c-1.14,0-1.71-.67-1.71-2s0-3.11-.05-5.6-.06-4.37-.06-5.65q0-1.11,1.38-1.65a31.52,31.52,0,0,0,12.68-9c.62-.77,1.16-1.15,1.59-1.15a5.81,5.81,0,0,1,.66.11q2.09.44,6.21,1.37,2.19.28,6.42,1a1.09,1.09,0,0,1,.77,1.21,8.8,8.8,0,0,1-.11,1.15q-.6,4.83-.6,23.67,0,6.31.08,19t.08,19" fill="#c14343"/><path d="M233.32,287a2.63,2.63,0,0,1-.93,1.92,2.89,2.89,0,0,1-2,.88q-2.64,0-7.91.05t-7.91.06c-1.35,0-2-.59-2-1.76l.05-.6q.76-21,.77-25.43V245.81c0-1-.24-1.53-.71-1.53a13.06,13.06,0,0,0-3.33.66,13.31,13.31,0,0,1-3.37.65c-1.14,0-1.71-.67-1.71-2s0-3.11-.05-5.6-.06-4.37-.06-5.65q0-1.11,1.38-1.65a31.52,31.52,0,0,0,12.68-9c.62-.77,1.16-1.15,1.59-1.15a5.81,5.81,0,0,1,.66.11q2.09.44,6.21,1.37,2.19.28,6.42,1a1.09,1.09,0,0,1,.77,1.21,8.8,8.8,0,0,1-.11,1.15q-.6,4.83-.6,23.67,0,6.31.08,19T233.32,287Z" fill="none" stroke="#000" stroke-miterlimit="10"/><path d="M307.84,256.63A35.09,35.09,0,0,1,298.67,281a31.53,31.53,0,0,1-47.06,0,36.6,36.6,0,0,1,0-48.6,31.79,31.79,0,0,1,47,0,34.76,34.76,0,0,1,9.23,24.27m-20.38,0a15.37,15.37,0,0,0-3.29-9.83,11.55,11.55,0,0,0-18.18-.05,15.35,15.35,0,0,0-3.24,9.88,15.87,15.87,0,0,0,3.24,9.94,11.2,11.2,0,0,0,18.12-.11,15.46,15.46,0,0,0,3.35-9.83" fill="#c14343"/><path d="M307.84,256.63A35.09,35.09,0,0,1,298.67,281a31.53,31.53,0,0,1-47.06,0,36.6,36.6,0,0,1,0-48.6,31.79,31.79,0,0,1,47,0A34.76,34.76,0,0,1,307.84,256.63Zm-20.38,0a15.37,15.37,0,0,0-3.29-9.83,11.55,11.55,0,0,0-18.18-.05,15.35,15.35,0,0,0-3.24,9.88,15.87,15.87,0,0,0,3.24,9.94,11.2,11.2,0,0,0,18.12-.11A15.46,15.46,0,0,0,287.46,256.63Z" fill="none" stroke="#000" stroke-miterlimit="10"/></g></g></g></g></svg>