<svg id="Layer_1" data-name="Layer 1" xmlns="http://www.w3.org/2000/svg" xmlns:xlink="http://www.w3.org/1999/xlink" viewBox="0 0 512 512"><defs><clipPath id="clip-path"><rect x="83.2" y="77.8" width="345.61" height="356.4" fill="none"/></clipPath><clipPath id="clip-path-2"><polygon points="202.09 326.66 168.79 224.17 255.97 160.83 343.14 224.17 309.85 326.66 202.09 326.66" fill="none"/></clipPath><linearGradient id="linear-gradient" x1="-2254.68" y1="-5941.62" x2="-2253.68" y2="-5941.62" gradientTransform="matrix(0, -398.95, -398.95, 0, -2370148.48, -899051.56)" gradientUnits="userSpaceOnUse"><stop offset="0" stop-color="#cb9b51"/><stop offset="0.25" stop-color="#f6e27a"/><stop offset="0.5" stop-color="#f6f2c0"/><stop offset="0.75" stop-color="#f6e27a"/><stop offset="1" stop-color="#cb9b51"/></linearGradient><clipPath id="clip-path-3"><polygon points="155.64 393.13 201.76 329.7 310.17 329.7 356.3 393.13 255.97 432.59 155.64 393.13" fill="none"/></clipPath><linearGradient id="linear-gradient-2" x1="-2212.97" y1="-5945.18" x2="-2211.97" y2="-5945.18" gradientTransform="translate(-1471354.81 548031.2) rotate(90) scale(247.53)" gradientUnits="userSpaceOnUse"><stop offset="0" stop-color="#cb9b51"/><stop offset="0.2" stop-color="#cb9b51"/><stop offset="0.4" stop-color="#f6e27a"/><stop offset="0.42" stop-color="#f6e483"/><stop offset="0.46" stop-color="#f6ea9b"/><stop offset="0.5" stop-color="#f6f2c0"/><stop offset="0.6" stop-color="#f6e27a"/><stop offset="0.8" stop-color="#cb9b51"/><stop offset="1" stop-color="#cb9b51"/></linearGradient><clipPath id="clip-path-4"><polygon points="84.73 308.14 91.26 200.53 165.83 224.79 199.33 327.9 153.26 391.36 84.73 308.14" fill="none"/></clipPath><linearGradient id="linear-gradient-3" x1="-2239.68" y1="-5963.2" x2="-2238.68" y2="-5963.2" gradientTransform="translate(-554124.64 -1475774.63) rotate(180) scale(247.53)" xlink:href="#linear-gradient-2"/><clipPath id="clip-path-5"><polygon points="312.67 327.91 346.17 224.8 420.74 200.54 427.27 308.15 358.74 391.38 312.67 327.91" fill="none"/></clipPath><linearGradient id="linear-gradient-4" x1="-2221.83" y1="-5957.4" x2="-2220.83" y2="-5957.4" gradientTransform="matrix(0, 247.53, 247.53, 0, 1475010.37, 550147.94)" xlink:href="#linear-gradient-2"/><clipPath id="clip-path-6"><polygon points="257.51 158.16 257.48 79.74 361.85 106.79 419.82 197.68 345.22 221.89 257.51 158.16" fill="none"/></clipPath><linearGradient id="linear-gradient-5" x1="-2254.01" y1="-5913.06" x2="-2253.01" y2="-5913.06" gradientTransform="translate(558148.6 1463819.07) scale(247.53)" xlink:href="#linear-gradient-2"/><clipPath id="clip-path-7"><polygon points="92.17 197.74 150.14 106.84 254.5 79.79 254.47 158.22 166.76 221.94 92.17 197.74" fill="none"/></clipPath><linearGradient id="linear-gradient-6" x1="-2265.04" y1="-5928.24" x2="-2264.04" y2="-5928.24" gradientTransform="matrix(0, -247.53, -247.53, 0, -1467245.97, -560386.61)" xlink:href="#linear-gradient-2"/><clipPath id="clip-path-8"><rect x="209.13" y="220" width="93.74" height="72" fill="none"/></clipPath></defs><title>12d12</title><g id="D12"><g id="D12-2" data-name="D12"><g clip-path="url(#clip-path)"><g clip-path="url(#clip-path-2)"><rect x="168.79" y="160.83" width="174.36" height="165.83" fill="url(#linear-gradient)"/></g><path d="M256,162.69l85.41,62.06L308.76,325.16H203.18L170.55,224.75Zm0-3.71L167,223.6l34,104.56H310.94l34-104.56Z" fill="#0b0b0b"/><g clip-path="url(#clip-path-3)"><rect x="155.64" y="329.7" width="200.66" height="102.89" fill="url(#linear-gradient-2)"/></g><path d="M158,392.44l44.53-61.24H309.41l44.53,61.24L256,431Zm43-64.24-47.72,65.61L256,434.2l102.68-40.39L310.94,328.2Z" fill="#0b0b0b"/><g clip-path="url(#clip-path-4)"><rect x="58.05" y="187.49" width="167.97" height="216.91" transform="translate(-84.5 58.37) rotate(-18)" fill="url(#linear-gradient-3)"/></g><path d="M86.26,307.64l6.38-105.09,72,23.43,33,101.65-44.48,61.28Zm-3.06,1,70.14,85.17L201,328.16,167,223.6,89.88,198.5Z" fill="#0b0b0b"/><g clip-path="url(#clip-path-5)"><rect x="261.51" y="211.98" width="216.91" height="167.96" transform="translate(-25.83 556.36) rotate(-72)" fill="url(#linear-gradient-4)"/></g><path d="M314.33,327.65l33-101.66,72-23.42,6.38,105.08-66.93,81.28Zm30.65-104L311,328.17l47.66,65.66,70.14-85.18-6.68-110.14Z" fill="#0b0b0b"/><g clip-path="url(#clip-path-6)"><rect x="233.44" y="43.37" width="210.42" height="214.88" transform="translate(17.59 336.14) rotate(-54)" fill="url(#linear-gradient-5)"/></g><path d="M259,157.4l0-75.72L360.9,108.09l56.61,88.77-72,23.36Zm-3-79.6,0,81.13L345,223.55l77.17-25-59.34-93Z" fill="#0b0b0b"/><g clip-path="url(#clip-path-7)"><rect x="65.89" y="45.66" width="214.88" height="210.42" transform="translate(-55.57 130.7) rotate(-36)" fill="url(#linear-gradient-6)"/></g><path d="M94.47,196.91l56.62-88.77L253,81.73l0,75.72L166.5,220.28Zm54.72-91.37-59.33,93,77.17,25L256,159l0-81.13ZM256,77.85h0Z" fill="#0b0b0b"/></g></g><g id="_12" data-name="12"><g clip-path="url(#clip-path-8)"><g clip-path="url(#clip-path-8)"><path d="M238.79,287a2.64,2.64,0,0,1-.94,1.92,2.89,2.89,0,0,1-2,.88c-1.76,0-4.39,0-7.91.05s-6.15.06-7.9.06c-1.36,0-2-.59-2-1.76l.05-.6q.78-21,.77-25.43V245.81c0-1-.24-1.53-.71-1.53a13,13,0,0,0-3.32.66,13.44,13.44,0,0,1-3.38.65c-1.13,0-1.7-.67-1.7-2s0-3.11-.06-5.6-.05-4.37-.05-5.65c0-.74.46-1.29,1.37-1.65a31.52,31.52,0,0,0,12.68-9c.63-.77,1.16-1.15,1.6-1.15a6.67,6.67,0,0,1,.66.11q2.09.44,6.2,1.37,2.21.28,6.43,1a1.1,1.1,0,0,1,.77,1.21,9.37,9.37,0,0,1-.12,1.15q-.6,4.83-.6,23.67,0,6.31.08,19t.09,19" fill="#c14343"/><path d="M238.79,287a2.64,2.64,0,0,1-.94,1.92,2.89,2.89,0,0,1-2,.88c-1.76,0-4.39,0-7.91.05s-6.15.06-7.9.06c-1.36,0-2-.59-2-1.76l.05-.6q.78-21,.77-25.43V245.81c0-1-.24-1.53-.71-1.53a13,13,0,0,0-3.32.66,13.44,13.44,0,0,1-3.38.65c-1.13,0-1.7-.67-1.7-2s0-3.11-.06-5.6-.05-4.37-.05-5.65c0-.74.46-1.29,1.37-1.65a31.52,31.52,0,0,0,12.68-9c.63-.77,1.16-1.15,1.6-1.15a6.67,6.67,0,0,1,.66.11q2.09.44,6.2,1.37,2.21.28,6.43,1a1.1,1.1,0,0,1,.77,1.21,9.37,9.37,0,0,1-.12,1.15q-.6,4.83-.6,23.67,0,6.31.08,19T238.79,287Z" fill="none" stroke="#000" stroke-miterlimit="10"/><path d="M302.37,274.15c0,.84-.09,2.1-.27,3.79a36.71,36.71,0,0,0-.28,3.84c0,.88,0,2.26-.05,4.15s-.06,3.28-.06,4.2-.6,1.37-1.81,1.37a46.49,46.49,0,0,1-5.16-1q-5-1.09-18.67-1.1-4.23,0-12.68.47t-12.58.46a1.42,1.42,0,0,1-1.59-1.37q-.16-1.86-.83-5.55A54.51,54.51,0,0,1,247,277q0-1.21,4.61-1.81,5.38-.72,6.92-2a88.16,88.16,0,0,0,11.37-11.81q7.41-9,7.41-13.5a8.67,8.67,0,0,0-2.83-6.57,9.47,9.47,0,0,0-6.72-2.66,23.1,23.1,0,0,0-8.73,1.76,31.43,31.43,0,0,0-6.1,3.18,17.5,17.5,0,0,1-3,1.71q-1.87,0-1.87-4.4a31.88,31.88,0,0,0-.27-4.94,27.27,27.27,0,0,0-.83-3,9.88,9.88,0,0,1-.66-2.85,1.77,1.77,0,0,1,.94-1.37,35.64,35.64,0,0,1,12.19-5.11A56.1,56.1,0,0,1,272.72,222q10.44,0,17.46,4.62a17.2,17.2,0,0,1,8.29,15.32q0,13.23-20,30.91,14.22-.7,22.3-.71c1.09,0,1.64.67,1.64,2" fill="#c14343"/><path d="M302.37,274.15c0,.84-.09,2.1-.27,3.79a36.71,36.71,0,0,0-.28,3.84c0,.88,0,2.26-.05,4.15s-.06,3.28-.06,4.2-.6,1.37-1.81,1.37a46.49,46.49,0,0,1-5.16-1q-5-1.09-18.67-1.1-4.23,0-12.68.47t-12.58.46a1.42,1.42,0,0,1-1.59-1.37q-.16-1.86-.83-5.55A54.51,54.51,0,0,1,247,277q0-1.21,4.61-1.81,5.38-.72,6.92-2a88.16,88.16,0,0,0,11.37-11.81q7.41-9,7.41-13.5a8.67,8.67,0,0,0-2.83-6.57,9.47,9.47,0,0,0-6.72-2.66,23.1,23.1,0,0,0-8.73,1.76,31.43,31.43,0,0,0-6.1,3.18,17.5,17.5,0,0,1-3,1.71q-1.87,0-1.87-4.4a31.88,31.88,0,0,0-.27-4.94,27.27,27.27,0,0,0-.83-3,9.88,9.88,0,0,1-.66-2.85,1.77,1.77,0,0,1,.94-1.37,35.64,35.64,0,0,1,12.19-5.11A56.1,56.1,0,0,1,272.72,222q10.44,0,17.46,4.62a17.2,17.2,0,0,1,8.29,15.32q0,13.23-20,30.91,14.22-.7,22.3-.71C301.82,272.12,302.37,272.79,302.37,274.15Z" fill="none" stroke="#000" stroke-miterlimit="10"/></g></g></g></g></svg>