<svg id="Layer_1" data-name="Layer 1" xmlns="http://www.w3.org/2000/svg" xmlns:xlink="http://www.w3.org/1999/xlink" viewBox="0 0 512 512"><defs><clipPath id="clip-path"><rect x="50.68" y="52.5" width="410.65" height="407" fill="none"/></clipPath><clipPath id="clip-path-2"><polygon points="459.82 419.06 52.18 419.06 256 92.94 459.82 419.06" fill="none"/></clipPath><linearGradient id="linear-gradient" x1="-1.12" y1="-561.12" x2="-0.12" y2="-561.12" gradientTransform="matrix(0, 326.12, 326.12, 0, 183248.48, 457.64)" gradientUnits="userSpaceOnUse"><stop offset="0" stop-color="#f6e27a"/><stop offset="0.2" stop-color="#f6e27a"/><stop offset="0.38" stop-color="#f6eba3"/><stop offset="0.5" stop-color="#f6f2c0"/><stop offset="0.59" stop-color="#f6eba2"/><stop offset="0.7" stop-color="#f6e27a"/><stop offset="0.9" stop-color="#cb9b51"/><stop offset="1" stop-color="#cb9b51"/></linearGradient><clipPath id="clip-path-4"><rect x="227.5" y="220.74" width="57.01" height="70.52" fill="none"/></clipPath><clipPath id="clip-path-5"><rect x="227.5" y="220.74" width="57.01" height="70.52" fill="none"/></clipPath></defs><title>2d4</title><g id="D4"><g id="D4-2" data-name="D4"><g clip-path="url(#clip-path)"><g clip-path="url(#clip-path-2)"><rect x="52.18" y="92.94" width="407.65" height="326.12" fill="url(#linear-gradient)"/></g><g clip-path="url(#clip-path)"><polygon points="459.82 419.06 52.18 419.06 256 92.94 459.82 419.06" fill="none" stroke="#0b0b0b" stroke-linecap="round" stroke-linejoin="round" stroke-width="3"/></g></g></g><g id="_2" data-name="2"><g clip-path="url(#clip-path-4)"><g clip-path="url(#clip-path-5)"><path d="M284,273.41c0,.84-.09,2.1-.27,3.79s-.27,3-.27,3.84,0,2.26-.06,4.14,0,3.29,0,4.21-.61,1.37-1.82,1.37a46.49,46.49,0,0,1-5.16-1q-5-1.11-18.67-1.1-4.23,0-12.68.46t-12.58.47a1.42,1.42,0,0,1-1.59-1.37q-.16-1.87-.82-5.55a53.39,53.39,0,0,1-1.38-6.42c0-.81,1.54-1.41,4.62-1.82,3.59-.47,5.89-1.13,6.92-2a88.76,88.76,0,0,0,11.36-11.81q7.41-9,7.42-13.51a8.7,8.7,0,0,0-2.83-6.56,9.51,9.51,0,0,0-6.73-2.66,23.1,23.1,0,0,0-8.73,1.76,31.72,31.72,0,0,0-6.1,3.18,17,17,0,0,1-3,1.7c-1.24,0-1.87-1.46-1.87-4.39a31.8,31.8,0,0,0-.27-4.94,26.64,26.64,0,0,0-.83-3,10.13,10.13,0,0,1-.65-2.85,1.79,1.79,0,0,1,.93-1.38,35.73,35.73,0,0,1,12.19-5.1,56.1,56.1,0,0,1,13.23-1.65q10.44,0,17.46,4.61a17.23,17.23,0,0,1,8.3,15.32q0,13.25-20.05,30.92,14.22-.72,22.3-.72c1.1,0,1.64.68,1.64,2" fill="#c14343"/><path d="M284,273.41c0,.84-.09,2.1-.27,3.79s-.27,3-.27,3.84,0,2.26-.06,4.14,0,3.29,0,4.21-.61,1.37-1.82,1.37a46.49,46.49,0,0,1-5.16-1q-5-1.11-18.67-1.1-4.23,0-12.68.46t-12.58.47a1.42,1.42,0,0,1-1.59-1.37q-.16-1.87-.82-5.55a53.39,53.39,0,0,1-1.38-6.42c0-.81,1.54-1.41,4.62-1.82,3.59-.47,5.89-1.13,6.92-2a88.76,88.76,0,0,0,11.36-11.81q7.41-9,7.42-13.51a8.7,8.7,0,0,0-2.83-6.56,9.51,9.51,0,0,0-6.73-2.66,23.1,23.1,0,0,0-8.73,1.76,31.72,31.72,0,0,0-6.1,3.18,17,17,0,0,1-3,1.7c-1.24,0-1.87-1.46-1.87-4.39a31.8,31.8,0,0,0-.27-4.94,26.64,26.64,0,0,0-.83-3,10.13,10.13,0,0,1-.65-2.85,1.79,1.79,0,0,1,.93-1.38,35.73,35.73,0,0,1,12.19-5.1,56.1,56.1,0,0,1,13.23-1.65q10.44,0,17.46,4.61a17.23,17.23,0,0,1,8.3,15.32q0,13.25-20.05,30.92,14.22-.72,22.3-.72C283.46,271.37,284,272.05,284,273.41Z" fill="none" stroke="#000" stroke-miterlimit="10"/></g></g></g></g></svg>