<svg id="Layer_1" data-name="Layer 1" xmlns="http://www.w3.org/2000/svg" xmlns:xlink="http://www.w3.org/1999/xlink" viewBox="0 0 512 512"><defs><clipPath id="clip-path"><rect x="50.68" y="52.5" width="410.65" height="407" fill="none"/></clipPath><clipPath id="clip-path-2"><polygon points="459.82 419.06 52.18 419.06 256 92.94 459.82 419.06" fill="none"/></clipPath><linearGradient id="linear-gradient" x1="0.54" y1="-1103.14" x2="1.54" y2="-1103.14" gradientTransform="matrix(0, 326.12, 326.12, 0, 360008.5, -84.37)" gradientUnits="userSpaceOnUse"><stop offset="0" stop-color="#f6e27a"/><stop offset="0.2" stop-color="#f6e27a"/><stop offset="0.38" stop-color="#f6eba3"/><stop offset="0.5" stop-color="#f6f2c0"/><stop offset="0.59" stop-color="#f6eba2"/><stop offset="0.7" stop-color="#f6e27a"/><stop offset="0.9" stop-color="#cb9b51"/><stop offset="1" stop-color="#cb9b51"/></linearGradient><clipPath id="clip-path-4"><rect x="229.8" y="220.8" width="52.4" height="70.41" fill="none"/></clipPath></defs><title>3d4</title><g id="D4"><g id="D4-2" data-name="D4"><g clip-path="url(#clip-path)"><g clip-path="url(#clip-path-2)"><rect x="52.18" y="92.94" width="407.65" height="326.12" fill="url(#linear-gradient)"/></g><g clip-path="url(#clip-path)"><polygon points="459.82 419.06 52.18 419.06 256 92.94 459.82 419.06" fill="none" stroke="#0b0b0b" stroke-linecap="round" stroke-linejoin="round" stroke-width="3"/></g></g></g><g id="_3" data-name="3"><g clip-path="url(#clip-path-4)"><g clip-path="url(#clip-path-4)"><path d="M281.7,270.33A17.62,17.62,0,0,1,273.3,286q-7.14,4.72-17.85,4.72a65.77,65.77,0,0,1-13.56-1.15q-11.59-2.42-11.59-4.28a3.75,3.75,0,0,1,.22-1q.76-2,2.25-6.1.45-2,1.54-6a1.74,1.74,0,0,1,1.65-1.37q-.17,0,4.91,1.81a26,26,0,0,0,8.32,1.81q10.77,0,10.76-7.19,0-5.76-10.21-5.76c-.91,0-2.12,0-3.62.11s-2.49.11-3,.11c-2.23,0-3.46,0-3.68-.06-1.61-.18-2.41-.8-2.41-1.87q0-8.4.66-10.54a1.73,1.73,0,0,1,1.75-1.37,47.24,47.24,0,0,1,5.52.46,45.75,45.75,0,0,0,5.46.47,5.33,5.33,0,0,0,3.93-1.56,5.42,5.42,0,0,0,1.57-4q0-6.48-9.45-6.48a37.78,37.78,0,0,0-10.71,2.14,3.13,3.13,0,0,1-.49,0c-.48,0-.88-.51-1.21-1.54-.07-1.53-.18-3.29-.33-5.27,0-.44-.14-1.31-.33-2.63a20.9,20.9,0,0,1-.22-2.58q0-2.91,9-4.51a69,69,0,0,1,12-1.09,31.84,31.84,0,0,1,16.37,4.11q8.5,5,8.51,13.68,0,10-9.12,15.26a17,17,0,0,1,8.54,6.1,16.17,16.17,0,0,1,3.16,9.88" fill="#c14343"/><path d="M281.7,270.33A17.62,17.62,0,0,1,273.3,286q-7.14,4.72-17.85,4.72a65.77,65.77,0,0,1-13.56-1.15q-11.59-2.42-11.59-4.28a3.75,3.75,0,0,1,.22-1q.76-2,2.25-6.1.45-2,1.54-6a1.74,1.74,0,0,1,1.65-1.37q-.17,0,4.91,1.81a26,26,0,0,0,8.32,1.81q10.77,0,10.76-7.19,0-5.76-10.21-5.76c-.91,0-2.12,0-3.62.11s-2.49.11-3,.11c-2.23,0-3.46,0-3.68-.06-1.61-.18-2.41-.8-2.41-1.87q0-8.4.66-10.54a1.73,1.73,0,0,1,1.75-1.37,47.24,47.24,0,0,1,5.52.46,45.75,45.75,0,0,0,5.46.47,5.33,5.33,0,0,0,3.93-1.56,5.42,5.42,0,0,0,1.57-4q0-6.48-9.45-6.48a37.78,37.78,0,0,0-10.71,2.14,3.13,3.13,0,0,1-.49,0c-.48,0-.88-.51-1.21-1.54-.07-1.53-.18-3.29-.33-5.27,0-.44-.14-1.31-.33-2.63a20.9,20.9,0,0,1-.22-2.58q0-2.91,9-4.51a69,69,0,0,1,12-1.09,31.84,31.84,0,0,1,16.37,4.11q8.5,5,8.51,13.68,0,10-9.12,15.26a17,17,0,0,1,8.54,6.1A16.17,16.17,0,0,1,281.7,270.33Z" fill="none" stroke="#000" stroke-miterlimit="10"/></g></g></g></g></svg>