<svg id="Layer_1" data-name="Layer 1" xmlns="http://www.w3.org/2000/svg" xmlns:xlink="http://www.w3.org/1999/xlink" viewBox="0 0 512 512"><defs><clipPath id="clip-path"><rect x="92.31" y="31.81" width="327.38" height="448.37" fill="none"/></clipPath><clipPath id="clip-path-2"><polygon points="95.26 254.5 256 34.36 416.74 254.5 95.26 254.5" fill="none"/></clipPath><linearGradient id="linear-gradient" x1="-1115.77" y1="-1100.55" x2="-1114.77" y2="-1100.55" gradientTransform="matrix(-441.33, 0, 0, 441.33, -492052.66, 485846.18)" gradientUnits="userSpaceOnUse"><stop offset="0" stop-color="#f6e27a"/><stop offset="0.3" stop-color="#f6e27a"/><stop offset="0.42" stop-color="#f6eba3"/><stop offset="0.5" stop-color="#f6f2c0"/><stop offset="0.59" stop-color="#f6eba2"/><stop offset="0.7" stop-color="#f6e27a"/><stop offset="0.9" stop-color="#cb9b51"/><stop offset="1" stop-color="#cb9b51"/></linearGradient><clipPath id="clip-path-3"><polygon points="95.26 257.5 416.74 257.5 256 477.64 95.26 257.5" fill="none"/></clipPath><linearGradient id="linear-gradient-2" x1="-1115.76" y1="-1100.55" x2="-1114.76" y2="-1100.55" gradientTransform="matrix(0, 440.66, 440.66, 0, 485223.87, 491706.74)" gradientUnits="userSpaceOnUse"><stop offset="0" stop-color="#f6e27a"/><stop offset="0.2" stop-color="#f6e27a"/><stop offset="0.38" stop-color="#f6eba3"/><stop offset="0.5" stop-color="#f6f2c0"/><stop offset="0.59" stop-color="#f6eba2"/><stop offset="0.7" stop-color="#f6e27a"/><stop offset="0.9" stop-color="#cb9b51"/><stop offset="1" stop-color="#cb9b51"/></linearGradient><clipPath id="clip-path-4"><rect x="229.8" y="141.42" width="52.4" height="70.41" fill="none"/></clipPath></defs><title>3d8</title><g id="D8"><g id="D8-2" data-name="D8"><g clip-path="url(#clip-path)"><g clip-path="url(#clip-path-2)"><rect x="145.59" y="-16.54" width="220.81" height="321.93" transform="translate(111.04 400.13) rotate(-89.88)" fill="url(#linear-gradient)"/></g><path d="M256,36.9,413.78,253H98.22Zm0-5.09L92.31,256H419.69Z" fill="#0b0b0b"/><g clip-path="url(#clip-path-3)"><rect x="95.26" y="257.5" width="321.47" height="220.14" fill="url(#linear-gradient-2)"/></g><path d="M98.22,259H413.78L256,475.1Zm-5.91-3L256,480.19,419.69,256Z" fill="#0b0b0b"/></g></g><g id="_3" data-name="3"><g clip-path="url(#clip-path-4)"><g clip-path="url(#clip-path-4)"><path d="M281.7,191a17.61,17.61,0,0,1-8.4,15.65q-7.14,4.72-17.85,4.72a65.77,65.77,0,0,1-13.56-1.15q-11.59-2.41-11.59-4.28a3.75,3.75,0,0,1,.22-1c.51-1.35,1.26-3.39,2.25-6.09.3-1.36.81-3.37,1.54-6.05a1.74,1.74,0,0,1,1.65-1.37c-.11,0,1.53.61,4.91,1.81a26,26,0,0,0,8.32,1.82q10.77,0,10.76-7.2,0-5.76-10.21-5.76c-.91,0-2.12,0-3.62.11s-2.49.11-3,.11c-2.23,0-3.46,0-3.68-.06-1.61-.18-2.41-.8-2.41-1.87q0-8.4.66-10.54a1.73,1.73,0,0,1,1.75-1.37,47.75,47.75,0,0,1,5.52.47,47.45,47.45,0,0,0,5.46.46,5.33,5.33,0,0,0,3.93-1.56,5.42,5.42,0,0,0,1.57-4q0-6.48-9.45-6.48a37.78,37.78,0,0,0-10.71,2.14,2.26,2.26,0,0,1-.49,0c-.48,0-.88-.51-1.21-1.53q-.1-2.31-.33-5.28c0-.43-.14-1.31-.33-2.63a20.9,20.9,0,0,1-.22-2.58q0-2.91,9-4.51a69,69,0,0,1,12-1.09A31.75,31.75,0,0,1,270.61,146q8.5,4.94,8.51,13.67,0,10-9.12,15.26a17,17,0,0,1,8.54,6.1A16.17,16.17,0,0,1,281.7,191" fill="#c14343"/><path d="M281.7,191a17.61,17.61,0,0,1-8.4,15.65q-7.14,4.72-17.85,4.72a65.77,65.77,0,0,1-13.56-1.15q-11.59-2.41-11.59-4.28a3.75,3.75,0,0,1,.22-1c.51-1.35,1.26-3.39,2.25-6.09.3-1.36.81-3.37,1.54-6.05a1.74,1.74,0,0,1,1.65-1.37c-.11,0,1.53.61,4.91,1.81a26,26,0,0,0,8.32,1.82q10.77,0,10.76-7.2,0-5.76-10.21-5.76c-.91,0-2.12,0-3.62.11s-2.49.11-3,.11c-2.23,0-3.46,0-3.68-.06-1.61-.18-2.41-.8-2.41-1.87q0-8.4.66-10.54a1.73,1.73,0,0,1,1.75-1.37,47.75,47.75,0,0,1,5.52.47,47.45,47.45,0,0,0,5.46.46,5.33,5.33,0,0,0,3.93-1.56,5.42,5.42,0,0,0,1.57-4q0-6.48-9.45-6.48a37.78,37.78,0,0,0-10.71,2.14,2.26,2.26,0,0,1-.49,0c-.48,0-.88-.51-1.21-1.53q-.1-2.31-.33-5.28c0-.43-.14-1.31-.33-2.63a20.9,20.9,0,0,1-.22-2.58q0-2.91,9-4.51a69,69,0,0,1,12-1.09A31.75,31.75,0,0,1,270.61,146q8.5,4.94,8.51,13.67,0,10-9.12,15.26a17,17,0,0,1,8.54,6.1A16.17,16.17,0,0,1,281.7,191Z" fill="none" stroke="#000" stroke-miterlimit="10"/></g></g></g></g></svg>