<svg id="Layer_1" data-name="Layer 1" xmlns="http://www.w3.org/2000/svg" xmlns:xlink="http://www.w3.org/1999/xlink" viewBox="0 0 512 512"><defs><clipPath id="clip-path"><rect x="106" y="106" width="300" height="300" fill="none"/></clipPath><clipPath id="clip-path-2"><rect x="107.5" y="107.5" width="297" height="297" fill="none"/></clipPath><linearGradient id="linear-gradient" x1="-559.23" y1="-1648.16" x2="-558.23" y2="-1648.16" gradientTransform="matrix(0, 566.08, 566.08, 0, 933241.94, 316541.8)" gradientUnits="userSpaceOnUse"><stop offset="0" stop-color="#f6e27a"/><stop offset="0.2" stop-color="#f6e27a"/><stop offset="0.38" stop-color="#f6eba3"/><stop offset="0.5" stop-color="#f6f2c0"/><stop offset="0.59" stop-color="#f6eba2"/><stop offset="0.7" stop-color="#f6e27a"/><stop offset="0.9" stop-color="#cb9b51"/><stop offset="1" stop-color="#cb9b51"/></linearGradient><clipPath id="clip-path-4"><rect x="226.59" y="220.47" width="58.82" height="71.07" fill="none"/></clipPath></defs><title>4d6</title><g id="D6"><g id="D6-2" data-name="D6"><g clip-path="url(#clip-path)"><g clip-path="url(#clip-path-2)"><rect x="107.5" y="107.5" width="297" height="297" fill="url(#linear-gradient)"/></g><g clip-path="url(#clip-path)"><rect x="107.5" y="107.5" width="297" height="297" stroke-width="3" stroke="#000" stroke-linecap="round" stroke-linejoin="round" fill="none"/></g></g></g><g id="_4" data-name="4"><g clip-path="url(#clip-path-4)"><g clip-path="url(#clip-path-4)"><path d="M284.91,278c0,.55-.46.91-1.37,1.1a12.45,12.45,0,0,1-2.75.05,20.79,20.79,0,0,1-2.08-.16,1.9,1.9,0,0,0-2.15,2.14c0,.88.06,2.21.17,4s.16,3.1.16,4c0,1.28-.56,1.92-1.7,1.92q-18.94,0-19.93-.46c-.66-.31-1-.71-1-1.18a28,28,0,0,1,.69-4.07,26.26,26.26,0,0,0,.68-4.72c0-1.21-.67-1.81-2-1.81q-3.68,0-11,.22c-4.89.14-8.56.22-11,.22-2.93,0-4.39-1.16-4.39-3.46q0-1.75-.06-5.25c0-2.32,0-4.07,0-5.24a5.25,5.25,0,0,1,1.7-3.46,145.92,145.92,0,0,0,11.7-13.73q1.75-2.46,11.91-19.27a78.2,78.2,0,0,1,4.29-6.92,2.15,2.15,0,0,1,1.64-.93q1.32,0,8.16,2t9.31,2c1.17,0,1.75.75,1.75,2.25a61.63,61.63,0,0,1-.49,6.45,62.78,62.78,0,0,0-.5,6.51v23.12a33.38,33.38,0,0,0,3.63-.33,27.11,27.11,0,0,1,3.57-.33c.69,0,1,.42,1,1.26s-.05,1.92-.14,3.46-.13,2.71-.13,3.52.06,2,.19,3.59.19,2.79.19,3.6m-27.13-34.7c0-.22-.12-.33-.38-.33s-.66.23-1,.71l-7,11.31a62.56,62.56,0,0,1-8.23,10.49q3,0,15.37-.77.11-2.19.77-10.82.49-6.81.49-10.59" fill="#c14343"/><path d="M284.91,278c0,.55-.46.91-1.37,1.1a12.45,12.45,0,0,1-2.75.05,20.79,20.79,0,0,1-2.08-.16,1.9,1.9,0,0,0-2.15,2.14c0,.88.06,2.21.17,4s.16,3.1.16,4c0,1.28-.56,1.92-1.7,1.92q-18.94,0-19.93-.46c-.66-.31-1-.71-1-1.18a28,28,0,0,1,.69-4.07,26.26,26.26,0,0,0,.68-4.72c0-1.21-.67-1.81-2-1.81q-3.68,0-11,.22c-4.89.14-8.56.22-11,.22-2.93,0-4.39-1.16-4.39-3.46q0-1.75-.06-5.25c0-2.32,0-4.07,0-5.24a5.25,5.25,0,0,1,1.7-3.46,145.92,145.92,0,0,0,11.7-13.73q1.75-2.46,11.91-19.27a78.2,78.2,0,0,1,4.29-6.92,2.15,2.15,0,0,1,1.64-.93q1.32,0,8.16,2t9.31,2c1.17,0,1.75.75,1.75,2.25a61.63,61.63,0,0,1-.49,6.45,62.78,62.78,0,0,0-.5,6.51v23.12a33.38,33.38,0,0,0,3.63-.33,27.11,27.11,0,0,1,3.57-.33c.69,0,1,.42,1,1.26s-.05,1.92-.14,3.46-.13,2.71-.13,3.52.06,2,.19,3.59S284.91,277.21,284.91,278Zm-27.13-34.7c0-.22-.12-.33-.38-.33s-.66.23-1,.71l-7,11.31a62.56,62.56,0,0,1-8.23,10.49q3,0,15.37-.77.11-2.19.77-10.82Q257.78,247.1,257.78,243.32Z" fill="none" stroke="#000" stroke-miterlimit="10"/></g></g></g></g></svg>