<svg id="Layer_1" data-name="Layer 1" xmlns="http://www.w3.org/2000/svg" xmlns:xlink="http://www.w3.org/1999/xlink" viewBox="0 0 512 512"><defs><clipPath id="clip-path"><rect x="92.31" y="31.81" width="327.38" height="448.37" fill="none"/></clipPath><clipPath id="clip-path-2"><polygon points="95.26 254.5 256 34.36 416.74 254.5 95.26 254.5" fill="none"/></clipPath><linearGradient id="linear-gradient" x1="-1116.66" y1="-1646.58" x2="-1115.66" y2="-1646.58" gradientTransform="matrix(-441.33, 0, 0, 441.33, -492444.13, 726823.18)" gradientUnits="userSpaceOnUse"><stop offset="0" stop-color="#f6e27a"/><stop offset="0.3" stop-color="#f6e27a"/><stop offset="0.42" stop-color="#f6eba3"/><stop offset="0.5" stop-color="#f6f2c0"/><stop offset="0.59" stop-color="#f6eba2"/><stop offset="0.7" stop-color="#f6e27a"/><stop offset="0.9" stop-color="#cb9b51"/><stop offset="1" stop-color="#cb9b51"/></linearGradient><clipPath id="clip-path-3"><polygon points="95.26 257.5 416.74 257.5 256 477.64 95.26 257.5" fill="none"/></clipPath><linearGradient id="linear-gradient-2" x1="-1116.65" y1="-1646.59" x2="-1115.65" y2="-1646.59" gradientTransform="matrix(0, 440.66, 440.66, 0, 725837.27, 492096.76)" gradientUnits="userSpaceOnUse"><stop offset="0" stop-color="#f6e27a"/><stop offset="0.2" stop-color="#f6e27a"/><stop offset="0.38" stop-color="#f6eba3"/><stop offset="0.5" stop-color="#f6f2c0"/><stop offset="0.59" stop-color="#f6eba2"/><stop offset="0.7" stop-color="#f6e27a"/><stop offset="0.9" stop-color="#cb9b51"/><stop offset="1" stop-color="#cb9b51"/></linearGradient><clipPath id="clip-path-4"><rect x="226.59" y="141.09" width="58.82" height="71.07" fill="none"/></clipPath></defs><title>4d8</title><g id="D8"><g id="D8-2" data-name="D8"><g clip-path="url(#clip-path)"><g clip-path="url(#clip-path-2)"><rect x="145.59" y="-16.54" width="220.81" height="321.93" transform="translate(111.04 400.13) rotate(-89.88)" fill="url(#linear-gradient)"/></g><path d="M256,36.9,413.78,253H98.22Zm0-5.09L92.31,256H419.69Z" fill="#0b0b0b"/><g clip-path="url(#clip-path-3)"><rect x="95.26" y="257.5" width="321.47" height="220.14" fill="url(#linear-gradient-2)"/></g><path d="M98.22,259H413.78L256,475.1Zm-5.91-3L256,480.19,419.69,256Z" fill="#0b0b0b"/></g></g><g id="_4" data-name="4"><g clip-path="url(#clip-path-4)"><g clip-path="url(#clip-path-4)"><path d="M284.91,198.64c0,.55-.46.92-1.37,1.1a12.45,12.45,0,0,1-2.75,0,20.79,20.79,0,0,1-2.08-.16,1.9,1.9,0,0,0-2.15,2.14c0,.88.06,2.21.17,4s.16,3.1.16,4c0,1.28-.56,1.92-1.7,1.92q-18.94,0-19.93-.46c-.66-.31-1-.71-1-1.18a28,28,0,0,1,.69-4.07,26.26,26.26,0,0,0,.68-4.72c0-1.21-.67-1.81-2-1.81q-3.68,0-11,.22t-11,.22q-4.4,0-4.39-3.46,0-1.75-.06-5.25c0-2.32,0-4.07,0-5.24a5.25,5.25,0,0,1,1.7-3.46,145.92,145.92,0,0,0,11.7-13.73q1.75-2.46,11.91-19.27a78.2,78.2,0,0,1,4.29-6.92,2.15,2.15,0,0,1,1.64-.93q1.32,0,8.16,2t9.31,2c1.17,0,1.75.75,1.75,2.25a61.63,61.63,0,0,1-.49,6.45,62.78,62.78,0,0,0-.5,6.51v23.12a33.38,33.38,0,0,0,3.63-.33,27.11,27.11,0,0,1,3.57-.33c.69,0,1,.42,1,1.26s-.05,1.92-.14,3.46-.13,2.71-.13,3.52.06,2,.19,3.59.19,2.8.19,3.6m-27.13-34.7c0-.22-.12-.33-.38-.33s-.66.24-1,.71l-7,11.31a62.56,62.56,0,0,1-8.23,10.49q3,0,15.37-.77.11-2.19.77-10.82c.33-4.53.49-8.07.49-10.59" fill="#c14343"/><path d="M284.91,198.64c0,.55-.46.92-1.37,1.1a12.45,12.45,0,0,1-2.75,0,20.79,20.79,0,0,1-2.08-.16,1.9,1.9,0,0,0-2.15,2.14c0,.88.06,2.21.17,4s.16,3.1.16,4c0,1.28-.56,1.92-1.7,1.92q-18.94,0-19.93-.46c-.66-.31-1-.71-1-1.18a28,28,0,0,1,.69-4.07,26.26,26.26,0,0,0,.68-4.72c0-1.21-.67-1.81-2-1.81q-3.68,0-11,.22t-11,.22q-4.4,0-4.39-3.46,0-1.75-.06-5.25c0-2.32,0-4.07,0-5.24a5.25,5.25,0,0,1,1.7-3.46,145.92,145.92,0,0,0,11.7-13.73q1.75-2.46,11.91-19.27a78.2,78.2,0,0,1,4.29-6.92,2.15,2.15,0,0,1,1.64-.93q1.32,0,8.16,2t9.31,2c1.17,0,1.75.75,1.75,2.25a61.63,61.63,0,0,1-.49,6.45,62.78,62.78,0,0,0-.5,6.51v23.12a33.38,33.38,0,0,0,3.63-.33,27.11,27.11,0,0,1,3.57-.33c.69,0,1,.42,1,1.26s-.05,1.92-.14,3.46-.13,2.71-.13,3.52.06,2,.19,3.59S284.91,197.84,284.91,198.64Zm-27.13-34.7c0-.22-.12-.33-.38-.33s-.66.24-1,.71l-7,11.31a62.56,62.56,0,0,1-8.23,10.49q3,0,15.37-.77.11-2.19.77-10.82C257.62,170,257.78,166.46,257.78,163.94Z" fill="none" stroke="#000" stroke-miterlimit="10"/></g></g></g></g></svg>