<svg id="Layer_1" data-name="Layer 1" xmlns="http://www.w3.org/2000/svg" xmlns:xlink="http://www.w3.org/1999/xlink" viewBox="0 0 512 512"><defs><clipPath id="clip-path"><rect x="83.2" y="77.8" width="345.61" height="356.4" fill="none"/></clipPath><clipPath id="clip-path-2"><polygon points="202.09 326.66 168.79 224.17 255.97 160.83 343.14 224.17 309.85 326.66 202.09 326.66" fill="none"/></clipPath><linearGradient id="linear-gradient" x1="-2245.28" y1="-2194.49" x2="-2244.28" y2="-2194.49" gradientTransform="matrix(0, -398.95, -398.95, 0, -875234.18, -895304.43)" gradientUnits="userSpaceOnUse"><stop offset="0" stop-color="#cb9b51"/><stop offset="0.25" stop-color="#f6e27a"/><stop offset="0.5" stop-color="#f6f2c0"/><stop offset="0.75" stop-color="#f6e27a"/><stop offset="1" stop-color="#cb9b51"/></linearGradient><clipPath id="clip-path-3"><polygon points="155.64 393.13 201.76 329.7 310.17 329.7 356.3 393.13 255.97 432.59 155.64 393.13" fill="none"/></clipPath><linearGradient id="linear-gradient-2" x1="-2228.11" y1="-2198.05" x2="-2227.11" y2="-2198.05" gradientTransform="translate(-543827.62 551778.33) rotate(90) scale(247.53)" gradientUnits="userSpaceOnUse"><stop offset="0" stop-color="#cb9b51"/><stop offset="0.2" stop-color="#cb9b51"/><stop offset="0.4" stop-color="#f6e27a"/><stop offset="0.42" stop-color="#f6e483"/><stop offset="0.46" stop-color="#f6ea9b"/><stop offset="0.5" stop-color="#f6f2c0"/><stop offset="0.6" stop-color="#f6e27a"/><stop offset="0.8" stop-color="#cb9b51"/><stop offset="1" stop-color="#cb9b51"/></linearGradient><clipPath id="clip-path-4"><polygon points="84.73 308.14 91.26 200.53 165.83 224.79 199.33 327.9 153.26 391.36 84.73 308.14" fill="none"/></clipPath><linearGradient id="linear-gradient-3" x1="-2244.35" y1="-2201.67" x2="-2243.35" y2="-2201.67" gradientTransform="translate(-555282.55 -544683.79) rotate(180) scale(247.53)" xlink:href="#linear-gradient-2"/><clipPath id="clip-path-5"><polygon points="312.67 327.91 346.17 224.8 420.74 200.54 427.27 308.15 358.74 391.38 312.67 327.91" fill="none"/></clipPath><linearGradient id="linear-gradient-4" x1="-2226.51" y1="-2195.87" x2="-2225.51" y2="-2195.87" gradientTransform="matrix(0, 247.53, 247.53, 0, 543916.47, 551305.85)" xlink:href="#linear-gradient-2"/><clipPath id="clip-path-6"><polygon points="257.51 158.16 257.48 79.74 361.85 106.79 419.82 197.68 345.22 221.89 257.51 158.16" fill="none"/></clipPath><linearGradient id="linear-gradient-5" x1="-2241.77" y1="-2174.83" x2="-2240.77" y2="-2174.83" gradientTransform="translate(555117.12 538488.62) scale(247.53)" xlink:href="#linear-gradient-2"/><clipPath id="clip-path-7"><polygon points="92.17 197.74 150.14 106.84 254.5 79.79 254.47 158.22 166.76 221.94 92.17 197.74" fill="none"/></clipPath><linearGradient id="linear-gradient-6" x1="-2252.79" y1="-2190" x2="-2251.79" y2="-2190" gradientTransform="matrix(0, -247.53, -247.53, 0, -541919.19, -557355.03)" xlink:href="#linear-gradient-2"/><clipPath id="clip-path-8"><rect x="229.36" y="220.96" width="53.28" height="70.08" fill="none"/></clipPath></defs><title>5d12</title><g id="D12"><g id="D12-2" data-name="D12"><g clip-path="url(#clip-path)"><g clip-path="url(#clip-path-2)"><rect x="168.79" y="160.83" width="174.36" height="165.83" fill="url(#linear-gradient)"/></g><path d="M256,162.69l85.41,62.06L308.76,325.16H203.18L170.55,224.75Zm0-3.71L167,223.6l34,104.56H310.94l34-104.56Z" fill="#0b0b0b"/><g clip-path="url(#clip-path-3)"><rect x="155.64" y="329.7" width="200.66" height="102.89" fill="url(#linear-gradient-2)"/></g><path d="M158,392.44l44.53-61.24H309.41l44.53,61.24L256,431Zm43-64.24-47.72,65.61L256,434.2l102.68-40.39L310.94,328.2Z" fill="#0b0b0b"/><g clip-path="url(#clip-path-4)"><rect x="58.05" y="187.49" width="167.97" height="216.91" transform="translate(-84.5 58.37) rotate(-18)" fill="url(#linear-gradient-3)"/></g><path d="M86.26,307.64l6.38-105.09,72,23.43,33,101.65-44.48,61.28Zm-3.06,1,70.14,85.17L201,328.16,167,223.6,89.88,198.5Z" fill="#0b0b0b"/><g clip-path="url(#clip-path-5)"><rect x="261.51" y="211.98" width="216.91" height="167.96" transform="translate(-25.83 556.36) rotate(-72)" fill="url(#linear-gradient-4)"/></g><path d="M314.33,327.65l33-101.66,72-23.42,6.38,105.08-66.93,81.28Zm30.65-104L311,328.17l47.66,65.66,70.14-85.18-6.68-110.14Z" fill="#0b0b0b"/><g clip-path="url(#clip-path-6)"><rect x="233.44" y="43.37" width="210.42" height="214.88" transform="translate(17.59 336.14) rotate(-54)" fill="url(#linear-gradient-5)"/></g><path d="M259,157.4l0-75.72L360.9,108.09l56.61,88.77-72,23.36Zm-3-79.6,0,81.13L345,223.55l77.17-25-59.34-93Z" fill="#0b0b0b"/><g clip-path="url(#clip-path-7)"><rect x="65.89" y="45.66" width="214.88" height="210.42" transform="translate(-55.57 130.7) rotate(-36)" fill="url(#linear-gradient-6)"/></g><path d="M94.47,196.91l56.62-88.77L253,81.73l0,75.72L166.5,220.28Zm54.72-91.37-59.33,93,77.17,25L256,159l0-81.13ZM256,77.85h0Z" fill="#0b0b0b"/></g></g><g id="_5" data-name="5"><g clip-path="url(#clip-path-8)"><g clip-path="url(#clip-path-8)"><path d="M282.14,266q0,24.56-30.26,24.55a98.55,98.55,0,0,1-11.75-.93q-9.56-1.22-10-2.92a27.48,27.48,0,0,1-.22-4.88,45.08,45.08,0,0,1,.55-6.15c.48-3.3,1-4.94,1.65-4.94a2.56,2.56,0,0,1,.93.33,33.14,33.14,0,0,0,15,3.29q12.14,0,12.14-7.91,0-4.33-4.45-6.53a18.15,18.15,0,0,0-8.29-1.76,54.76,54.76,0,0,0-6.07.5,56.75,56.75,0,0,1-6.07.49c-1.28,0-1.92-.59-1.92-1.76q0-5.26.47-16.09t.46-16.09a3.78,3.78,0,0,1,.8-2.16,3.09,3.09,0,0,1,1.79-1.35q1.2-.23,15.26-.22,16,0,21.47.11c1,0,1.48.46,1.48,1.26a77.26,77.26,0,0,1-.65,8.57q-.82,7-2,7l-.61-.05q-12.4-1.09-15.48-1.1-6,0-6.48.66-.93,1.65-.93,6.2a1.88,1.88,0,0,0,.27,1.1c.91,0,2.36-.09,4.34-.27s3.31-.28,4.34-.28q10.22,0,17,5.44,7.31,5.82,7.31,15.92" fill="#c14343"/><path d="M282.14,266q0,24.56-30.26,24.55a98.55,98.55,0,0,1-11.75-.93q-9.56-1.22-10-2.92a27.48,27.48,0,0,1-.22-4.88,45.08,45.08,0,0,1,.55-6.15c.48-3.3,1-4.94,1.65-4.94a2.56,2.56,0,0,1,.93.33,33.14,33.14,0,0,0,15,3.29q12.14,0,12.14-7.91,0-4.33-4.45-6.53a18.15,18.15,0,0,0-8.29-1.76,54.76,54.76,0,0,0-6.07.5,56.75,56.75,0,0,1-6.07.49c-1.28,0-1.92-.59-1.92-1.76q0-5.26.47-16.09t.46-16.09a3.78,3.78,0,0,1,.8-2.16,3.09,3.09,0,0,1,1.79-1.35q1.2-.23,15.26-.22,16,0,21.47.11c1,0,1.48.46,1.48,1.26a77.26,77.26,0,0,1-.65,8.57q-.82,7-2,7l-.61-.05q-12.4-1.09-15.48-1.1-6,0-6.48.66-.93,1.65-.93,6.2a1.88,1.88,0,0,0,.27,1.1c.91,0,2.36-.09,4.34-.27s3.31-.28,4.34-.28q10.22,0,17,5.44Q282.14,255.89,282.14,266Z" fill="none" stroke="#000" stroke-miterlimit="10"/></g></g></g></g></svg>