<svg id="Layer_1" data-name="Layer 1" xmlns="http://www.w3.org/2000/svg" xmlns:xlink="http://www.w3.org/1999/xlink" viewBox="0 0 512 512"><defs><clipPath id="clip-path"><rect x="83.2" y="77.8" width="345.61" height="356.4" fill="none"/></clipPath><clipPath id="clip-path-2"><polygon points="202.09 326.66 168.79 224.17 255.97 160.83 343.14 224.17 309.85 326.66 202.09 326.66" fill="none"/></clipPath><linearGradient id="linear-gradient" x1="-2246.63" y1="-2733.82" x2="-2245.63" y2="-2733.82" gradientTransform="matrix(0, -398.95, -398.95, 0, -1090399.08, -895843.76)" gradientUnits="userSpaceOnUse"><stop offset="0" stop-color="#cb9b51"/><stop offset="0.25" stop-color="#f6e27a"/><stop offset="0.5" stop-color="#f6f2c0"/><stop offset="0.75" stop-color="#f6e27a"/><stop offset="1" stop-color="#cb9b51"/></linearGradient><clipPath id="clip-path-3"><polygon points="155.64 393.13 201.76 329.7 310.17 329.7 356.3 393.13 255.97 432.59 155.64 393.13" fill="none"/></clipPath><linearGradient id="linear-gradient-2" x1="-2225.93" y1="-2737.38" x2="-2224.93" y2="-2737.38" gradientTransform="translate(-677327.78 551239) rotate(90) scale(247.53)" gradientUnits="userSpaceOnUse"><stop offset="0" stop-color="#cb9b51"/><stop offset="0.2" stop-color="#cb9b51"/><stop offset="0.4" stop-color="#f6e27a"/><stop offset="0.42" stop-color="#f6e483"/><stop offset="0.46" stop-color="#f6ea9b"/><stop offset="0.5" stop-color="#f6f2c0"/><stop offset="0.6" stop-color="#f6e27a"/><stop offset="0.8" stop-color="#cb9b51"/><stop offset="1" stop-color="#cb9b51"/></linearGradient><clipPath id="clip-path-4"><polygon points="84.73 308.14 91.26 200.53 165.83 224.79 199.33 327.9 153.26 391.36 84.73 308.14" fill="none"/></clipPath><linearGradient id="linear-gradient-3" x1="-2243.68" y1="-2743.07" x2="-2242.68" y2="-2743.07" gradientTransform="translate(-555115.89 -678696.87) rotate(180) scale(247.53)" xlink:href="#linear-gradient-2"/><clipPath id="clip-path-5"><polygon points="312.67 327.91 346.17 224.8 420.74 200.54 427.27 308.15 358.74 391.38 312.67 327.91" fill="none"/></clipPath><linearGradient id="linear-gradient-4" x1="-2225.84" y1="-2737.28" x2="-2224.84" y2="-2737.28" gradientTransform="matrix(0, 247.53, 247.53, 0, 677929.99, 551139.19)" xlink:href="#linear-gradient-2"/><clipPath id="clip-path-6"><polygon points="257.51 158.16 257.48 79.74 361.85 106.79 419.82 197.68 345.22 221.89 257.51 158.16" fill="none"/></clipPath><linearGradient id="linear-gradient-5" x1="-2243.53" y1="-2712.87" x2="-2242.53" y2="-2712.87" gradientTransform="translate(555553.44 671672.59) scale(247.53)" xlink:href="#linear-gradient-2"/><clipPath id="clip-path-7"><polygon points="92.17 197.74 150.14 106.84 254.5 79.79 254.47 158.22 166.76 221.94 92.17 197.74" fill="none"/></clipPath><linearGradient id="linear-gradient-6" x1="-2254.56" y1="-2728.05" x2="-2253.56" y2="-2728.05" gradientTransform="matrix(0, -247.53, -247.53, 0, -675102.63, -557791.37)" xlink:href="#linear-gradient-2"/><clipPath id="clip-path-8"><rect x="226.7" y="220.63" width="58.6" height="70.74" fill="none"/></clipPath></defs><title>6d12</title><g id="D12"><g id="D12-2" data-name="D12"><g clip-path="url(#clip-path)"><g clip-path="url(#clip-path-2)"><rect x="168.79" y="160.83" width="174.36" height="165.83" fill="url(#linear-gradient)"/></g><path d="M256,162.69l85.41,62.06L308.76,325.16H203.18L170.55,224.75Zm0-3.71L167,223.6l34,104.56H310.94l34-104.56Z" fill="#0b0b0b"/><g clip-path="url(#clip-path-3)"><rect x="155.64" y="329.7" width="200.66" height="102.89" fill="url(#linear-gradient-2)"/></g><path d="M158,392.44l44.53-61.24H309.41l44.53,61.24L256,431Zm43-64.24-47.72,65.61L256,434.2l102.68-40.39L310.94,328.2Z" fill="#0b0b0b"/><g clip-path="url(#clip-path-4)"><rect x="58.05" y="187.49" width="167.97" height="216.91" transform="translate(-84.5 58.37) rotate(-18)" fill="url(#linear-gradient-3)"/></g><path d="M86.26,307.64l6.38-105.09,72,23.43,33,101.65-44.48,61.28Zm-3.06,1,70.14,85.17L201,328.16,167,223.6,89.88,198.5Z" fill="#0b0b0b"/><g clip-path="url(#clip-path-5)"><rect x="261.51" y="211.98" width="216.91" height="167.96" transform="translate(-25.83 556.36) rotate(-72)" fill="url(#linear-gradient-4)"/></g><path d="M314.33,327.65l33-101.66,72-23.42,6.38,105.08-66.93,81.28Zm30.65-104L311,328.17l47.66,65.66,70.14-85.18-6.68-110.14Z" fill="#0b0b0b"/><g clip-path="url(#clip-path-6)"><rect x="233.44" y="43.37" width="210.42" height="214.88" transform="translate(17.59 336.14) rotate(-54)" fill="url(#linear-gradient-5)"/></g><path d="M259,157.4l0-75.72L360.9,108.09l56.61,88.77-72,23.36Zm-3-79.6,0,81.13L345,223.55l77.17-25-59.34-93Z" fill="#0b0b0b"/><g clip-path="url(#clip-path-7)"><rect x="65.89" y="45.66" width="214.88" height="210.42" transform="translate(-55.57 130.7) rotate(-36)" fill="url(#linear-gradient-6)"/></g><path d="M94.47,196.91l56.62-88.77L253,81.73l0,75.72L166.5,220.28Zm54.72-91.37-59.33,93,77.17,25L256,159l0-81.13ZM256,77.85h0Z" fill="#0b0b0b"/></g></g><g id="_6" data-name="6"><g clip-path="url(#clip-path-8)"><g clip-path="url(#clip-path-8)"><path d="M284.8,265.22q0,12.31-8.13,19.17-7.64,6.48-20.2,6.48-13.52,0-21.53-8.79-7.74-8.44-7.74-22.07a35.57,35.57,0,0,1,13.12-28.34q12.47-10.53,30-10.54c.7,0,1.21.44,1.54,1.32q4.23,10.81,4.23,11.86c0,1.68-.81,2.53-2.42,2.53a41.44,41.44,0,0,0-12,1.64q-7.14,2.09-9.72,6.37a3.36,3.36,0,0,0-.6,1.49.29.29,0,0,0,.33.33,3.22,3.22,0,0,0,.82-.22A25.2,25.2,0,0,1,263,244.3q9.56,0,15.59,5.6,6.25,5.83,6.26,15.32m-18.89.22a8.81,8.81,0,0,0-2.52-6.45,8.61,8.61,0,0,0-6.37-2.55,9.84,9.84,0,0,0-6.87,2.42,8.4,8.4,0,0,0-2.69,6.58,11.07,11.07,0,0,0,2.25,7.25,8.35,8.35,0,0,0,6.87,3,8.74,8.74,0,0,0,7-2.91,11,11,0,0,0,2.36-7.31" fill="#c14343"/><path d="M284.8,265.22q0,12.31-8.13,19.17-7.64,6.48-20.2,6.48-13.52,0-21.53-8.79-7.74-8.44-7.74-22.07a35.57,35.57,0,0,1,13.12-28.34q12.47-10.53,30-10.54c.7,0,1.21.44,1.54,1.32q4.23,10.81,4.23,11.86c0,1.68-.81,2.53-2.42,2.53a41.44,41.44,0,0,0-12,1.64q-7.14,2.09-9.72,6.37a3.36,3.36,0,0,0-.6,1.49.29.29,0,0,0,.33.33,3.22,3.22,0,0,0,.82-.22A25.2,25.2,0,0,1,263,244.3q9.56,0,15.59,5.6Q284.79,255.74,284.8,265.22Zm-18.89.22a8.81,8.81,0,0,0-2.52-6.45,8.61,8.61,0,0,0-6.37-2.55,9.84,9.84,0,0,0-6.87,2.42,8.4,8.4,0,0,0-2.69,6.58,11.07,11.07,0,0,0,2.25,7.25,8.35,8.35,0,0,0,6.87,3,8.74,8.74,0,0,0,7-2.91A11,11,0,0,0,265.91,265.44Z" fill="none" stroke="#000" stroke-miterlimit="10"/></g></g></g></g></svg>