<svg id="Layer_1" data-name="Layer 1" xmlns="http://www.w3.org/2000/svg" xmlns:xlink="http://www.w3.org/1999/xlink" viewBox="0 0 512 512"><defs><clipPath id="clip-path"><rect x="92.31" y="31.81" width="327.38" height="448.37" fill="none"/></clipPath><clipPath id="clip-path-2"><polygon points="95.26 254.5 256 34.36 416.74 254.5 95.26 254.5" fill="none"/></clipPath><linearGradient id="linear-gradient" x1="-1114.33" y1="-2725.23" x2="-1113.33" y2="-2725.23" gradientTransform="matrix(-441.33, 0, 0, 441.33, -491414.86, 1202860.45)" gradientUnits="userSpaceOnUse"><stop offset="0" stop-color="#f6e27a"/><stop offset="0.3" stop-color="#f6e27a"/><stop offset="0.42" stop-color="#f6eba3"/><stop offset="0.5" stop-color="#f6f2c0"/><stop offset="0.59" stop-color="#f6eba2"/><stop offset="0.7" stop-color="#f6e27a"/><stop offset="0.9" stop-color="#cb9b51"/><stop offset="1" stop-color="#cb9b51"/></linearGradient><clipPath id="clip-path-3"><polygon points="95.26 257.5 416.74 257.5 256 477.64 95.26 257.5" fill="none"/></clipPath><linearGradient id="linear-gradient-2" x1="-1114.31" y1="-2725.25" x2="-1113.31" y2="-2725.25" gradientTransform="matrix(0, 440.66, 440.66, 0, 1201156.26, 491067.37)" gradientUnits="userSpaceOnUse"><stop offset="0" stop-color="#f6e27a"/><stop offset="0.2" stop-color="#f6e27a"/><stop offset="0.38" stop-color="#f6eba3"/><stop offset="0.5" stop-color="#f6f2c0"/><stop offset="0.59" stop-color="#f6eba2"/><stop offset="0.7" stop-color="#f6e27a"/><stop offset="0.9" stop-color="#cb9b51"/><stop offset="1" stop-color="#cb9b51"/></linearGradient><clipPath id="clip-path-4"><rect x="226.7" y="141.25" width="58.6" height="70.74" fill="none"/></clipPath></defs><title>6d8</title><g id="D8"><g id="D8-2" data-name="D8"><g clip-path="url(#clip-path)"><g clip-path="url(#clip-path-2)"><rect x="145.59" y="-16.54" width="220.81" height="321.93" transform="translate(111.04 400.13) rotate(-89.88)" fill="url(#linear-gradient)"/></g><path d="M256,36.9,413.78,253H98.22Zm0-5.09L92.31,256H419.69Z" fill="#0b0b0b"/><g clip-path="url(#clip-path-3)"><rect x="95.26" y="257.5" width="321.47" height="220.14" fill="url(#linear-gradient-2)"/></g><path d="M98.22,259H413.78L256,475.1Zm-5.91-3L256,480.19,419.69,256Z" fill="#0b0b0b"/></g></g><g id="_6" data-name="6"><g clip-path="url(#clip-path-4)"><g clip-path="url(#clip-path-4)"><path d="M284.8,185.85q0,12.3-8.13,19.16-7.64,6.48-20.2,6.48-13.52,0-21.53-8.79-7.74-8.44-7.74-22.07a35.53,35.53,0,0,1,13.12-28.33q12.47-10.55,30-10.55c.7,0,1.21.44,1.54,1.32q4.23,10.81,4.23,11.86c0,1.69-.81,2.53-2.42,2.53a41.78,41.78,0,0,0-12,1.64q-7.14,2.1-9.72,6.37a3.36,3.36,0,0,0-.6,1.49.29.29,0,0,0,.33.33,3.22,3.22,0,0,0,.82-.22A25.2,25.2,0,0,1,263,164.92q9.56,0,15.59,5.61,6.25,5.82,6.26,15.32m-18.89.22a8.84,8.84,0,0,0-2.52-6.46,8.61,8.61,0,0,0-6.37-2.55,9.89,9.89,0,0,0-6.87,2.42,8.41,8.41,0,0,0-2.69,6.59,11.06,11.06,0,0,0,2.25,7.24,8.35,8.35,0,0,0,6.87,3,8.74,8.74,0,0,0,7-2.91,11,11,0,0,0,2.36-7.3" fill="#c14343"/><path d="M284.8,185.85q0,12.3-8.13,19.16-7.64,6.48-20.2,6.48-13.52,0-21.53-8.79-7.74-8.44-7.74-22.07a35.53,35.53,0,0,1,13.12-28.33q12.47-10.55,30-10.55c.7,0,1.21.44,1.54,1.32q4.23,10.81,4.23,11.86c0,1.69-.81,2.53-2.42,2.53a41.78,41.78,0,0,0-12,1.64q-7.14,2.1-9.72,6.37a3.36,3.36,0,0,0-.6,1.49.29.29,0,0,0,.33.33,3.22,3.22,0,0,0,.82-.22A25.2,25.2,0,0,1,263,164.92q9.56,0,15.59,5.61Q284.79,176.35,284.8,185.85Zm-18.89.22a8.84,8.84,0,0,0-2.52-6.46,8.61,8.61,0,0,0-6.37-2.55,9.89,9.89,0,0,0-6.87,2.42,8.41,8.41,0,0,0-2.69,6.59,11.06,11.06,0,0,0,2.25,7.24,8.35,8.35,0,0,0,6.87,3,8.74,8.74,0,0,0,7-2.91A11,11,0,0,0,265.91,186.07Z" fill="none" stroke="#000" stroke-miterlimit="10"/></g></g></g></g></svg>