<svg id="Layer_1" data-name="Layer 1" xmlns="http://www.w3.org/2000/svg" xmlns:xlink="http://www.w3.org/1999/xlink" viewBox="0 0 512 512"><defs><clipPath id="clip-path"><rect x="65.76" y="31.81" width="380.48" height="448.37" fill="none"/></clipPath><clipPath id="clip-path-2"><polygon points="138.86 236.37 255.95 33.81 373.14 236.37 255.95 290.81 138.86 236.37" fill="none"/></clipPath><linearGradient id="linear-gradient" x1="-1676.7" y1="-3280.63" x2="-1675.7" y2="-3280.63" gradientTransform="matrix(234.27, 0, 0, -234.27, 392947.78, -768405.54)" gradientUnits="userSpaceOnUse"><stop offset="0" stop-color="#f6e27a"/><stop offset="0.1" stop-color="#f6e27a"/><stop offset="0.34" stop-color="#f6eba3"/><stop offset="0.5" stop-color="#f6f2c0"/><stop offset="0.68" stop-color="#f6eba2"/><stop offset="0.9" stop-color="#f6e27a"/><stop offset="1" stop-color="#f6e27a"/></linearGradient><clipPath id="clip-path-3"><polygon points="375.11 235.91 263.48 42.85 442.81 267.32 375.11 235.91" fill="none"/></clipPath><linearGradient id="linear-gradient-2" x1="-1678.47" y1="-3243.29" x2="-1677.47" y2="-3243.29" gradientTransform="matrix(-186.96, 0, 0, 186.96, -313374.45, 606511.96)" gradientUnits="userSpaceOnUse"><stop offset="0" stop-color="#cb9b51"/><stop offset="0.2" stop-color="#cb9b51"/><stop offset="0.29" stop-color="#deba63"/><stop offset="0.4" stop-color="#f6e27a"/><stop offset="0.46" stop-color="#f6eba3"/><stop offset="0.5" stop-color="#f6f2c0"/><stop offset="0.55" stop-color="#f6eba2"/><stop offset="0.6" stop-color="#f6e27a"/><stop offset="0.8" stop-color="#cb9b51"/><stop offset="1" stop-color="#cb9b51"/></linearGradient><clipPath id="clip-path-4"><polygon points="248.52 42.85 136.89 235.91 69.19 267.32 248.52 42.85" fill="none"/></clipPath><linearGradient id="linear-gradient-3" x1="-1664.13" y1="-3255.32" x2="-1663.13" y2="-3255.32" gradientTransform="translate(-608447.71 311201.59) rotate(90) scale(186.96)" gradientUnits="userSpaceOnUse"><stop offset="0" stop-color="#cb9b51"/><stop offset="0.1" stop-color="#cb9b51"/><stop offset="0.19" stop-color="#deba63"/><stop offset="0.3" stop-color="#f6e27a"/><stop offset="0.42" stop-color="#f6eba3"/><stop offset="0.5" stop-color="#f6f2c0"/><stop offset="0.59" stop-color="#f6eba2"/><stop offset="0.7" stop-color="#f6e27a"/><stop offset="0.9" stop-color="#cb9b51"/><stop offset="1" stop-color="#cb9b51"/></linearGradient><clipPath id="clip-path-5"><polygon points="67.41 270.35 137.5 237.79 255 292.43 255 477.59 67.41 270.35" fill="none"/></clipPath><linearGradient id="linear-gradient-4" x1="-1693.76" y1="-3285.2" x2="-1692.76" y2="-3285.2" gradientTransform="matrix(181.83, 0, 0, -181.83, 308072.53, -596983.85)" gradientUnits="userSpaceOnUse"><stop offset="0" stop-color="#cb9b51"/><stop offset="0.1" stop-color="#cb9b51"/><stop offset="0.3" stop-color="#f6e27a"/><stop offset="0.5" stop-color="#f6f2c0"/><stop offset="0.7" stop-color="#f6e27a"/><stop offset="0.9" stop-color="#cb9b51"/><stop offset="1" stop-color="#cb9b51"/></linearGradient><clipPath id="clip-path-6"><polygon points="256.98 292.43 374.48 237.79 444.56 270.35 256.98 477.59 256.98 292.43" fill="none"/></clipPath><linearGradient id="linear-gradient-5" x1="-1706.14" y1="-3270.45" x2="-1705.14" y2="-3270.45" gradientTransform="translate(595011.25 -309803.3) rotate(-90) scale(181.83)" xlink:href="#linear-gradient-4"/><clipPath id="clip-path-7"><rect x="229.8" y="158.25" width="52.4" height="70.74" fill="none"/></clipPath></defs><title>7d10</title><g id="D10"><g id="D10-2" data-name="D10"><g clip-path="url(#clip-path)"><g clip-path="url(#clip-path-2)"><rect x="138.86" y="33.81" width="234.27" height="257" fill="url(#linear-gradient)"/></g><path d="M140.28,235.92,256,35.81,371.72,235.92,256,289.71ZM256,31.81l-118.5,205L256,291.91l118.6-55.1Z"/><g clip-path="url(#clip-path-3)"><rect x="212.32" y="11.47" width="281.66" height="287.22" transform="translate(-17.07 263.28) rotate(-40)" fill="url(#linear-gradient-2)"/></g><path d="M375.81,235.14,271,53.88,439.37,264.63ZM256,31.81,374.4,236.69,446.24,270Z"/><g clip-path="url(#clip-path-4)"><rect x="15.24" y="14.26" width="287.22" height="281.66" transform="translate(-62.06 177.09) rotate(-50)" fill="url(#linear-gradient-3)"/></g><path d="M241,53.88,136.19,235.14,72.63,264.63ZM65.76,270l71.84-33.33L256.05,31.81Z"/><g clip-path="url(#clip-path-5)"><rect x="9.07" y="208.77" width="304.28" height="297.84" transform="translate(-216.42 251.26) rotate(-50)" fill="url(#linear-gradient-4)"/></g><path d="M69.07,270.69l68.43-31.8L254,293.06V475ZM65.76,270,256,480.19V291.79l-118.5-55.1Z"/><g clip-path="url(#clip-path-6)"><rect x="201.85" y="205.55" width="297.84" height="304.28" transform="translate(-147.86 309.15) rotate(-40)" fill="url(#linear-gradient-5)"/></g><path d="M258,293.06l116.49-54.17,68.44,31.8L258,475Zm-2-1.27v188.4L446.21,270l-71.74-33.33Z"/></g></g><g id="_7" data-name="7"><g clip-path="url(#clip-path-7)"><g clip-path="url(#clip-path-7)"><path d="M281.7,172.81a3.72,3.72,0,0,1-1.43,2.36q-3.18,2.91-7.25,10.6a93.36,93.36,0,0,0-5.27,11.86,103.57,103.57,0,0,0-5.6,26.25q-.27,3.51-2.36,4.12c-1.06.32-4.49.49-10.27.49q-5.22,0-6.2-.11c-3.12-.33-4.67-1.21-4.67-2.64q0-7.91,5.11-20a172.13,172.13,0,0,1,9.49-18.67q5.12-8.79,5.11-8.68c0-.37-.77-.55-2.31-.55q-4.05,0-12.19.41t-12.19.41a1.21,1.21,0,0,1-1.37-1.37,25,25,0,0,1,.55-4.45c.4-2.23.64-3.71.71-4.44q.23-2.47.22-8.24c0-1,.83-1.43,2.48-1.43a59.2,59.2,0,0,1,6,.39q5.06.54,6,.6,9.45.72,32.4.71a2.46,2.46,0,0,1,2.69,2.59q.33,3.89.33,9.77" fill="#c14343"/><path d="M281.7,172.81a3.72,3.72,0,0,1-1.43,2.36q-3.18,2.91-7.25,10.6a93.36,93.36,0,0,0-5.27,11.86,103.57,103.57,0,0,0-5.6,26.25q-.27,3.51-2.36,4.12c-1.06.32-4.49.49-10.27.49q-5.22,0-6.2-.11c-3.12-.33-4.67-1.21-4.67-2.64q0-7.91,5.11-20a172.13,172.13,0,0,1,9.49-18.67q5.12-8.79,5.11-8.68c0-.37-.77-.55-2.31-.55q-4.05,0-12.19.41t-12.19.41a1.21,1.21,0,0,1-1.37-1.37,25,25,0,0,1,.55-4.45c.4-2.23.64-3.71.71-4.44q.23-2.47.22-8.24c0-1,.83-1.43,2.48-1.43a59.2,59.2,0,0,1,6,.39q5.06.54,6,.6,9.45.72,32.4.71a2.46,2.46,0,0,1,2.69,2.59Q281.7,166.93,281.7,172.81Z" fill="none" stroke="#000" stroke-miterlimit="10"/></g></g></g></g></svg>