<svg id="Layer_1" data-name="Layer 1" xmlns="http://www.w3.org/2000/svg" xmlns:xlink="http://www.w3.org/1999/xlink" viewBox="0 0 512 512"><defs><clipPath id="clip-path"><rect x="92.31" y="31.81" width="327.38" height="448.37" fill="none"/></clipPath><clipPath id="clip-path-2"><polygon points="95.26 254.5 256 34.36 416.74 254.5 95.26 254.5" fill="none"/></clipPath><linearGradient id="linear-gradient" x1="-1120.27" y1="-3261.86" x2="-1119.27" y2="-3261.86" gradientTransform="matrix(-441.33, 0, 0, 441.33, -494036.06, 1439687.81)" gradientUnits="userSpaceOnUse"><stop offset="0" stop-color="#f6e27a"/><stop offset="0.3" stop-color="#f6e27a"/><stop offset="0.42" stop-color="#f6eba3"/><stop offset="0.5" stop-color="#f6f2c0"/><stop offset="0.59" stop-color="#f6eba2"/><stop offset="0.7" stop-color="#f6e27a"/><stop offset="0.9" stop-color="#cb9b51"/><stop offset="1" stop-color="#cb9b51"/></linearGradient><clipPath id="clip-path-3"><polygon points="95.26 257.5 416.74 257.5 256 477.64 95.26 257.5" fill="none"/></clipPath><linearGradient id="linear-gradient-2" x1="-1120.25" y1="-3261.87" x2="-1119.25" y2="-3261.87" gradientTransform="matrix(0, 440.66, 440.66, 0, 1437626.27, 493683.75)" gradientUnits="userSpaceOnUse"><stop offset="0" stop-color="#f6e27a"/><stop offset="0.2" stop-color="#f6e27a"/><stop offset="0.38" stop-color="#f6eba3"/><stop offset="0.5" stop-color="#f6f2c0"/><stop offset="0.59" stop-color="#f6eba2"/><stop offset="0.7" stop-color="#f6e27a"/><stop offset="0.9" stop-color="#cb9b51"/><stop offset="1" stop-color="#cb9b51"/></linearGradient><clipPath id="clip-path-4"><rect x="229.8" y="141.25" width="52.4" height="70.74" fill="none"/></clipPath></defs><title>7d8</title><g id="D8"><g id="D8-2" data-name="D8"><g clip-path="url(#clip-path)"><g clip-path="url(#clip-path-2)"><rect x="145.59" y="-16.54" width="220.81" height="321.93" transform="translate(111.04 400.13) rotate(-89.88)" fill="url(#linear-gradient)"/></g><path d="M256,36.9,413.78,253H98.22Zm0-5.09L92.31,256H419.69Z" fill="#0b0b0b"/><g clip-path="url(#clip-path-3)"><rect x="95.26" y="257.5" width="321.47" height="220.14" fill="url(#linear-gradient-2)"/></g><path d="M98.22,259H413.78L256,475.1Zm-5.91-3L256,480.19,419.69,256Z" fill="#0b0b0b"/></g></g><g id="_7" data-name="7"><g clip-path="url(#clip-path-4)"><g clip-path="url(#clip-path-4)"><path d="M281.7,155.81a3.72,3.72,0,0,1-1.43,2.36q-3.18,2.91-7.25,10.6a93.36,93.36,0,0,0-5.27,11.86,103.57,103.57,0,0,0-5.6,26.25q-.27,3.51-2.36,4.12c-1.06.32-4.49.49-10.27.49q-5.22,0-6.2-.11c-3.12-.33-4.67-1.21-4.67-2.64q0-7.91,5.11-20a172.13,172.13,0,0,1,9.49-18.67q5.12-8.79,5.11-8.68c0-.37-.77-.55-2.31-.55q-4.05,0-12.19.41t-12.19.41a1.21,1.21,0,0,1-1.37-1.37,25,25,0,0,1,.55-4.45c.4-2.23.64-3.71.71-4.44q.23-2.47.22-8.24c0-1,.83-1.43,2.48-1.43a59.2,59.2,0,0,1,6,.39q5.06.54,6,.6,9.45.72,32.4.71a2.46,2.46,0,0,1,2.69,2.59q.33,3.89.33,9.77" fill="#c14343"/><path d="M281.7,155.81a3.72,3.72,0,0,1-1.43,2.36q-3.18,2.91-7.25,10.6a93.36,93.36,0,0,0-5.27,11.86,103.57,103.57,0,0,0-5.6,26.25q-.27,3.51-2.36,4.12c-1.06.32-4.49.49-10.27.49q-5.22,0-6.2-.11c-3.12-.33-4.67-1.21-4.67-2.64q0-7.91,5.11-20a172.13,172.13,0,0,1,9.49-18.67q5.12-8.79,5.11-8.68c0-.37-.77-.55-2.31-.55q-4.05,0-12.19.41t-12.19.41a1.21,1.21,0,0,1-1.37-1.37,25,25,0,0,1,.55-4.45c.4-2.23.64-3.71.71-4.44q.23-2.47.22-8.24c0-1,.83-1.43,2.48-1.43a59.2,59.2,0,0,1,6,.39q5.06.54,6,.6,9.45.72,32.4.71a2.46,2.46,0,0,1,2.69,2.59Q281.7,149.93,281.7,155.81Z" fill="none" stroke="#000" stroke-miterlimit="10"/></g></g></g></g></svg>