<svg id="Layer_1" data-name="Layer 1" xmlns="http://www.w3.org/2000/svg" xmlns:xlink="http://www.w3.org/1999/xlink" viewBox="0 0 512 512"><defs><clipPath id="clip-path"><rect x="65.76" y="31.81" width="380.48" height="448.37" fill="none"/></clipPath><clipPath id="clip-path-2"><polygon points="138.86 236.37 255.95 33.81 373.14 236.37 255.95 290.81 138.86 236.37" fill="none"/></clipPath><linearGradient id="linear-gradient" x1="-1677.59" y1="-4355.81" x2="-1676.59" y2="-4355.81" gradientTransform="matrix(234.27, 0, 0, -234.27, 393156.43, -1020292.37)" gradientUnits="userSpaceOnUse"><stop offset="0" stop-color="#f6e27a"/><stop offset="0.1" stop-color="#f6e27a"/><stop offset="0.34" stop-color="#f6eba3"/><stop offset="0.5" stop-color="#f6f2c0"/><stop offset="0.68" stop-color="#f6eba2"/><stop offset="0.9" stop-color="#f6e27a"/><stop offset="1" stop-color="#f6e27a"/></linearGradient><clipPath id="clip-path-3"><polygon points="375.11 235.91 263.48 42.85 442.81 267.32 375.11 235.91" fill="none"/></clipPath><linearGradient id="linear-gradient-2" x1="-1675.69" y1="-4309.5" x2="-1674.69" y2="-4309.5" gradientTransform="matrix(-186.96, 0, 0, 186.96, -312854.17, 805849.7)" gradientUnits="userSpaceOnUse"><stop offset="0" stop-color="#cb9b51"/><stop offset="0.2" stop-color="#cb9b51"/><stop offset="0.29" stop-color="#deba63"/><stop offset="0.4" stop-color="#f6e27a"/><stop offset="0.46" stop-color="#f6eba3"/><stop offset="0.5" stop-color="#f6f2c0"/><stop offset="0.55" stop-color="#f6eba2"/><stop offset="0.6" stop-color="#f6e27a"/><stop offset="0.8" stop-color="#cb9b51"/><stop offset="1" stop-color="#cb9b51"/></linearGradient><clipPath id="clip-path-4"><polygon points="248.52 42.85 136.89 235.91 69.19 267.32 248.52 42.85" fill="none"/></clipPath><linearGradient id="linear-gradient-3" x1="-1661.34" y1="-4321.54" x2="-1660.34" y2="-4321.54" gradientTransform="translate(-807786.6 310679.93) rotate(90) scale(186.96)" gradientUnits="userSpaceOnUse"><stop offset="0" stop-color="#cb9b51"/><stop offset="0.1" stop-color="#cb9b51"/><stop offset="0.19" stop-color="#deba63"/><stop offset="0.3" stop-color="#f6e27a"/><stop offset="0.42" stop-color="#f6eba3"/><stop offset="0.5" stop-color="#f6f2c0"/><stop offset="0.59" stop-color="#f6eba2"/><stop offset="0.7" stop-color="#f6e27a"/><stop offset="0.9" stop-color="#cb9b51"/><stop offset="1" stop-color="#cb9b51"/></linearGradient><clipPath id="clip-path-5"><polygon points="67.41 270.35 137.5 237.79 255 292.43 255 477.59 67.41 270.35" fill="none"/></clipPath><linearGradient id="linear-gradient-4" x1="-1699.17" y1="-4359.6" x2="-1698.17" y2="-4359.6" gradientTransform="matrix(181.83, 0, 0, -181.83, 309054.7, -792339.43)" gradientUnits="userSpaceOnUse"><stop offset="0" stop-color="#cb9b51"/><stop offset="0.1" stop-color="#cb9b51"/><stop offset="0.3" stop-color="#f6e27a"/><stop offset="0.5" stop-color="#f6f2c0"/><stop offset="0.7" stop-color="#f6e27a"/><stop offset="0.9" stop-color="#cb9b51"/><stop offset="1" stop-color="#cb9b51"/></linearGradient><clipPath id="clip-path-6"><polygon points="256.98 292.43 374.48 237.79 444.56 270.35 256.98 477.59 256.98 292.43" fill="none"/></clipPath><linearGradient id="linear-gradient-5" x1="-1711.55" y1="-4344.84" x2="-1710.55" y2="-4344.84" gradientTransform="translate(790365.47 -310786.61) rotate(-90) scale(181.83)" xlink:href="#linear-gradient-4"/><clipPath id="clip-path-7"><rect x="226.59" y="157.92" width="58.82" height="71.4" fill="none"/></clipPath></defs><title>9d10_1</title><g id="D10"><g id="D10-2" data-name="D10"><g clip-path="url(#clip-path)"><g clip-path="url(#clip-path-2)"><rect x="138.86" y="33.81" width="234.27" height="257" fill="url(#linear-gradient)"/></g><path d="M140.28,235.92,256,35.81,371.72,235.92,256,289.71ZM256,31.81l-118.5,205L256,291.91l118.6-55.1Z"/><g clip-path="url(#clip-path-3)"><rect x="212.32" y="11.47" width="281.66" height="287.22" transform="translate(-17.07 263.28) rotate(-40)" fill="url(#linear-gradient-2)"/></g><path d="M375.81,235.14,271,53.88,439.37,264.63ZM256,31.81,374.4,236.69,446.24,270Z"/><g clip-path="url(#clip-path-4)"><rect x="15.24" y="14.26" width="287.22" height="281.66" transform="translate(-62.06 177.09) rotate(-50)" fill="url(#linear-gradient-3)"/></g><path d="M241,53.88,136.19,235.14,72.63,264.63ZM65.76,270l71.84-33.33L256.05,31.81Z"/><g clip-path="url(#clip-path-5)"><rect x="9.07" y="208.77" width="304.28" height="297.84" transform="translate(-216.42 251.26) rotate(-50)" fill="url(#linear-gradient-4)"/></g><path d="M69.07,270.69l68.43-31.8L254,293.06V475ZM65.76,270,256,480.19V291.79l-118.5-55.1Z"/><g clip-path="url(#clip-path-6)"><rect x="201.85" y="205.55" width="297.84" height="304.28" transform="translate(-147.86 309.15) rotate(-40)" fill="url(#linear-gradient-5)"/></g><path d="M258,293.06l116.49-54.17,68.44,31.8L258,475Zm-2-1.27v188.4L446.21,270l-71.74-33.33Z"/></g></g><g id="_9" data-name="9"><g clip-path="url(#clip-path-7)"><g clip-path="url(#clip-path-7)"><path d="M284.91,189.45q0,18-13.4,29.05Q259,228.82,240.6,228.82c-.74,0-1.3-.5-1.71-1.48Q235,217.79,235,214.93c0-1.17.86-1.76,2.58-1.76q17.56,0,22.79-9a4.22,4.22,0,0,0,.71-1.75.29.29,0,0,0-.33-.33,4.32,4.32,0,0,0-1.26.44,24.66,24.66,0,0,1-10.44,2.14q-9.6,0-15.7-5.71-6.25-5.77-6.26-15.32,0-12.42,8.29-19.06,7.58-6.15,20.26-6.15,13.68,0,21.64,8.79,7.64,8.46,7.63,22.24m-20.59-5.27A11.1,11.1,0,0,0,262,177a8.12,8.12,0,0,0-6.65-3.24q-9.1,0-9.11,9.55a9.09,9.09,0,0,0,2.47,6.51,8.31,8.31,0,0,0,6.31,2.61,10.09,10.09,0,0,0,6.54-2.14,7.67,7.67,0,0,0,2.8-6.15" fill="#c14343"/><path d="M284.91,189.45q0,18-13.4,29.05Q259,228.82,240.6,228.82c-.74,0-1.3-.5-1.71-1.48Q235,217.79,235,214.93c0-1.17.86-1.76,2.58-1.76q17.56,0,22.79-9a4.22,4.22,0,0,0,.71-1.75.29.29,0,0,0-.33-.33,4.32,4.32,0,0,0-1.26.44,24.66,24.66,0,0,1-10.44,2.14q-9.6,0-15.7-5.71-6.25-5.77-6.26-15.32,0-12.42,8.29-19.06,7.58-6.15,20.26-6.15,13.68,0,21.64,8.79Q284.92,175.67,284.91,189.45Zm-20.59-5.27A11.1,11.1,0,0,0,262,177a8.12,8.12,0,0,0-6.65-3.24q-9.1,0-9.11,9.55a9.09,9.09,0,0,0,2.47,6.51,8.31,8.31,0,0,0,6.31,2.61,10.09,10.09,0,0,0,6.54-2.14A7.67,7.67,0,0,0,264.32,184.18Z" fill="none" stroke="#000" stroke-miterlimit="10"/></g></g></g></g></svg>