<svg id="Layer_1" data-name="Layer 1" xmlns="http://www.w3.org/2000/svg" xmlns:xlink="http://www.w3.org/1999/xlink" viewBox="0 0 512 512"><defs><clipPath id="clip-path"><rect x="65.76" y="31.81" width="380.48" height="448.37" fill="none"/></clipPath><clipPath id="clip-path-2"><polygon points="138.86 236.37 255.95 33.81 373.14 236.37 255.95 290.81 138.86 236.37" fill="none"/></clipPath><linearGradient id="linear-gradient" x1="-1677.59" y1="-3818.22" x2="-1676.59" y2="-3818.22" gradientTransform="matrix(234.27, 0, 0, -234.27, 393156.43, -894348.96)" gradientUnits="userSpaceOnUse"><stop offset="0" stop-color="#f6e27a"/><stop offset="0.1" stop-color="#f6e27a"/><stop offset="0.34" stop-color="#f6eba3"/><stop offset="0.5" stop-color="#f6f2c0"/><stop offset="0.68" stop-color="#f6eba2"/><stop offset="0.9" stop-color="#f6e27a"/><stop offset="1" stop-color="#f6e27a"/></linearGradient><clipPath id="clip-path-3"><polygon points="375.11 235.91 263.48 42.85 442.81 267.32 375.11 235.91" fill="none"/></clipPath><linearGradient id="linear-gradient-2" x1="-1677.53" y1="-3776.39" x2="-1676.53" y2="-3776.39" gradientTransform="matrix(-186.96, 0, 0, 186.96, -313198.26, 706180.54)" gradientUnits="userSpaceOnUse"><stop offset="0" stop-color="#cb9b51"/><stop offset="0.2" stop-color="#cb9b51"/><stop offset="0.29" stop-color="#deba63"/><stop offset="0.4" stop-color="#f6e27a"/><stop offset="0.46" stop-color="#f6eba3"/><stop offset="0.5" stop-color="#f6f2c0"/><stop offset="0.55" stop-color="#f6eba2"/><stop offset="0.6" stop-color="#f6e27a"/><stop offset="0.8" stop-color="#cb9b51"/><stop offset="1" stop-color="#cb9b51"/></linearGradient><clipPath id="clip-path-4"><polygon points="248.52 42.85 136.89 235.91 69.19 267.32 248.52 42.85" fill="none"/></clipPath><linearGradient id="linear-gradient-3" x1="-1663.18" y1="-3788.43" x2="-1662.18" y2="-3788.43" gradientTransform="translate(-708117.44 311024.03) rotate(90) scale(186.96)" gradientUnits="userSpaceOnUse"><stop offset="0" stop-color="#cb9b51"/><stop offset="0.1" stop-color="#cb9b51"/><stop offset="0.19" stop-color="#deba63"/><stop offset="0.3" stop-color="#f6e27a"/><stop offset="0.42" stop-color="#f6eba3"/><stop offset="0.5" stop-color="#f6f2c0"/><stop offset="0.59" stop-color="#f6eba2"/><stop offset="0.7" stop-color="#f6e27a"/><stop offset="0.9" stop-color="#cb9b51"/><stop offset="1" stop-color="#cb9b51"/></linearGradient><clipPath id="clip-path-5"><polygon points="67.41 270.35 137.5 237.79 255 292.43 255 477.59 67.41 270.35" fill="none"/></clipPath><linearGradient id="linear-gradient-4" x1="-1696.91" y1="-3822.4" x2="-1695.91" y2="-3822.4" gradientTransform="matrix(181.83, 0, 0, -181.83, 308644.64, -694661.98)" gradientUnits="userSpaceOnUse"><stop offset="0" stop-color="#cb9b51"/><stop offset="0.1" stop-color="#cb9b51"/><stop offset="0.3" stop-color="#f6e27a"/><stop offset="0.5" stop-color="#f6f2c0"/><stop offset="0.7" stop-color="#f6e27a"/><stop offset="0.9" stop-color="#cb9b51"/><stop offset="1" stop-color="#cb9b51"/></linearGradient><clipPath id="clip-path-6"><polygon points="256.98 292.43 374.48 237.79 444.56 270.35 256.98 477.59 256.98 292.43" fill="none"/></clipPath><linearGradient id="linear-gradient-5" x1="-1709.29" y1="-3807.65" x2="-1708.29" y2="-3807.65" gradientTransform="translate(692688.02 -310376.56) rotate(-90) scale(181.83)" xlink:href="#linear-gradient-4"/><clipPath id="clip-path-7"><rect x="229.12" y="158.09" width="53.77" height="71.07" fill="none"/></clipPath></defs><title>9d10</title><g id="D10"><g id="D10-2" data-name="D10"><g clip-path="url(#clip-path)"><g clip-path="url(#clip-path-2)"><rect x="138.86" y="33.81" width="234.27" height="257" fill="url(#linear-gradient)"/></g><path d="M140.28,235.92,256,35.81,371.72,235.92,256,289.71ZM256,31.81l-118.5,205L256,291.91l118.6-55.1Z"/><g clip-path="url(#clip-path-3)"><rect x="212.32" y="11.47" width="281.66" height="287.22" transform="translate(-17.07 263.28) rotate(-40)" fill="url(#linear-gradient-2)"/></g><path d="M375.81,235.14,271,53.88,439.37,264.63ZM256,31.81,374.4,236.69,446.24,270Z"/><g clip-path="url(#clip-path-4)"><rect x="15.24" y="14.26" width="287.22" height="281.66" transform="translate(-62.06 177.09) rotate(-50)" fill="url(#linear-gradient-3)"/></g><path d="M241,53.88,136.19,235.14,72.63,264.63ZM65.76,270l71.84-33.33L256.05,31.81Z"/><g clip-path="url(#clip-path-5)"><rect x="9.07" y="208.77" width="304.28" height="297.84" transform="translate(-216.42 251.26) rotate(-50)" fill="url(#linear-gradient-4)"/></g><path d="M69.07,270.69l68.43-31.8L254,293.06V475ZM65.76,270,256,480.19V291.79l-118.5-55.1Z"/><g clip-path="url(#clip-path-6)"><rect x="201.85" y="205.55" width="297.84" height="304.28" transform="translate(-147.86 309.15) rotate(-40)" fill="url(#linear-gradient-5)"/></g><path d="M258,293.06l116.49-54.17,68.44,31.8L258,475Zm-2-1.27v188.4L446.21,270l-71.74-33.33Z"/></g></g><g id="_8" data-name="8"><g clip-path="url(#clip-path-7)"><g clip-path="url(#clip-path-7)"><path d="M282.38,208.06q0,10-7.9,15.65-7,4.95-17.52,4.94-12.13,0-19.22-5.21-8.13-5.88-8.13-17.52a14.2,14.2,0,0,1,2.15-7.41,22.86,22.86,0,0,1,4-4.83l2.09-2c0-.4-.57-1.21-1.71-2.42a18.19,18.19,0,0,1-3.23-4.12,14.62,14.62,0,0,1-1.76-7.24q0-9.88,8.18-15,6.87-4.27,17.35-4.28a29.39,29.39,0,0,1,16.2,4.72q8.46,5.43,8.46,13.84a17.16,17.16,0,0,1-1.93,8.12A18.54,18.54,0,0,1,275.9,190q-1.86,1.92-1.86,2.25a25.47,25.47,0,0,0,2.14,2.3,24.57,24.57,0,0,1,4.06,5.22,16.93,16.93,0,0,1,2.14,8.29m-21.25.61q0-5.32-8.89-8c-1.94-.62-3-.93-3.13-.93q-1.92,0-3.74,3.07a10.1,10.1,0,0,0-1.7,4.94,7.41,7.41,0,0,0,2.8,6,9.44,9.44,0,0,0,6.32,2.19q8.34,0,8.34-7.24m5.33-31.52a5.44,5.44,0,0,0-2.53-4.61,8.87,8.87,0,0,0-5.21-1.6q-7.7,0-7.69,6.48,0,4.29,9.83,7a4.44,4.44,0,0,0,1,.16c1.21,0,2.3-.95,3.29-2.85a10.07,10.07,0,0,0,1.32-4.56" fill="#c14343"/><path d="M282.38,208.06q0,10-7.9,15.65-7,4.95-17.52,4.94-12.13,0-19.22-5.21-8.13-5.88-8.13-17.52a14.2,14.2,0,0,1,2.15-7.41,22.86,22.86,0,0,1,4-4.83l2.09-2c0-.4-.57-1.21-1.71-2.42a18.19,18.19,0,0,1-3.23-4.12,14.62,14.62,0,0,1-1.76-7.24q0-9.88,8.18-15,6.87-4.27,17.35-4.28a29.39,29.39,0,0,1,16.2,4.72q8.46,5.43,8.46,13.84a17.16,17.16,0,0,1-1.93,8.12A18.54,18.54,0,0,1,275.9,190q-1.86,1.92-1.86,2.25a25.47,25.47,0,0,0,2.14,2.3,24.57,24.57,0,0,1,4.06,5.22A16.93,16.93,0,0,1,282.38,208.06Zm-21.25.61q0-5.32-8.89-8c-1.94-.62-3-.93-3.13-.93q-1.92,0-3.74,3.07a10.1,10.1,0,0,0-1.7,4.94,7.41,7.41,0,0,0,2.8,6,9.44,9.44,0,0,0,6.32,2.19Q261.13,215.91,261.13,208.67Zm5.33-31.52a5.44,5.44,0,0,0-2.53-4.61,8.87,8.87,0,0,0-5.21-1.6q-7.7,0-7.69,6.48,0,4.29,9.83,7a4.44,4.44,0,0,0,1,.16c1.21,0,2.3-.95,3.29-2.85A10.07,10.07,0,0,0,266.46,177.15Z" fill="none" stroke="#000" stroke-miterlimit="10"/></g></g></g></g></svg>