<svg id="Layer_1" data-name="Layer 1" xmlns="http://www.w3.org/2000/svg" xmlns:xlink="http://www.w3.org/1999/xlink" viewBox="0 0 512 512"><defs><clipPath id="clip-path"><rect x="50.68" y="52.5" width="410.65" height="407" fill="none"/></clipPath><clipPath id="clip-path-2"><polygon points="459.82 419.06 52.18 419.06 256 92.94 459.82 419.06" fill="none"/></clipPath><linearGradient id="linear-gradient" x1="-4.41" y1="512.17" x2="-3.41" y2="512.17" gradientTransform="matrix(0, 326.12, 326.12, 0, -166771.35, 1530.94)" gradientUnits="userSpaceOnUse"><stop offset="0" stop-color="#f6e27a"/><stop offset="0.2" stop-color="#f6e27a"/><stop offset="0.38" stop-color="#f6eba3"/><stop offset="0.5" stop-color="#f6f2c0"/><stop offset="0.59" stop-color="#f6eba2"/><stop offset="0.7" stop-color="#f6e27a"/><stop offset="0.9" stop-color="#cb9b51"/><stop offset="1" stop-color="#cb9b51"/></linearGradient><clipPath id="clip-path-4"><rect x="222.77" y="220.74" width="66.45" height="70.52" fill="none"/></clipPath><clipPath id="clip-path-5"><rect x="222.77" y="220.74" width="66.45" height="70.52" fill="none"/></clipPath></defs><title>0d4</title><g id="D4"><g id="D4-2" data-name="D4"><g clip-path="url(#clip-path)"><g clip-path="url(#clip-path-2)"><rect x="52.18" y="92.94" width="407.65" height="326.12" fill="url(#linear-gradient)"/></g><g clip-path="url(#clip-path)"><polygon points="459.82 419.06 52.18 419.06 256 92.94 459.82 419.06" fill="none" stroke="#0b0b0b" stroke-linecap="round" stroke-linejoin="round" stroke-width="3"/></g></g></g><g id="_0" data-name="0"><g clip-path="url(#clip-path-4)"><g clip-path="url(#clip-path-5)"><path d="M288.73,255.89a35.1,35.1,0,0,1-9.17,24.33,31.53,31.53,0,0,1-47.06,0,35,35,0,0,1-9.23-24.33,34.62,34.62,0,0,1,9.23-24.27,31.79,31.79,0,0,1,47,0,34.76,34.76,0,0,1,9.23,24.27m-20.38,0a15.37,15.37,0,0,0-3.29-9.83,11.55,11.55,0,0,0-18.18-.05,15.35,15.35,0,0,0-3.24,9.88,15.87,15.87,0,0,0,3.24,9.94,11.2,11.2,0,0,0,18.12-.11,15.48,15.48,0,0,0,3.35-9.83" fill="#c14343"/><path d="M288.73,255.89a35.1,35.1,0,0,1-9.17,24.33,31.53,31.53,0,0,1-47.06,0,35,35,0,0,1-9.23-24.33,34.62,34.62,0,0,1,9.23-24.27,31.79,31.79,0,0,1,47,0A34.76,34.76,0,0,1,288.73,255.89Zm-20.38,0a15.37,15.37,0,0,0-3.29-9.83,11.55,11.55,0,0,0-18.18-.05,15.35,15.35,0,0,0-3.24,9.88,15.87,15.87,0,0,0,3.24,9.94,11.2,11.2,0,0,0,18.12-.11A15.48,15.48,0,0,0,268.35,255.89Z" fill="none" stroke="#000" stroke-miterlimit="10"/></g></g></g></g></svg>