<svg id="Layer_1" data-name="Layer 1" xmlns="http://www.w3.org/2000/svg" xmlns:xlink="http://www.w3.org/1999/xlink" viewBox="0 0 512 512"><defs><clipPath id="clip-path"><rect x="92.31" y="31.81" width="327.38" height="448.37" fill="none"/></clipPath><clipPath id="clip-path-2"><polygon points="95.26 254.5 256 34.36 416.74 254.5 95.26 254.5" fill="none"/></clipPath><linearGradient id="linear-gradient" x1="-1117.31" y1="514.74" x2="-1116.31" y2="514.74" gradientTransform="matrix(-441.33, 0, 0, 441.33, -492730.42, -227023.6)" gradientUnits="userSpaceOnUse"><stop offset="0" stop-color="#f6e27a"/><stop offset="0.3" stop-color="#f6e27a"/><stop offset="0.42" stop-color="#f6eba3"/><stop offset="0.5" stop-color="#f6f2c0"/><stop offset="0.59" stop-color="#f6eba2"/><stop offset="0.7" stop-color="#f6e27a"/><stop offset="0.9" stop-color="#cb9b51"/><stop offset="1" stop-color="#cb9b51"/></linearGradient><clipPath id="clip-path-3"><polygon points="95.26 257.5 416.74 257.5 256 477.64 95.26 257.5" fill="none"/></clipPath><linearGradient id="linear-gradient-2" x1="-1117.3" y1="514.74" x2="-1116.3" y2="514.74" gradientTransform="matrix(0, 440.66, 440.66, 0, -226570.27, 492385.99)" gradientUnits="userSpaceOnUse"><stop offset="0" stop-color="#f6e27a"/><stop offset="0.2" stop-color="#f6e27a"/><stop offset="0.38" stop-color="#f6eba3"/><stop offset="0.5" stop-color="#f6f2c0"/><stop offset="0.59" stop-color="#f6eba2"/><stop offset="0.7" stop-color="#f6e27a"/><stop offset="0.9" stop-color="#cb9b51"/><stop offset="1" stop-color="#cb9b51"/></linearGradient><clipPath id="clip-path-4"><rect x="222.77" y="141.36" width="66.45" height="70.52" fill="none"/></clipPath><clipPath id="clip-path-5"><rect x="222.77" y="141.36" width="66.45" height="70.52" fill="none"/></clipPath></defs><title>0d8</title><g id="D8"><g id="D8-2" data-name="D8"><g clip-path="url(#clip-path)"><g clip-path="url(#clip-path-2)"><rect x="145.59" y="-16.54" width="220.81" height="321.93" transform="translate(111.04 400.13) rotate(-89.88)" fill="url(#linear-gradient)"/></g><path d="M256,36.9,413.78,253H98.22Zm0-5.09L92.31,256H419.69Z" fill="#0b0b0b"/><g clip-path="url(#clip-path-3)"><rect x="95.26" y="257.5" width="321.47" height="220.14" fill="url(#linear-gradient-2)"/></g><path d="M98.22,259H413.78L256,475.1Zm-5.91-3L256,480.19,419.69,256Z" fill="#0b0b0b"/></g></g><g id="_0" data-name="0"><g clip-path="url(#clip-path-4)"><g clip-path="url(#clip-path-5)"><path d="M288.73,176.51a35.09,35.09,0,0,1-9.17,24.33,31.53,31.53,0,0,1-47.06,0,36.6,36.6,0,0,1,0-48.6,31.79,31.79,0,0,1,47,0,34.76,34.76,0,0,1,9.23,24.27m-20.38,0a15.37,15.37,0,0,0-3.29-9.83,11.55,11.55,0,0,0-18.18-.05,15.35,15.35,0,0,0-3.24,9.88,15.87,15.87,0,0,0,3.24,9.94,11.2,11.2,0,0,0,18.12-.11,15.46,15.46,0,0,0,3.35-9.83" fill="#c14343"/><path d="M288.73,176.51a35.09,35.09,0,0,1-9.17,24.33,31.53,31.53,0,0,1-47.06,0,36.6,36.6,0,0,1,0-48.6,31.79,31.79,0,0,1,47,0A34.76,34.76,0,0,1,288.73,176.51Zm-20.38,0a15.37,15.37,0,0,0-3.29-9.83,11.55,11.55,0,0,0-18.18-.05,15.35,15.35,0,0,0-3.24,9.88,15.87,15.87,0,0,0,3.24,9.94,11.2,11.2,0,0,0,18.12-.11A15.46,15.46,0,0,0,268.35,176.51Z" fill="none" stroke="#000" stroke-miterlimit="10"/></g></g></g></g></svg>