<svg id="Layer_1" data-name="Layer 1" xmlns="http://www.w3.org/2000/svg" xmlns:xlink="http://www.w3.org/1999/xlink" viewBox="0 0 512 512"><defs><clipPath id="clip-path"><rect x="65.76" y="31.81" width="380.48" height="448.37" fill="none"/></clipPath><clipPath id="clip-path-2"><polygon points="138.86 236.37 255.95 33.81 373.14 236.37 255.95 290.81 138.86 236.37" fill="none"/></clipPath><linearGradient id="linear-gradient" x1="-1676.7" y1="-4889.36" x2="-1675.7" y2="-4889.36" gradientTransform="matrix(234.27, 0, 0, -234.27, 392947.78, -1145288.85)" gradientUnits="userSpaceOnUse"><stop offset="0" stop-color="#f6e27a"/><stop offset="0.1" stop-color="#f6e27a"/><stop offset="0.34" stop-color="#f6eba3"/><stop offset="0.5" stop-color="#f6f2c0"/><stop offset="0.68" stop-color="#f6eba2"/><stop offset="0.9" stop-color="#f6e27a"/><stop offset="1" stop-color="#f6e27a"/></linearGradient><clipPath id="clip-path-3"><polygon points="375.11 235.91 263.48 42.85 442.81 267.32 375.11 235.91" fill="none"/></clipPath><linearGradient id="linear-gradient-2" x1="-1672.96" y1="-4838.61" x2="-1671.96" y2="-4838.61" gradientTransform="matrix(-186.96, 0, 0, 186.96, -312344.76, 904770.04)" gradientUnits="userSpaceOnUse"><stop offset="0" stop-color="#cb9b51"/><stop offset="0.2" stop-color="#cb9b51"/><stop offset="0.29" stop-color="#deba63"/><stop offset="0.4" stop-color="#f6e27a"/><stop offset="0.46" stop-color="#f6eba3"/><stop offset="0.5" stop-color="#f6f2c0"/><stop offset="0.55" stop-color="#f6eba2"/><stop offset="0.6" stop-color="#f6e27a"/><stop offset="0.8" stop-color="#cb9b51"/><stop offset="1" stop-color="#cb9b51"/></linearGradient><clipPath id="clip-path-4"><polygon points="248.52 42.85 136.89 235.91 69.19 267.32 248.52 42.85" fill="none"/></clipPath><linearGradient id="linear-gradient-3" x1="-1658.62" y1="-4850.64" x2="-1657.62" y2="-4850.64" gradientTransform="translate(-906705.79 310171.89) rotate(90) scale(186.96)" gradientUnits="userSpaceOnUse"><stop offset="0" stop-color="#cb9b51"/><stop offset="0.1" stop-color="#cb9b51"/><stop offset="0.19" stop-color="#deba63"/><stop offset="0.3" stop-color="#f6e27a"/><stop offset="0.42" stop-color="#f6eba3"/><stop offset="0.5" stop-color="#f6f2c0"/><stop offset="0.59" stop-color="#f6eba2"/><stop offset="0.7" stop-color="#f6e27a"/><stop offset="0.9" stop-color="#cb9b51"/><stop offset="1" stop-color="#cb9b51"/></linearGradient><clipPath id="clip-path-5"><polygon points="67.41 270.35 137.5 237.79 255 292.43 255 477.59 67.41 270.35" fill="none"/></clipPath><linearGradient id="linear-gradient-4" x1="-1700.51" y1="-4892.75" x2="-1699.51" y2="-4892.75" gradientTransform="matrix(181.83, 0, 0, -181.83, 309299.62, -889281.78)" gradientUnits="userSpaceOnUse"><stop offset="0" stop-color="#cb9b51"/><stop offset="0.1" stop-color="#cb9b51"/><stop offset="0.3" stop-color="#f6e27a"/><stop offset="0.5" stop-color="#f6f2c0"/><stop offset="0.7" stop-color="#f6e27a"/><stop offset="0.9" stop-color="#cb9b51"/><stop offset="1" stop-color="#cb9b51"/></linearGradient><clipPath id="clip-path-6"><polygon points="256.98 292.43 374.48 237.79 444.56 270.35 256.98 477.59 256.98 292.43" fill="none"/></clipPath><linearGradient id="linear-gradient-5" x1="-1712.89" y1="-4878.01" x2="-1711.89" y2="-4878.01" gradientTransform="translate(887309.19 -311030.38) rotate(-90) scale(181.83)" xlink:href="#linear-gradient-4"/><clipPath id="clip-path-7"><rect x="203.66" y="157.62" width="104.67" height="72" fill="none"/></clipPath></defs><title>10d10</title><g id="D10"><g id="D10-2" data-name="D10"><g clip-path="url(#clip-path)"><g clip-path="url(#clip-path-2)"><rect x="138.86" y="33.81" width="234.27" height="257" fill="url(#linear-gradient)"/></g><path d="M140.28,235.92,256,35.81,371.72,235.92,256,289.71ZM256,31.81l-118.5,205L256,291.91l118.6-55.1Z"/><g clip-path="url(#clip-path-3)"><rect x="212.32" y="11.47" width="281.66" height="287.22" transform="translate(-17.07 263.28) rotate(-40)" fill="url(#linear-gradient-2)"/></g><path d="M375.81,235.14,271,53.88,439.37,264.63ZM256,31.81,374.4,236.69,446.24,270Z"/><g clip-path="url(#clip-path-4)"><rect x="15.24" y="14.26" width="287.22" height="281.66" transform="translate(-62.06 177.09) rotate(-50)" fill="url(#linear-gradient-3)"/></g><path d="M241,53.88,136.19,235.14,72.63,264.63ZM65.76,270l71.84-33.33L256.05,31.81Z"/><g clip-path="url(#clip-path-5)"><rect x="9.07" y="208.77" width="304.28" height="297.84" transform="translate(-216.42 251.26) rotate(-50)" fill="url(#linear-gradient-4)"/></g><path d="M69.07,270.69l68.43-31.8L254,293.06V475ZM65.76,270,256,480.19V291.79l-118.5-55.1Z"/><g clip-path="url(#clip-path-6)"><rect x="201.85" y="205.55" width="297.84" height="304.28" transform="translate(-147.86 309.15) rotate(-40)" fill="url(#linear-gradient-5)"/></g><path d="M258,293.06l116.49-54.17,68.44,31.8L258,475Zm-2-1.27v188.4L446.21,270l-71.74-33.33Z"/></g></g><g id="_10" data-name="10"><g clip-path="url(#clip-path-7)"><g clip-path="url(#clip-path-7)"><path d="M233.32,224.62a2.63,2.63,0,0,1-.93,1.92,2.89,2.89,0,0,1-2,.88q-2.64,0-7.91.05t-7.91.06c-1.35,0-2-.59-2-1.76l.05-.6q.76-21,.77-25.43v-16.3c0-1-.24-1.54-.71-1.54a13.06,13.06,0,0,0-3.33.66,13,13,0,0,1-3.37.66q-1.71,0-1.71-2c0-1.24,0-3.11-.05-5.6s-.06-4.37-.06-5.65q0-1.1,1.38-1.65a31.42,31.42,0,0,0,12.68-9c.62-.76,1.16-1.15,1.59-1.15a5.81,5.81,0,0,1,.66.11q2.09.44,6.21,1.37,2.19.28,6.42,1a1.09,1.09,0,0,1,.77,1.21,8.8,8.8,0,0,1-.11,1.15q-.6,4.85-.6,23.67,0,6.31.08,19t.08,19" fill="#c14343"/><path d="M233.32,224.62a2.63,2.63,0,0,1-.93,1.92,2.89,2.89,0,0,1-2,.88q-2.64,0-7.91.05t-7.91.06c-1.35,0-2-.59-2-1.76l.05-.6q.76-21,.77-25.43v-16.3c0-1-.24-1.54-.71-1.54a13.06,13.06,0,0,0-3.33.66,13,13,0,0,1-3.37.66q-1.71,0-1.71-2c0-1.24,0-3.11-.05-5.6s-.06-4.37-.06-5.65q0-1.1,1.38-1.65a31.42,31.42,0,0,0,12.68-9c.62-.76,1.16-1.15,1.59-1.15a5.81,5.81,0,0,1,.66.11q2.09.44,6.21,1.37,2.19.28,6.42,1a1.09,1.09,0,0,1,.77,1.21,8.8,8.8,0,0,1-.11,1.15q-.6,4.85-.6,23.67,0,6.31.08,19T233.32,224.62Z" fill="none" stroke="#000" stroke-miterlimit="10"/><path d="M307.84,194.25a35.07,35.07,0,0,1-9.17,24.33,31.53,31.53,0,0,1-47.06,0,36.6,36.6,0,0,1,0-48.6,31.79,31.79,0,0,1,47,0,34.76,34.76,0,0,1,9.23,24.27m-20.38,0a15.39,15.39,0,0,0-3.29-9.83,11.57,11.57,0,0,0-18.18,0,15.35,15.35,0,0,0-3.24,9.88,15.87,15.87,0,0,0,3.24,9.94,11.2,11.2,0,0,0,18.12-.11,15.46,15.46,0,0,0,3.35-9.83" fill="#c14343"/><path d="M307.84,194.25a35.07,35.07,0,0,1-9.17,24.33,31.53,31.53,0,0,1-47.06,0,36.6,36.6,0,0,1,0-48.6,31.79,31.79,0,0,1,47,0A34.76,34.76,0,0,1,307.84,194.25Zm-20.38,0a15.39,15.39,0,0,0-3.29-9.83,11.57,11.57,0,0,0-18.18,0,15.35,15.35,0,0,0-3.24,9.88,15.87,15.87,0,0,0,3.24,9.94,11.2,11.2,0,0,0,18.12-.11A15.46,15.46,0,0,0,287.46,194.25Z" fill="none" stroke="#000" stroke-miterlimit="10"/></g></g></g></g></svg>