<svg id="Layer_1" data-name="Layer 1" xmlns="http://www.w3.org/2000/svg" xmlns:xlink="http://www.w3.org/1999/xlink" viewBox="0 0 512 512"><defs><clipPath id="clip-path"><rect x="106" y="106" width="300" height="300" fill="none"/></clipPath><clipPath id="clip-path-2"><rect x="107.5" y="107.5" width="297" height="297" fill="none"/></clipPath><linearGradient id="linear-gradient" x1="-561.04" y1="-23.47" x2="-560.04" y2="-23.47" gradientTransform="matrix(0, 566.08, 566.08, 0, 13539.72, 317565.26)" gradientUnits="userSpaceOnUse"><stop offset="0" stop-color="#f6e27a"/><stop offset="0.2" stop-color="#f6e27a"/><stop offset="0.38" stop-color="#f6eba3"/><stop offset="0.5" stop-color="#f6f2c0"/><stop offset="0.59" stop-color="#f6eba2"/><stop offset="0.7" stop-color="#f6e27a"/><stop offset="0.9" stop-color="#cb9b51"/><stop offset="1" stop-color="#cb9b51"/></linearGradient><clipPath id="clip-path-4"><rect x="240.65" y="220.8" width="30.71" height="70.41" fill="none"/></clipPath></defs><title>1d6</title><g id="D6"><g id="D6-2" data-name="D6"><g clip-path="url(#clip-path)"><g clip-path="url(#clip-path-2)"><rect x="107.5" y="107.5" width="297" height="297" fill="url(#linear-gradient)"/></g><g clip-path="url(#clip-path)"><rect x="107.5" y="107.5" width="297" height="297" stroke-width="3" stroke="#000" stroke-linecap="round" stroke-linejoin="round" fill="none"/></g></g></g><g id="_1" data-name="1"><g clip-path="url(#clip-path-4)"><g clip-path="url(#clip-path-4)"><path d="M270.3,287.79a2.63,2.63,0,0,1-.93,1.93,2.92,2.92,0,0,1-2,.87c-1.76,0-4.39,0-7.91.06s-6.15.05-7.9.05c-1.36,0-2-.58-2-1.75l0-.61q.78-21,.77-25.42V246.61c0-1-.24-1.54-.71-1.54a13,13,0,0,0-3.32.66,13.11,13.11,0,0,1-3.38.66c-1.14,0-1.7-.68-1.7-2s0-3.11-.06-5.6,0-4.38,0-5.66c0-.73.45-1.28,1.37-1.65a31.5,31.5,0,0,0,12.68-9c.63-.77,1.16-1.15,1.6-1.15a4.44,4.44,0,0,1,.66.11c1.39.29,3.45.75,6.2,1.37,1.46.18,3.61.51,6.42,1,.52.14.77.55.77,1.21a9,9,0,0,1-.11,1.15q-.6,4.83-.6,23.66,0,6.32.08,19t.08,19" fill="#c14343"/><path d="M270.3,287.79a2.63,2.63,0,0,1-.93,1.93,2.92,2.92,0,0,1-2,.87c-1.76,0-4.39,0-7.91.06s-6.15.05-7.9.05c-1.36,0-2-.58-2-1.75l0-.61q.78-21,.77-25.42V246.61c0-1-.24-1.54-.71-1.54a13,13,0,0,0-3.32.66,13.11,13.11,0,0,1-3.38.66c-1.14,0-1.7-.68-1.7-2s0-3.11-.06-5.6,0-4.38,0-5.66c0-.73.45-1.28,1.37-1.65a31.5,31.5,0,0,0,12.68-9c.63-.77,1.16-1.15,1.6-1.15a4.44,4.44,0,0,1,.66.11c1.39.29,3.45.75,6.2,1.37,1.46.18,3.61.51,6.42,1,.52.14.77.55.77,1.21a9,9,0,0,1-.11,1.15q-.6,4.83-.6,23.66,0,6.32.08,19T270.3,287.79Z" fill="none" stroke="#000" stroke-miterlimit="10"/></g></g></g></g></svg>