<svg id="Layer_1" data-name="Layer 1" xmlns="http://www.w3.org/2000/svg" xmlns:xlink="http://www.w3.org/1999/xlink" viewBox="0 0 512 512"><defs><clipPath id="clip-path"><rect x="65.76" y="31.81" width="380.48" height="448.37" fill="none"/></clipPath><clipPath id="clip-path-2"><polygon points="138.86 236.37 255.95 33.81 373.14 236.37 255.95 290.81 138.86 236.37" fill="none"/></clipPath><linearGradient id="linear-gradient" x1="-1669.47" y1="-565.74" x2="-1668.47" y2="-565.74" gradientTransform="matrix(234.27, 0, 0, -234.27, 391252.56, -132375.5)" gradientUnits="userSpaceOnUse"><stop offset="0" stop-color="#f6e27a"/><stop offset="0.1" stop-color="#f6e27a"/><stop offset="0.34" stop-color="#f6eba3"/><stop offset="0.5" stop-color="#f6f2c0"/><stop offset="0.68" stop-color="#f6eba2"/><stop offset="0.9" stop-color="#f6e27a"/><stop offset="1" stop-color="#f6e27a"/></linearGradient><clipPath id="clip-path-3"><polygon points="375.11 235.91 263.48 42.85 442.81 267.32 375.11 235.91" fill="none"/></clipPath><linearGradient id="linear-gradient-2" x1="-1680.47" y1="-551.03" x2="-1679.47" y2="-551.03" gradientTransform="matrix(-186.96, 0, 0, 186.96, -313747.94, 103174.91)" gradientUnits="userSpaceOnUse"><stop offset="0" stop-color="#cb9b51"/><stop offset="0.2" stop-color="#cb9b51"/><stop offset="0.29" stop-color="#deba63"/><stop offset="0.4" stop-color="#f6e27a"/><stop offset="0.46" stop-color="#f6eba3"/><stop offset="0.5" stop-color="#f6f2c0"/><stop offset="0.55" stop-color="#f6eba2"/><stop offset="0.6" stop-color="#f6e27a"/><stop offset="0.8" stop-color="#cb9b51"/><stop offset="1" stop-color="#cb9b51"/></linearGradient><clipPath id="clip-path-4"><polygon points="248.52 42.85 136.89 235.91 69.19 267.32 248.52 42.85" fill="none"/></clipPath><linearGradient id="linear-gradient-3" x1="-1666.19" y1="-563.02" x2="-1665.19" y2="-563.02" gradientTransform="translate(-105101.32 311586.25) rotate(90) scale(186.96)" gradientUnits="userSpaceOnUse"><stop offset="0" stop-color="#cb9b51"/><stop offset="0.1" stop-color="#cb9b51"/><stop offset="0.19" stop-color="#deba63"/><stop offset="0.3" stop-color="#f6e27a"/><stop offset="0.42" stop-color="#f6eba3"/><stop offset="0.5" stop-color="#f6f2c0"/><stop offset="0.59" stop-color="#f6eba2"/><stop offset="0.7" stop-color="#f6e27a"/><stop offset="0.9" stop-color="#cb9b51"/><stop offset="1" stop-color="#cb9b51"/></linearGradient><clipPath id="clip-path-5"><polygon points="67.41 270.35 137.5 237.79 255 292.43 255 477.59 67.41 270.35" fill="none"/></clipPath><linearGradient id="linear-gradient-4" x1="-1675.13" y1="-572.26" x2="-1674.13" y2="-572.26" gradientTransform="matrix(181.83, 0, 0, -181.83, 304685, -103694.92)" gradientUnits="userSpaceOnUse"><stop offset="0" stop-color="#cb9b51"/><stop offset="0.1" stop-color="#cb9b51"/><stop offset="0.3" stop-color="#f6e27a"/><stop offset="0.5" stop-color="#f6f2c0"/><stop offset="0.7" stop-color="#f6e27a"/><stop offset="0.9" stop-color="#cb9b51"/><stop offset="1" stop-color="#cb9b51"/></linearGradient><clipPath id="clip-path-6"><polygon points="256.98 292.43 374.48 237.79 444.56 270.35 256.98 477.59 256.98 292.43" fill="none"/></clipPath><linearGradient id="linear-gradient-5" x1="-1687.46" y1="-557.57" x2="-1686.46" y2="-557.57" gradientTransform="translate(101733.46 -306406.43) rotate(-90) scale(181.83)" xlink:href="#linear-gradient-4"/><clipPath id="clip-path-7"><rect x="227.5" y="158.36" width="57.01" height="70.52" fill="none"/></clipPath><clipPath id="clip-path-8"><rect x="227.5" y="158.36" width="57.01" height="70.52" fill="none"/></clipPath></defs><title>2d10</title><g id="D10"><g id="D10-2" data-name="D10"><g clip-path="url(#clip-path)"><g clip-path="url(#clip-path-2)"><rect x="138.86" y="33.81" width="234.27" height="257" fill="url(#linear-gradient)"/></g><path d="M140.28,235.92,256,35.81,371.72,235.92,256,289.71ZM256,31.81l-118.5,205L256,291.91l118.6-55.1Z"/><g clip-path="url(#clip-path-3)"><rect x="212.32" y="11.47" width="281.66" height="287.22" transform="translate(-17.07 263.28) rotate(-40)" fill="url(#linear-gradient-2)"/></g><path d="M375.81,235.14,271,53.88,439.37,264.63ZM256,31.81,374.4,236.69,446.24,270Z"/><g clip-path="url(#clip-path-4)"><rect x="15.24" y="14.26" width="287.22" height="281.66" transform="translate(-62.06 177.09) rotate(-50)" fill="url(#linear-gradient-3)"/></g><path d="M241,53.88,136.19,235.14,72.63,264.63ZM65.76,270l71.84-33.33L256.05,31.81Z"/><g clip-path="url(#clip-path-5)"><rect x="9.07" y="208.77" width="304.28" height="297.84" transform="translate(-216.42 251.26) rotate(-50)" fill="url(#linear-gradient-4)"/></g><path d="M69.07,270.69l68.43-31.8L254,293.06V475ZM65.76,270,256,480.19V291.79l-118.5-55.1Z"/><g clip-path="url(#clip-path-6)"><rect x="201.85" y="205.55" width="297.84" height="304.28" transform="translate(-147.86 309.15) rotate(-40)" fill="url(#linear-gradient-5)"/></g><path d="M258,293.06l116.49-54.17,68.44,31.8L258,475Zm-2-1.27v188.4L446.21,270l-71.74-33.33Z"/></g></g><g id="_2" data-name="2"><g clip-path="url(#clip-path-7)"><g clip-path="url(#clip-path-8)"><path d="M284,211c0,.84-.09,2.1-.27,3.79s-.27,3-.27,3.84,0,2.26-.06,4.15,0,3.28,0,4.2-.61,1.37-1.82,1.37a46.49,46.49,0,0,1-5.16-1q-5-1.09-18.67-1.1-4.23,0-12.68.47t-12.58.46a1.42,1.42,0,0,1-1.59-1.37q-.16-1.86-.82-5.55a53.39,53.39,0,0,1-1.38-6.42q0-1.22,4.62-1.81c3.59-.48,5.89-1.14,6.92-2a88.76,88.76,0,0,0,11.36-11.81q7.41-9,7.42-13.5a8.7,8.7,0,0,0-2.83-6.57,9.51,9.51,0,0,0-6.73-2.66,23.1,23.1,0,0,0-8.73,1.76,31.72,31.72,0,0,0-6.1,3.18,17.5,17.5,0,0,1-3,1.71c-1.24,0-1.87-1.47-1.87-4.4a31.88,31.88,0,0,0-.27-4.94,27.27,27.27,0,0,0-.83-3A10.13,10.13,0,0,1,228,167a1.78,1.78,0,0,1,.93-1.37,35.73,35.73,0,0,1,12.19-5.11,56.1,56.1,0,0,1,13.23-1.65q10.44,0,17.46,4.62a17.21,17.21,0,0,1,8.3,15.32q0,13.23-20.05,30.91,14.22-.71,22.3-.71c1.1,0,1.64.67,1.64,2" fill="#c14343"/><path d="M284,211c0,.84-.09,2.1-.27,3.79s-.27,3-.27,3.84,0,2.26-.06,4.15,0,3.28,0,4.2-.61,1.37-1.82,1.37a46.49,46.49,0,0,1-5.16-1q-5-1.09-18.67-1.1-4.23,0-12.68.47t-12.58.46a1.42,1.42,0,0,1-1.59-1.37q-.16-1.86-.82-5.55a53.39,53.39,0,0,1-1.38-6.42q0-1.22,4.62-1.81c3.59-.48,5.89-1.14,6.92-2a88.76,88.76,0,0,0,11.36-11.81q7.41-9,7.42-13.5a8.7,8.7,0,0,0-2.83-6.57,9.51,9.51,0,0,0-6.73-2.66,23.1,23.1,0,0,0-8.73,1.76,31.72,31.72,0,0,0-6.1,3.18,17.5,17.5,0,0,1-3,1.71c-1.24,0-1.87-1.47-1.87-4.4a31.88,31.88,0,0,0-.27-4.94,27.27,27.27,0,0,0-.83-3A10.13,10.13,0,0,1,228,167a1.78,1.78,0,0,1,.93-1.37,35.73,35.73,0,0,1,12.19-5.11,56.1,56.1,0,0,1,13.23-1.65q10.44,0,17.46,4.62a17.21,17.21,0,0,1,8.3,15.32q0,13.23-20.05,30.91,14.22-.71,22.3-.71C283.46,209,284,209.67,284,211Z" fill="none" stroke="#000" stroke-miterlimit="10"/></g></g></g></g></svg>