<svg id="Layer_1" data-name="Layer 1" xmlns="http://www.w3.org/2000/svg" xmlns:xlink="http://www.w3.org/1999/xlink" viewBox="0 0 512 512"><defs><clipPath id="clip-path"><rect x="92.31" y="31.81" width="327.38" height="448.37" fill="none"/></clipPath><clipPath id="clip-path-2"><polygon points="95.26 254.5 256 34.36 416.74 254.5 95.26 254.5" fill="none"/></clipPath><linearGradient id="linear-gradient" x1="-1117" y1="-558.54" x2="-1116" y2="-558.54" gradientTransform="matrix(-441.33, 0, 0, 441.33, -492594.65, 246643.32)" gradientUnits="userSpaceOnUse"><stop offset="0" stop-color="#f6e27a"/><stop offset="0.3" stop-color="#f6e27a"/><stop offset="0.42" stop-color="#f6eba3"/><stop offset="0.5" stop-color="#f6f2c0"/><stop offset="0.59" stop-color="#f6eba2"/><stop offset="0.7" stop-color="#f6e27a"/><stop offset="0.9" stop-color="#cb9b51"/><stop offset="1" stop-color="#cb9b51"/></linearGradient><clipPath id="clip-path-3"><polygon points="95.26 257.5 416.74 257.5 256 477.64 95.26 257.5" fill="none"/></clipPath><linearGradient id="linear-gradient-2" x1="-1116.99" y1="-558.54" x2="-1115.99" y2="-558.54" gradientTransform="matrix(0, 440.66, 440.66, 0, 246381.94, 492248.75)" gradientUnits="userSpaceOnUse"><stop offset="0" stop-color="#f6e27a"/><stop offset="0.2" stop-color="#f6e27a"/><stop offset="0.38" stop-color="#f6eba3"/><stop offset="0.5" stop-color="#f6f2c0"/><stop offset="0.59" stop-color="#f6eba2"/><stop offset="0.7" stop-color="#f6e27a"/><stop offset="0.9" stop-color="#cb9b51"/><stop offset="1" stop-color="#cb9b51"/></linearGradient><clipPath id="clip-path-4"><rect x="227.5" y="141.36" width="57.01" height="70.52" fill="none"/></clipPath><clipPath id="clip-path-5"><rect x="227.5" y="141.36" width="57.01" height="70.52" fill="none"/></clipPath></defs><title>2d8</title><g id="D8"><g id="D8-2" data-name="D8"><g clip-path="url(#clip-path)"><g clip-path="url(#clip-path-2)"><rect x="145.59" y="-16.54" width="220.81" height="321.93" transform="translate(111.04 400.13) rotate(-89.88)" fill="url(#linear-gradient)"/></g><path d="M256,36.9,413.78,253H98.22Zm0-5.09L92.31,256H419.69Z" fill="#0b0b0b"/><g clip-path="url(#clip-path-3)"><rect x="95.26" y="257.5" width="321.47" height="220.14" fill="url(#linear-gradient-2)"/></g><path d="M98.22,259H413.78L256,475.1Zm-5.91-3L256,480.19,419.69,256Z" fill="#0b0b0b"/></g></g><g id="_2" data-name="2"><g clip-path="url(#clip-path-4)"><g clip-path="url(#clip-path-5)"><path d="M284,194c0,.84-.09,2.1-.27,3.79s-.27,3-.27,3.84,0,2.26-.06,4.15,0,3.28,0,4.2-.61,1.37-1.82,1.37a46.49,46.49,0,0,1-5.16-1q-5-1.09-18.67-1.1-4.23,0-12.68.47t-12.58.46a1.42,1.42,0,0,1-1.59-1.37q-.16-1.86-.82-5.55a53.39,53.39,0,0,1-1.38-6.42q0-1.22,4.62-1.81c3.59-.48,5.89-1.14,6.92-2a88.76,88.76,0,0,0,11.36-11.81q7.41-9,7.42-13.5a8.7,8.7,0,0,0-2.83-6.57,9.51,9.51,0,0,0-6.73-2.66,23.1,23.1,0,0,0-8.73,1.76,31.72,31.72,0,0,0-6.1,3.18,17.5,17.5,0,0,1-3,1.71c-1.24,0-1.87-1.47-1.87-4.4a31.88,31.88,0,0,0-.27-4.94,27.27,27.27,0,0,0-.83-3A10.13,10.13,0,0,1,228,150a1.78,1.78,0,0,1,.93-1.37,35.73,35.73,0,0,1,12.19-5.11,56.1,56.1,0,0,1,13.23-1.65q10.44,0,17.46,4.62a17.21,17.21,0,0,1,8.3,15.32q0,13.23-20.05,30.91,14.22-.71,22.3-.71c1.1,0,1.64.67,1.64,2" fill="#c14343"/><path d="M284,194c0,.84-.09,2.1-.27,3.79s-.27,3-.27,3.84,0,2.26-.06,4.15,0,3.28,0,4.2-.61,1.37-1.82,1.37a46.49,46.49,0,0,1-5.16-1q-5-1.09-18.67-1.1-4.23,0-12.68.47t-12.58.46a1.42,1.42,0,0,1-1.59-1.37q-.16-1.86-.82-5.55a53.39,53.39,0,0,1-1.38-6.42q0-1.22,4.62-1.81c3.59-.48,5.89-1.14,6.92-2a88.76,88.76,0,0,0,11.36-11.81q7.41-9,7.42-13.5a8.7,8.7,0,0,0-2.83-6.57,9.51,9.51,0,0,0-6.73-2.66,23.1,23.1,0,0,0-8.73,1.76,31.72,31.72,0,0,0-6.1,3.18,17.5,17.5,0,0,1-3,1.71c-1.24,0-1.87-1.47-1.87-4.4a31.88,31.88,0,0,0-.27-4.94,27.27,27.27,0,0,0-.83-3A10.13,10.13,0,0,1,228,150a1.78,1.78,0,0,1,.93-1.37,35.73,35.73,0,0,1,12.19-5.11,56.1,56.1,0,0,1,13.23-1.65q10.44,0,17.46,4.62a17.21,17.21,0,0,1,8.3,15.32q0,13.23-20.05,30.91,14.22-.71,22.3-.71C283.46,192,284,192.67,284,194Z" fill="none" stroke="#000" stroke-miterlimit="10"/></g></g></g></g></svg>