<svg id="Layer_1" data-name="Layer 1" xmlns="http://www.w3.org/2000/svg" xmlns:xlink="http://www.w3.org/1999/xlink" viewBox="0 0 512 512"><defs><clipPath id="clip-path"><rect x="65.76" y="31.81" width="380.48" height="448.37" fill="none"/></clipPath><clipPath id="clip-path-2"><polygon points="138.86 236.37 255.95 33.81 373.14 236.37 255.95 290.81 138.86 236.37" fill="none"/></clipPath><linearGradient id="linear-gradient" x1="-1669.47" y1="-1110.06" x2="-1668.47" y2="-1110.06" gradientTransform="matrix(234.27, 0, 0, -234.27, 391252.56, -259897.16)" gradientUnits="userSpaceOnUse"><stop offset="0" stop-color="#f6e27a"/><stop offset="0.1" stop-color="#f6e27a"/><stop offset="0.34" stop-color="#f6eba3"/><stop offset="0.5" stop-color="#f6f2c0"/><stop offset="0.68" stop-color="#f6eba2"/><stop offset="0.9" stop-color="#f6e27a"/><stop offset="1" stop-color="#f6e27a"/></linearGradient><clipPath id="clip-path-3"><polygon points="375.11 235.91 263.48 42.85 442.81 267.32 375.11 235.91" fill="none"/></clipPath><linearGradient id="linear-gradient-2" x1="-1678.6" y1="-1090.82" x2="-1677.6" y2="-1090.82" gradientTransform="matrix(-186.96, 0, 0, 186.96, -313399.54, 204093.05)" gradientUnits="userSpaceOnUse"><stop offset="0" stop-color="#cb9b51"/><stop offset="0.2" stop-color="#cb9b51"/><stop offset="0.29" stop-color="#deba63"/><stop offset="0.4" stop-color="#f6e27a"/><stop offset="0.46" stop-color="#f6eba3"/><stop offset="0.5" stop-color="#f6f2c0"/><stop offset="0.55" stop-color="#f6eba2"/><stop offset="0.6" stop-color="#f6e27a"/><stop offset="0.8" stop-color="#cb9b51"/><stop offset="1" stop-color="#cb9b51"/></linearGradient><clipPath id="clip-path-4"><polygon points="248.52 42.85 136.89 235.91 69.19 267.32 248.52 42.85" fill="none"/></clipPath><linearGradient id="linear-gradient-3" x1="-1664.32" y1="-1102.81" x2="-1663.32" y2="-1102.81" gradientTransform="translate(-206019.46 311237.84) rotate(90) scale(186.96)" gradientUnits="userSpaceOnUse"><stop offset="0" stop-color="#cb9b51"/><stop offset="0.1" stop-color="#cb9b51"/><stop offset="0.19" stop-color="#deba63"/><stop offset="0.3" stop-color="#f6e27a"/><stop offset="0.42" stop-color="#f6eba3"/><stop offset="0.5" stop-color="#f6f2c0"/><stop offset="0.59" stop-color="#f6eba2"/><stop offset="0.7" stop-color="#f6e27a"/><stop offset="0.9" stop-color="#cb9b51"/><stop offset="1" stop-color="#cb9b51"/></linearGradient><clipPath id="clip-path-5"><polygon points="67.41 270.35 137.5 237.79 255 292.43 255 477.59 67.41 270.35" fill="none"/></clipPath><linearGradient id="linear-gradient-4" x1="-1677.42" y1="-1116.19" x2="-1676.42" y2="-1116.19" gradientTransform="matrix(181.83, 0, 0, -181.83, 305100.19, -202596.4)" gradientUnits="userSpaceOnUse"><stop offset="0" stop-color="#cb9b51"/><stop offset="0.1" stop-color="#cb9b51"/><stop offset="0.3" stop-color="#f6e27a"/><stop offset="0.5" stop-color="#f6f2c0"/><stop offset="0.7" stop-color="#f6e27a"/><stop offset="0.9" stop-color="#cb9b51"/><stop offset="1" stop-color="#cb9b51"/></linearGradient><clipPath id="clip-path-6"><polygon points="256.98 292.43 374.48 237.79 444.56 270.35 256.98 477.59 256.98 292.43" fill="none"/></clipPath><linearGradient id="linear-gradient-5" x1="-1689.74" y1="-1101.5" x2="-1688.74" y2="-1101.5" gradientTransform="translate(200634.94 -306821.63) rotate(-90) scale(181.83)" xlink:href="#linear-gradient-4"/><clipPath id="clip-path-7"><rect x="229.8" y="158.42" width="52.4" height="70.41" fill="none"/></clipPath></defs><title>3d10</title><g id="D10"><g id="D10-2" data-name="D10"><g clip-path="url(#clip-path)"><g clip-path="url(#clip-path-2)"><rect x="138.86" y="33.81" width="234.27" height="257" fill="url(#linear-gradient)"/></g><path d="M140.28,235.92,256,35.81,371.72,235.92,256,289.71ZM256,31.81l-118.5,205L256,291.91l118.6-55.1Z"/><g clip-path="url(#clip-path-3)"><rect x="212.32" y="11.47" width="281.66" height="287.22" transform="translate(-17.07 263.28) rotate(-40)" fill="url(#linear-gradient-2)"/></g><path d="M375.81,235.14,271,53.88,439.37,264.63ZM256,31.81,374.4,236.69,446.24,270Z"/><g clip-path="url(#clip-path-4)"><rect x="15.24" y="14.26" width="287.22" height="281.66" transform="translate(-62.06 177.09) rotate(-50)" fill="url(#linear-gradient-3)"/></g><path d="M241,53.88,136.19,235.14,72.63,264.63ZM65.76,270l71.84-33.33L256.05,31.81Z"/><g clip-path="url(#clip-path-5)"><rect x="9.07" y="208.77" width="304.28" height="297.84" transform="translate(-216.42 251.26) rotate(-50)" fill="url(#linear-gradient-4)"/></g><path d="M69.07,270.69l68.43-31.8L254,293.06V475ZM65.76,270,256,480.19V291.79l-118.5-55.1Z"/><g clip-path="url(#clip-path-6)"><rect x="201.85" y="205.55" width="297.84" height="304.28" transform="translate(-147.86 309.15) rotate(-40)" fill="url(#linear-gradient-5)"/></g><path d="M258,293.06l116.49-54.17,68.44,31.8L258,475Zm-2-1.27v188.4L446.21,270l-71.74-33.33Z"/></g></g><g id="_3" data-name="3"><g clip-path="url(#clip-path-7)"><g clip-path="url(#clip-path-7)"><path d="M281.7,208a17.61,17.61,0,0,1-8.4,15.65q-7.14,4.72-17.85,4.72a65.77,65.77,0,0,1-13.56-1.15q-11.59-2.41-11.59-4.28a3.75,3.75,0,0,1,.22-1c.51-1.35,1.26-3.39,2.25-6.09.3-1.36.81-3.37,1.54-6.05a1.74,1.74,0,0,1,1.65-1.37c-.11,0,1.53.61,4.91,1.81a26,26,0,0,0,8.32,1.82q10.77,0,10.76-7.2,0-5.76-10.21-5.76c-.91,0-2.12,0-3.62.11s-2.49.11-3,.11c-2.23,0-3.46,0-3.68-.06-1.61-.18-2.41-.8-2.41-1.87q0-8.4.66-10.54a1.73,1.73,0,0,1,1.75-1.37,47.75,47.75,0,0,1,5.52.47,47.45,47.45,0,0,0,5.46.46,5.33,5.33,0,0,0,3.93-1.56,5.42,5.42,0,0,0,1.57-4q0-6.48-9.45-6.48a37.78,37.78,0,0,0-10.71,2.14,2.26,2.26,0,0,1-.49,0c-.48,0-.88-.51-1.21-1.53q-.1-2.31-.33-5.28c0-.43-.14-1.31-.33-2.63a20.9,20.9,0,0,1-.22-2.58q0-2.91,9-4.51a69,69,0,0,1,12-1.09A31.75,31.75,0,0,1,270.61,163q8.5,4.94,8.51,13.67,0,10-9.12,15.26a17,17,0,0,1,8.54,6.1A16.17,16.17,0,0,1,281.7,208" fill="#c14343"/><path d="M281.7,208a17.61,17.61,0,0,1-8.4,15.65q-7.14,4.72-17.85,4.72a65.77,65.77,0,0,1-13.56-1.15q-11.59-2.41-11.59-4.28a3.75,3.75,0,0,1,.22-1c.51-1.35,1.26-3.39,2.25-6.09.3-1.36.81-3.37,1.54-6.05a1.74,1.74,0,0,1,1.65-1.37c-.11,0,1.53.61,4.91,1.81a26,26,0,0,0,8.32,1.82q10.77,0,10.76-7.2,0-5.76-10.21-5.76c-.91,0-2.12,0-3.62.11s-2.49.11-3,.11c-2.23,0-3.46,0-3.68-.06-1.61-.18-2.41-.8-2.41-1.87q0-8.4.66-10.54a1.73,1.73,0,0,1,1.75-1.37,47.75,47.75,0,0,1,5.52.47,47.45,47.45,0,0,0,5.46.46,5.33,5.33,0,0,0,3.93-1.56,5.42,5.42,0,0,0,1.57-4q0-6.48-9.45-6.48a37.78,37.78,0,0,0-10.71,2.14,2.26,2.26,0,0,1-.49,0c-.48,0-.88-.51-1.21-1.53q-.1-2.31-.33-5.28c0-.43-.14-1.31-.33-2.63a20.9,20.9,0,0,1-.22-2.58q0-2.91,9-4.51a69,69,0,0,1,12-1.09A31.75,31.75,0,0,1,270.61,163q8.5,4.94,8.51,13.67,0,10-9.12,15.26a17,17,0,0,1,8.54,6.1A16.17,16.17,0,0,1,281.7,208Z" fill="none" stroke="#000" stroke-miterlimit="10"/></g></g></g></g></svg>