<svg id="Layer_1" data-name="Layer 1" xmlns="http://www.w3.org/2000/svg" xmlns:xlink="http://www.w3.org/1999/xlink" viewBox="0 0 512 512"><defs><clipPath id="clip-path"><rect x="83.2" y="77.8" width="345.61" height="356.4" fill="none"/></clipPath><clipPath id="clip-path-2"><polygon points="202.09 326.66 168.79 224.17 255.97 160.83 343.14 224.17 309.85 326.66 202.09 326.66" fill="none"/></clipPath><linearGradient id="linear-gradient" x1="-2238.31" y1="-1109.11" x2="-2237.31" y2="-1109.11" gradientTransform="matrix(0, -398.95, -398.95, 0, -442223.96, -892524.15)" gradientUnits="userSpaceOnUse"><stop offset="0" stop-color="#cb9b51"/><stop offset="0.25" stop-color="#f6e27a"/><stop offset="0.5" stop-color="#f6f2c0"/><stop offset="0.75" stop-color="#f6e27a"/><stop offset="1" stop-color="#cb9b51"/></linearGradient><clipPath id="clip-path-3"><polygon points="155.64 393.13 201.76 329.7 310.17 329.7 356.3 393.13 255.97 432.59 155.64 393.13" fill="none"/></clipPath><linearGradient id="linear-gradient-2" x1="-2228.25" y1="-1112.67" x2="-2227.25" y2="-1112.67" gradientTransform="translate(-275162.62 551812.08) rotate(90) scale(247.53)" gradientUnits="userSpaceOnUse"><stop offset="0" stop-color="#cb9b51"/><stop offset="0.2" stop-color="#cb9b51"/><stop offset="0.4" stop-color="#f6e27a"/><stop offset="0.42" stop-color="#f6e483"/><stop offset="0.46" stop-color="#f6ea9b"/><stop offset="0.5" stop-color="#f6f2c0"/><stop offset="0.6" stop-color="#f6e27a"/><stop offset="0.8" stop-color="#cb9b51"/><stop offset="1" stop-color="#cb9b51"/></linearGradient><clipPath id="clip-path-4"><polygon points="84.73 308.14 91.26 200.53 165.83 224.79 199.33 327.9 153.26 391.36 84.73 308.14" fill="none"/></clipPath><linearGradient id="linear-gradient-3" x1="-2241.45" y1="-1112.13" x2="-2240.45" y2="-1112.13" gradientTransform="translate(-554562.29 -274989.5) rotate(180) scale(247.53)" xlink:href="#linear-gradient-2"/><clipPath id="clip-path-5"><polygon points="312.67 327.91 346.17 224.8 420.74 200.54 427.27 308.15 358.74 391.38 312.67 327.91" fill="none"/></clipPath><linearGradient id="linear-gradient-4" x1="-2223.64" y1="-1106.34" x2="-2222.64" y2="-1106.34" gradientTransform="matrix(0, 247.53, 247.53, 0, 274223.92, 550593.66)" xlink:href="#linear-gradient-2"/><clipPath id="clip-path-6"><polygon points="257.51 158.16 257.48 79.74 361.85 106.79 419.82 197.68 345.22 221.89 257.51 158.16" fill="none"/></clipPath><linearGradient id="linear-gradient-5" x1="-2233.98" y1="-1092.05" x2="-2232.98" y2="-1092.05" gradientTransform="translate(553189.92 270467.58) scale(247.53)" xlink:href="#linear-gradient-2"/><clipPath id="clip-path-7"><polygon points="92.17 197.74 150.14 106.84 254.5 79.79 254.47 158.22 166.76 221.94 92.17 197.74" fill="none"/></clipPath><linearGradient id="linear-gradient-6" x1="-2244.99" y1="-1107.2" x2="-2243.99" y2="-1107.2" gradientTransform="matrix(0, -247.53, -247.53, 0, -273892.34, -555422.81)" xlink:href="#linear-gradient-2"/><clipPath id="clip-path-8"><rect x="229.8" y="220.8" width="52.4" height="70.41" fill="none"/></clipPath></defs><title>3d12</title><g id="D12"><g id="D12-2" data-name="D12"><g clip-path="url(#clip-path)"><g clip-path="url(#clip-path-2)"><rect x="168.79" y="160.83" width="174.36" height="165.83" fill="url(#linear-gradient)"/></g><path d="M256,162.69l85.41,62.06L308.76,325.16H203.18L170.55,224.75Zm0-3.71L167,223.6l34,104.56H310.94l34-104.56Z" fill="#0b0b0b"/><g clip-path="url(#clip-path-3)"><rect x="155.64" y="329.7" width="200.66" height="102.89" fill="url(#linear-gradient-2)"/></g><path d="M158,392.44l44.53-61.24H309.41l44.53,61.24L256,431Zm43-64.24-47.72,65.61L256,434.2l102.68-40.39L310.94,328.2Z" fill="#0b0b0b"/><g clip-path="url(#clip-path-4)"><rect x="58.05" y="187.49" width="167.97" height="216.91" transform="translate(-84.5 58.37) rotate(-18)" fill="url(#linear-gradient-3)"/></g><path d="M86.26,307.64l6.38-105.09,72,23.43,33,101.65-44.48,61.28Zm-3.06,1,70.14,85.17L201,328.16,167,223.6,89.88,198.5Z" fill="#0b0b0b"/><g clip-path="url(#clip-path-5)"><rect x="261.51" y="211.98" width="216.91" height="167.96" transform="translate(-25.83 556.36) rotate(-72)" fill="url(#linear-gradient-4)"/></g><path d="M314.33,327.65l33-101.66,72-23.42,6.38,105.08-66.93,81.28Zm30.65-104L311,328.17l47.66,65.66,70.14-85.18-6.68-110.14Z" fill="#0b0b0b"/><g clip-path="url(#clip-path-6)"><rect x="233.44" y="43.37" width="210.42" height="214.88" transform="translate(17.59 336.14) rotate(-54)" fill="url(#linear-gradient-5)"/></g><path d="M259,157.4l0-75.72L360.9,108.09l56.61,88.77-72,23.36Zm-3-79.6,0,81.13L345,223.55l77.17-25-59.34-93Z" fill="#0b0b0b"/><g clip-path="url(#clip-path-7)"><rect x="65.89" y="45.66" width="214.88" height="210.42" transform="translate(-55.57 130.7) rotate(-36)" fill="url(#linear-gradient-6)"/></g><path d="M94.47,196.91l56.62-88.77L253,81.73l0,75.72L166.5,220.28Zm54.72-91.37-59.33,93,77.17,25L256,159l0-81.13ZM256,77.85h0Z" fill="#0b0b0b"/></g></g><g id="_3" data-name="3"><g clip-path="url(#clip-path-8)"><g clip-path="url(#clip-path-8)"><path d="M281.7,270.33A17.62,17.62,0,0,1,273.3,286q-7.14,4.72-17.85,4.72a65.77,65.77,0,0,1-13.56-1.15q-11.59-2.42-11.59-4.28a3.75,3.75,0,0,1,.22-1q.76-2,2.25-6.1.45-2,1.54-6a1.74,1.74,0,0,1,1.65-1.37q-.17,0,4.91,1.81a26,26,0,0,0,8.32,1.81q10.77,0,10.76-7.19,0-5.76-10.21-5.76c-.91,0-2.12,0-3.62.11s-2.49.11-3,.11c-2.23,0-3.46,0-3.68-.06-1.61-.18-2.41-.8-2.41-1.87q0-8.4.66-10.54a1.73,1.73,0,0,1,1.75-1.37,47.24,47.24,0,0,1,5.52.46,45.75,45.75,0,0,0,5.46.47,5.33,5.33,0,0,0,3.93-1.56,5.42,5.42,0,0,0,1.57-4q0-6.48-9.45-6.48a37.78,37.78,0,0,0-10.71,2.14,3.13,3.13,0,0,1-.49,0c-.48,0-.88-.51-1.21-1.54-.07-1.53-.18-3.29-.33-5.27,0-.44-.14-1.31-.33-2.63a20.9,20.9,0,0,1-.22-2.58q0-2.91,9-4.51a69,69,0,0,1,12-1.09,31.84,31.84,0,0,1,16.37,4.11q8.5,5,8.51,13.68,0,10-9.12,15.26a17,17,0,0,1,8.54,6.1,16.17,16.17,0,0,1,3.16,9.88" fill="#c14343"/><path d="M281.7,270.33A17.62,17.62,0,0,1,273.3,286q-7.14,4.72-17.85,4.72a65.77,65.77,0,0,1-13.56-1.15q-11.59-2.42-11.59-4.28a3.75,3.75,0,0,1,.22-1q.76-2,2.25-6.1.45-2,1.54-6a1.74,1.74,0,0,1,1.65-1.37q-.17,0,4.91,1.81a26,26,0,0,0,8.32,1.81q10.77,0,10.76-7.19,0-5.76-10.21-5.76c-.91,0-2.12,0-3.62.11s-2.49.11-3,.11c-2.23,0-3.46,0-3.68-.06-1.61-.18-2.41-.8-2.41-1.87q0-8.4.66-10.54a1.73,1.73,0,0,1,1.75-1.37,47.24,47.24,0,0,1,5.52.46,45.75,45.75,0,0,0,5.46.47,5.33,5.33,0,0,0,3.93-1.56,5.42,5.42,0,0,0,1.57-4q0-6.48-9.45-6.48a37.78,37.78,0,0,0-10.71,2.14,3.13,3.13,0,0,1-.49,0c-.48,0-.88-.51-1.21-1.54-.07-1.53-.18-3.29-.33-5.27,0-.44-.14-1.31-.33-2.63a20.9,20.9,0,0,1-.22-2.58q0-2.91,9-4.51a69,69,0,0,1,12-1.09,31.84,31.84,0,0,1,16.37,4.11q8.5,5,8.51,13.68,0,10-9.12,15.26a17,17,0,0,1,8.54,6.1A16.17,16.17,0,0,1,281.7,270.33Z" fill="none" stroke="#000" stroke-miterlimit="10"/></g></g></g></g></svg>