<svg id="Layer_1" data-name="Layer 1" xmlns="http://www.w3.org/2000/svg" xmlns:xlink="http://www.w3.org/1999/xlink" viewBox="0 0 512 512"><defs><clipPath id="clip-path"><rect x="83.2" y="77.8" width="345.61" height="356.4" fill="none"/></clipPath><clipPath id="clip-path-2"><polygon points="202.09 326.66 168.79 224.17 255.97 160.83 343.14 224.17 309.85 326.66 202.09 326.66" fill="none"/></clipPath><linearGradient id="linear-gradient" x1="-2243.93" y1="-1655.16" x2="-2242.93" y2="-1655.16" gradientTransform="matrix(0, -398.95, -398.95, 0, -660069.29, -894765.11)" gradientUnits="userSpaceOnUse"><stop offset="0" stop-color="#cb9b51"/><stop offset="0.25" stop-color="#f6e27a"/><stop offset="0.5" stop-color="#f6f2c0"/><stop offset="0.75" stop-color="#f6e27a"/><stop offset="1" stop-color="#cb9b51"/></linearGradient><clipPath id="clip-path-3"><polygon points="155.64 393.13 201.76 329.7 310.17 329.7 356.3 393.13 255.97 432.59 155.64 393.13" fill="none"/></clipPath><linearGradient id="linear-gradient-2" x1="-2230.29" y1="-1658.72" x2="-2229.29" y2="-1658.72" gradientTransform="translate(-410327.47 552317.66) rotate(90) scale(247.53)" gradientUnits="userSpaceOnUse"><stop offset="0" stop-color="#cb9b51"/><stop offset="0.2" stop-color="#cb9b51"/><stop offset="0.4" stop-color="#f6e27a"/><stop offset="0.42" stop-color="#f6e483"/><stop offset="0.46" stop-color="#f6ea9b"/><stop offset="0.5" stop-color="#f6f2c0"/><stop offset="0.6" stop-color="#f6e27a"/><stop offset="0.8" stop-color="#cb9b51"/><stop offset="1" stop-color="#cb9b51"/></linearGradient><clipPath id="clip-path-4"><polygon points="84.73 308.14 91.26 200.53 165.83 224.79 199.33 327.9 153.26 391.36 84.73 308.14" fill="none"/></clipPath><linearGradient id="linear-gradient-3" x1="-2245.03" y1="-1660.27" x2="-2244.03" y2="-1660.27" gradientTransform="translate(-555449.21 -410670.72) rotate(180) scale(247.53)" xlink:href="#linear-gradient-2"/><clipPath id="clip-path-5"><polygon points="312.67 327.91 346.17 224.8 420.74 200.54 427.27 308.15 358.74 391.38 312.67 327.91" fill="none"/></clipPath><linearGradient id="linear-gradient-4" x1="-2227.19" y1="-1654.47" x2="-2226.19" y2="-1654.47" gradientTransform="matrix(0, 247.53, 247.53, 0, 409902.96, 551472.51)" xlink:href="#linear-gradient-2"/><clipPath id="clip-path-6"><polygon points="257.51 158.16 257.48 79.74 361.85 106.79 419.82 197.68 345.22 221.89 257.51 158.16" fill="none"/></clipPath><linearGradient id="linear-gradient-5" x1="-2240" y1="-1636.78" x2="-2239" y2="-1636.78" gradientTransform="translate(554680.8 405304.64) scale(247.53)" xlink:href="#linear-gradient-2"/><clipPath id="clip-path-7"><polygon points="92.17 197.74 150.14 106.84 254.5 79.79 254.47 158.22 166.76 221.94 92.17 197.74" fill="none"/></clipPath><linearGradient id="linear-gradient-6" x1="-2251.03" y1="-1651.95" x2="-2250.03" y2="-1651.95" gradientTransform="matrix(0, -247.53, -247.53, 0, -408735.74, -556918.69)" xlink:href="#linear-gradient-2"/><clipPath id="clip-path-8"><rect x="226.59" y="220.47" width="58.82" height="71.07" fill="none"/></clipPath></defs><title>4d12</title><g id="D12"><g id="D12-2" data-name="D12"><g clip-path="url(#clip-path)"><g clip-path="url(#clip-path-2)"><rect x="168.79" y="160.83" width="174.36" height="165.83" fill="url(#linear-gradient)"/></g><path d="M256,162.69l85.41,62.06L308.76,325.16H203.18L170.55,224.75Zm0-3.71L167,223.6l34,104.56H310.94l34-104.56Z" fill="#0b0b0b"/><g clip-path="url(#clip-path-3)"><rect x="155.64" y="329.7" width="200.66" height="102.89" fill="url(#linear-gradient-2)"/></g><path d="M158,392.44l44.53-61.24H309.41l44.53,61.24L256,431Zm43-64.24-47.72,65.61L256,434.2l102.68-40.39L310.94,328.2Z" fill="#0b0b0b"/><g clip-path="url(#clip-path-4)"><rect x="58.05" y="187.49" width="167.97" height="216.91" transform="translate(-84.5 58.37) rotate(-18)" fill="url(#linear-gradient-3)"/></g><path d="M86.26,307.64l6.38-105.09,72,23.43,33,101.65-44.48,61.28Zm-3.06,1,70.14,85.17L201,328.16,167,223.6,89.88,198.5Z" fill="#0b0b0b"/><g clip-path="url(#clip-path-5)"><rect x="261.51" y="211.98" width="216.91" height="167.96" transform="translate(-25.83 556.36) rotate(-72)" fill="url(#linear-gradient-4)"/></g><path d="M314.33,327.65l33-101.66,72-23.42,6.38,105.08-66.93,81.28Zm30.65-104L311,328.17l47.66,65.66,70.14-85.18-6.68-110.14Z" fill="#0b0b0b"/><g clip-path="url(#clip-path-6)"><rect x="233.44" y="43.37" width="210.42" height="214.88" transform="translate(17.59 336.14) rotate(-54)" fill="url(#linear-gradient-5)"/></g><path d="M259,157.4l0-75.72L360.9,108.09l56.61,88.77-72,23.36Zm-3-79.6,0,81.13L345,223.55l77.17-25-59.34-93Z" fill="#0b0b0b"/><g clip-path="url(#clip-path-7)"><rect x="65.89" y="45.66" width="214.88" height="210.42" transform="translate(-55.57 130.7) rotate(-36)" fill="url(#linear-gradient-6)"/></g><path d="M94.47,196.91l56.62-88.77L253,81.73l0,75.72L166.5,220.28Zm54.72-91.37-59.33,93,77.17,25L256,159l0-81.13ZM256,77.85h0Z" fill="#0b0b0b"/></g></g><g id="_4" data-name="4"><g clip-path="url(#clip-path-8)"><g clip-path="url(#clip-path-8)"><path d="M284.91,278c0,.55-.46.91-1.37,1.1a12.45,12.45,0,0,1-2.75.05,20.79,20.79,0,0,1-2.08-.16,1.9,1.9,0,0,0-2.15,2.14c0,.88.06,2.21.17,4s.16,3.1.16,4c0,1.28-.56,1.92-1.7,1.92q-18.94,0-19.93-.46c-.66-.31-1-.71-1-1.18a28,28,0,0,1,.69-4.07,26.26,26.26,0,0,0,.68-4.72c0-1.21-.67-1.81-2-1.81q-3.68,0-11,.22c-4.89.14-8.56.22-11,.22-2.93,0-4.39-1.16-4.39-3.46q0-1.75-.06-5.25c0-2.32,0-4.07,0-5.24a5.25,5.25,0,0,1,1.7-3.46,145.92,145.92,0,0,0,11.7-13.73q1.75-2.46,11.91-19.27a78.2,78.2,0,0,1,4.29-6.92,2.15,2.15,0,0,1,1.64-.93q1.32,0,8.16,2t9.31,2c1.17,0,1.75.75,1.75,2.25a61.63,61.63,0,0,1-.49,6.45,62.78,62.78,0,0,0-.5,6.51v23.12a33.38,33.38,0,0,0,3.63-.33,27.11,27.11,0,0,1,3.57-.33c.69,0,1,.42,1,1.26s-.05,1.92-.14,3.46-.13,2.71-.13,3.52.06,2,.19,3.59.19,2.79.19,3.6m-27.13-34.7c0-.22-.12-.33-.38-.33s-.66.23-1,.71l-7,11.31a62.56,62.56,0,0,1-8.23,10.49q3,0,15.37-.77.11-2.19.77-10.82.49-6.81.49-10.59" fill="#c14343"/><path d="M284.91,278c0,.55-.46.91-1.37,1.1a12.45,12.45,0,0,1-2.75.05,20.79,20.79,0,0,1-2.08-.16,1.9,1.9,0,0,0-2.15,2.14c0,.88.06,2.21.17,4s.16,3.1.16,4c0,1.28-.56,1.92-1.7,1.92q-18.94,0-19.93-.46c-.66-.31-1-.71-1-1.18a28,28,0,0,1,.69-4.07,26.26,26.26,0,0,0,.68-4.72c0-1.21-.67-1.81-2-1.81q-3.68,0-11,.22c-4.89.14-8.56.22-11,.22-2.93,0-4.39-1.16-4.39-3.46q0-1.75-.06-5.25c0-2.32,0-4.07,0-5.24a5.25,5.25,0,0,1,1.7-3.46,145.92,145.92,0,0,0,11.7-13.73q1.75-2.46,11.91-19.27a78.2,78.2,0,0,1,4.29-6.92,2.15,2.15,0,0,1,1.64-.93q1.32,0,8.16,2t9.31,2c1.17,0,1.75.75,1.75,2.25a61.63,61.63,0,0,1-.49,6.45,62.78,62.78,0,0,0-.5,6.51v23.12a33.38,33.38,0,0,0,3.63-.33,27.11,27.11,0,0,1,3.57-.33c.69,0,1,.42,1,1.26s-.05,1.92-.14,3.46-.13,2.71-.13,3.52.06,2,.19,3.59S284.91,277.21,284.91,278Zm-27.13-34.7c0-.22-.12-.33-.38-.33s-.66.23-1,.71l-7,11.31a62.56,62.56,0,0,1-8.23,10.49q3,0,15.37-.77.11-2.19.77-10.82Q257.78,247.1,257.78,243.32Z" fill="none" stroke="#000" stroke-miterlimit="10"/></g></g></g></g></svg>