<svg id="Layer_1" data-name="Layer 1" xmlns="http://www.w3.org/2000/svg" xmlns:xlink="http://www.w3.org/1999/xlink" viewBox="0 0 512 512"><defs><clipPath id="clip-path"><rect x="65.76" y="31.81" width="380.48" height="448.37" fill="none"/></clipPath><clipPath id="clip-path-2"><polygon points="138.86 236.37 255.95 33.81 373.14 236.37 255.95 290.81 138.86 236.37" fill="none"/></clipPath><linearGradient id="linear-gradient" x1="-1672.7" y1="-2200.06" x2="-1671.7" y2="-2200.06" gradientTransform="matrix(234.27, 0, 0, -234.27, 392008.89, -515256.12)" gradientUnits="userSpaceOnUse"><stop offset="0" stop-color="#f6e27a"/><stop offset="0.1" stop-color="#f6e27a"/><stop offset="0.34" stop-color="#f6eba3"/><stop offset="0.5" stop-color="#f6f2c0"/><stop offset="0.68" stop-color="#f6eba2"/><stop offset="0.9" stop-color="#f6e27a"/><stop offset="1" stop-color="#f6e27a"/></linearGradient><clipPath id="clip-path-3"><polygon points="375.11 235.91 263.48 42.85 442.81 267.32 375.11 235.91" fill="none"/></clipPath><linearGradient id="linear-gradient-2" x1="-1678.13" y1="-2171.73" x2="-1677.13" y2="-2171.73" gradientTransform="matrix(-186.96, 0, 0, 186.96, -313310.52, 406177.05)" gradientUnits="userSpaceOnUse"><stop offset="0" stop-color="#cb9b51"/><stop offset="0.2" stop-color="#cb9b51"/><stop offset="0.29" stop-color="#deba63"/><stop offset="0.4" stop-color="#f6e27a"/><stop offset="0.46" stop-color="#f6eba3"/><stop offset="0.5" stop-color="#f6f2c0"/><stop offset="0.55" stop-color="#f6eba2"/><stop offset="0.6" stop-color="#f6e27a"/><stop offset="0.8" stop-color="#cb9b51"/><stop offset="1" stop-color="#cb9b51"/></linearGradient><clipPath id="clip-path-4"><polygon points="248.52 42.85 136.89 235.91 69.19 267.32 248.52 42.85" fill="none"/></clipPath><linearGradient id="linear-gradient-3" x1="-1663.82" y1="-2183.74" x2="-1662.82" y2="-2183.74" gradientTransform="translate(-408107.62 311143.84) rotate(90) scale(186.96)" gradientUnits="userSpaceOnUse"><stop offset="0" stop-color="#cb9b51"/><stop offset="0.1" stop-color="#cb9b51"/><stop offset="0.19" stop-color="#deba63"/><stop offset="0.3" stop-color="#f6e27a"/><stop offset="0.42" stop-color="#f6eba3"/><stop offset="0.5" stop-color="#f6f2c0"/><stop offset="0.59" stop-color="#f6eba2"/><stop offset="0.7" stop-color="#f6e27a"/><stop offset="0.9" stop-color="#cb9b51"/><stop offset="1" stop-color="#cb9b51"/></linearGradient><clipPath id="clip-path-5"><polygon points="67.41 270.35 137.5 237.79 255 292.43 255 477.59 67.41 270.35" fill="none"/></clipPath><linearGradient id="linear-gradient-4" x1="-1685.22" y1="-2205.4" x2="-1684.22" y2="-2205.4" gradientTransform="matrix(181.83, 0, 0, -181.83, 306519.06, -400646.64)" gradientUnits="userSpaceOnUse"><stop offset="0" stop-color="#cb9b51"/><stop offset="0.1" stop-color="#cb9b51"/><stop offset="0.3" stop-color="#f6e27a"/><stop offset="0.5" stop-color="#f6f2c0"/><stop offset="0.7" stop-color="#f6e27a"/><stop offset="0.9" stop-color="#cb9b51"/><stop offset="1" stop-color="#cb9b51"/></linearGradient><clipPath id="clip-path-6"><polygon points="256.98 292.43 374.48 237.79 444.56 270.35 256.98 477.59 256.98 292.43" fill="none"/></clipPath><linearGradient id="linear-gradient-5" x1="-1697.57" y1="-2190.69" x2="-1696.57" y2="-2190.69" gradientTransform="translate(398680.21 -308244.66) rotate(-90) scale(181.83)" xlink:href="#linear-gradient-4"/><clipPath id="clip-path-7"><rect x="229.36" y="158.58" width="53.28" height="70.08" fill="none"/></clipPath></defs><title>5d10</title><g id="D10"><g id="D10-2" data-name="D10"><g clip-path="url(#clip-path)"><g clip-path="url(#clip-path-2)"><rect x="138.86" y="33.81" width="234.27" height="257" fill="url(#linear-gradient)"/></g><path d="M140.28,235.92,256,35.81,371.72,235.92,256,289.71ZM256,31.81l-118.5,205L256,291.91l118.6-55.1Z"/><g clip-path="url(#clip-path-3)"><rect x="212.32" y="11.47" width="281.66" height="287.22" transform="translate(-17.07 263.28) rotate(-40)" fill="url(#linear-gradient-2)"/></g><path d="M375.81,235.14,271,53.88,439.37,264.63ZM256,31.81,374.4,236.69,446.24,270Z"/><g clip-path="url(#clip-path-4)"><rect x="15.24" y="14.26" width="287.22" height="281.66" transform="translate(-62.06 177.09) rotate(-50)" fill="url(#linear-gradient-3)"/></g><path d="M241,53.88,136.19,235.14,72.63,264.63ZM65.76,270l71.84-33.33L256.05,31.81Z"/><g clip-path="url(#clip-path-5)"><rect x="9.07" y="208.77" width="304.28" height="297.84" transform="translate(-216.42 251.26) rotate(-50)" fill="url(#linear-gradient-4)"/></g><path d="M69.07,270.69l68.43-31.8L254,293.06V475ZM65.76,270,256,480.19V291.79l-118.5-55.1Z"/><g clip-path="url(#clip-path-6)"><rect x="201.85" y="205.55" width="297.84" height="304.28" transform="translate(-147.86 309.15) rotate(-40)" fill="url(#linear-gradient-5)"/></g><path d="M258,293.06l116.49-54.17,68.44,31.8L258,475Zm-2-1.27v188.4L446.21,270l-71.74-33.33Z"/></g></g><g id="_5" data-name="5"><g clip-path="url(#clip-path-7)"><g clip-path="url(#clip-path-7)"><path d="M282.14,203.61q0,24.55-30.26,24.55a98.55,98.55,0,0,1-11.75-.93q-9.56-1.22-10-2.91a27.72,27.72,0,0,1-.22-4.89,45.08,45.08,0,0,1,.55-6.15c.48-3.3,1-4.94,1.65-4.94a2.56,2.56,0,0,1,.93.33A33.14,33.14,0,0,0,248,212q12.14,0,12.14-7.91,0-4.34-4.45-6.53a18.15,18.15,0,0,0-8.29-1.76,54.76,54.76,0,0,0-6.07.5,54.2,54.2,0,0,1-6.07.49c-1.28,0-1.92-.58-1.92-1.76q0-5.27.47-16.09t.46-16.08a3.78,3.78,0,0,1,.8-2.17,3.09,3.09,0,0,1,1.79-1.35q1.2-.21,15.26-.22,16,0,21.47.11c1,0,1.48.46,1.48,1.26a77.26,77.26,0,0,1-.65,8.57q-.82,7-2,7l-.61-.05q-12.4-1.09-15.48-1.1-6,0-6.48.66-.93,1.65-.93,6.2a1.88,1.88,0,0,0,.27,1.1c.91,0,2.36-.09,4.34-.27s3.31-.28,4.34-.28q10.22,0,17,5.44,7.31,5.82,7.31,15.92" fill="#c14343"/><path d="M282.14,203.61q0,24.55-30.26,24.55a98.55,98.55,0,0,1-11.75-.93q-9.56-1.22-10-2.91a27.72,27.72,0,0,1-.22-4.89,45.08,45.08,0,0,1,.55-6.15c.48-3.3,1-4.94,1.65-4.94a2.56,2.56,0,0,1,.93.33A33.14,33.14,0,0,0,248,212q12.14,0,12.14-7.91,0-4.34-4.45-6.53a18.15,18.15,0,0,0-8.29-1.76,54.76,54.76,0,0,0-6.07.5,54.2,54.2,0,0,1-6.07.49c-1.28,0-1.92-.58-1.92-1.76q0-5.27.47-16.09t.46-16.08a3.78,3.78,0,0,1,.8-2.17,3.09,3.09,0,0,1,1.79-1.35q1.2-.21,15.26-.22,16,0,21.47.11c1,0,1.48.46,1.48,1.26a77.26,77.26,0,0,1-.65,8.57q-.82,7-2,7l-.61-.05q-12.4-1.09-15.48-1.1-6,0-6.48.66-.93,1.65-.93,6.2a1.88,1.88,0,0,0,.27,1.1c.91,0,2.36-.09,4.34-.27s3.31-.28,4.34-.28q10.22,0,17,5.44Q282.14,193.51,282.14,203.61Z" fill="none" stroke="#000" stroke-miterlimit="10"/></g></g></g></g></svg>