<svg id="Layer_1" data-name="Layer 1" xmlns="http://www.w3.org/2000/svg" xmlns:xlink="http://www.w3.org/1999/xlink" viewBox="0 0 512 512"><defs><clipPath id="clip-path"><rect x="106" y="106" width="300" height="300" fill="none"/></clipPath><clipPath id="clip-path-2"><rect x="107.5" y="107.5" width="297" height="297" fill="none"/></clipPath><linearGradient id="linear-gradient" x1="-558.45" y1="-2187.49" x2="-557.45" y2="-2187.49" gradientTransform="matrix(0, 566.08, 566.08, 0, 1238543.77, 316097.4)" gradientUnits="userSpaceOnUse"><stop offset="0" stop-color="#f6e27a"/><stop offset="0.2" stop-color="#f6e27a"/><stop offset="0.38" stop-color="#f6eba3"/><stop offset="0.5" stop-color="#f6f2c0"/><stop offset="0.59" stop-color="#f6eba2"/><stop offset="0.7" stop-color="#f6e27a"/><stop offset="0.9" stop-color="#cb9b51"/><stop offset="1" stop-color="#cb9b51"/></linearGradient><clipPath id="clip-path-4"><rect x="229.36" y="220.96" width="53.28" height="70.08" fill="none"/></clipPath></defs><title>5d6</title><g id="D6"><g id="D6-2" data-name="D6"><g clip-path="url(#clip-path)"><g clip-path="url(#clip-path-2)"><rect x="107.5" y="107.5" width="297" height="297" fill="url(#linear-gradient)"/></g><g clip-path="url(#clip-path)"><rect x="107.5" y="107.5" width="297" height="297" stroke-width="3" stroke="#000" stroke-linecap="round" stroke-linejoin="round" fill="none"/></g></g></g><g id="_5" data-name="5"><g clip-path="url(#clip-path-4)"><g clip-path="url(#clip-path-4)"><path d="M282.14,266q0,24.56-30.26,24.55a98.55,98.55,0,0,1-11.75-.93q-9.56-1.22-10-2.92a27.48,27.48,0,0,1-.22-4.88,45.08,45.08,0,0,1,.55-6.15c.48-3.3,1-4.94,1.65-4.94a2.56,2.56,0,0,1,.93.33,33.14,33.14,0,0,0,15,3.29q12.14,0,12.14-7.91,0-4.33-4.45-6.53a18.15,18.15,0,0,0-8.29-1.76,54.76,54.76,0,0,0-6.07.5,56.75,56.75,0,0,1-6.07.49c-1.28,0-1.92-.59-1.92-1.76q0-5.26.47-16.09t.46-16.09a3.78,3.78,0,0,1,.8-2.16,3.09,3.09,0,0,1,1.79-1.35q1.2-.23,15.26-.22,16,0,21.47.11c1,0,1.48.46,1.48,1.26a77.26,77.26,0,0,1-.65,8.57q-.82,7-2,7l-.61-.05q-12.4-1.09-15.48-1.1-6,0-6.48.66-.93,1.65-.93,6.2a1.88,1.88,0,0,0,.27,1.1c.91,0,2.36-.09,4.34-.27s3.31-.28,4.34-.28q10.22,0,17,5.44,7.31,5.82,7.31,15.92" fill="#c14343"/><path d="M282.14,266q0,24.56-30.26,24.55a98.55,98.55,0,0,1-11.75-.93q-9.56-1.22-10-2.92a27.48,27.48,0,0,1-.22-4.88,45.08,45.08,0,0,1,.55-6.15c.48-3.3,1-4.94,1.65-4.94a2.56,2.56,0,0,1,.93.33,33.14,33.14,0,0,0,15,3.29q12.14,0,12.14-7.91,0-4.33-4.45-6.53a18.15,18.15,0,0,0-8.29-1.76,54.76,54.76,0,0,0-6.07.5,56.75,56.75,0,0,1-6.07.49c-1.28,0-1.92-.59-1.92-1.76q0-5.26.47-16.09t.46-16.09a3.78,3.78,0,0,1,.8-2.16,3.09,3.09,0,0,1,1.79-1.35q1.2-.23,15.26-.22,16,0,21.47.11c1,0,1.48.46,1.48,1.26a77.26,77.26,0,0,1-.65,8.57q-.82,7-2,7l-.61-.05q-12.4-1.09-15.48-1.1-6,0-6.48.66-.93,1.65-.93,6.2a1.88,1.88,0,0,0,.27,1.1c.91,0,2.36-.09,4.34-.27s3.31-.28,4.34-.28q10.22,0,17,5.44Q282.14,255.89,282.14,266Z" fill="none" stroke="#000" stroke-miterlimit="10"/></g></g></g></g></svg>