<svg id="Layer_1" data-name="Layer 1" xmlns="http://www.w3.org/2000/svg" xmlns:xlink="http://www.w3.org/1999/xlink" viewBox="0 0 512 512"><defs><clipPath id="clip-path"><rect x="92.31" y="31.81" width="327.38" height="448.37" fill="none"/></clipPath><clipPath id="clip-path-2"><polygon points="95.26 254.5 256 34.36 416.74 254.5 95.26 254.5" fill="none"/></clipPath><linearGradient id="linear-gradient" x1="-1115.55" y1="-2185.91" x2="-1114.55" y2="-2185.91" gradientTransform="matrix(-441.33, 0, 0, 441.33, -491954.16, 964841.76)" gradientUnits="userSpaceOnUse"><stop offset="0" stop-color="#f6e27a"/><stop offset="0.3" stop-color="#f6e27a"/><stop offset="0.42" stop-color="#f6eba3"/><stop offset="0.5" stop-color="#f6f2c0"/><stop offset="0.59" stop-color="#f6eba2"/><stop offset="0.7" stop-color="#f6e27a"/><stop offset="0.9" stop-color="#cb9b51"/><stop offset="1" stop-color="#cb9b51"/></linearGradient><clipPath id="clip-path-3"><polygon points="95.26 257.5 416.74 257.5 256 477.64 95.26 257.5" fill="none"/></clipPath><linearGradient id="linear-gradient-2" x1="-1115.53" y1="-2185.92" x2="-1114.53" y2="-2185.92" gradientTransform="matrix(0, 440.66, 440.66, 0, 963496.71, 491606.69)" gradientUnits="userSpaceOnUse"><stop offset="0" stop-color="#f6e27a"/><stop offset="0.2" stop-color="#f6e27a"/><stop offset="0.38" stop-color="#f6eba3"/><stop offset="0.5" stop-color="#f6f2c0"/><stop offset="0.59" stop-color="#f6eba2"/><stop offset="0.7" stop-color="#f6e27a"/><stop offset="0.9" stop-color="#cb9b51"/><stop offset="1" stop-color="#cb9b51"/></linearGradient><clipPath id="clip-path-4"><rect x="229.36" y="141.58" width="53.28" height="70.08" fill="none"/></clipPath></defs><title>5d8</title><g id="D8"><g id="D8-2" data-name="D8"><g clip-path="url(#clip-path)"><g clip-path="url(#clip-path-2)"><rect x="145.59" y="-16.54" width="220.81" height="321.93" transform="translate(111.04 400.13) rotate(-89.88)" fill="url(#linear-gradient)"/></g><path d="M256,36.9,413.78,253H98.22Zm0-5.09L92.31,256H419.69Z" fill="#0b0b0b"/><g clip-path="url(#clip-path-3)"><rect x="95.26" y="257.5" width="321.47" height="220.14" fill="url(#linear-gradient-2)"/></g><path d="M98.22,259H413.78L256,475.1Zm-5.91-3L256,480.19,419.69,256Z" fill="#0b0b0b"/></g></g><g id="_5" data-name="5"><g clip-path="url(#clip-path-4)"><g clip-path="url(#clip-path-4)"><path d="M282.14,186.61q0,24.55-30.26,24.55a98.55,98.55,0,0,1-11.75-.93q-9.56-1.22-10-2.91a27.72,27.72,0,0,1-.22-4.89,45.08,45.08,0,0,1,.55-6.15c.48-3.3,1-4.94,1.65-4.94a2.56,2.56,0,0,1,.93.33A33.14,33.14,0,0,0,248,195q12.14,0,12.14-7.91,0-4.34-4.45-6.53a18.15,18.15,0,0,0-8.29-1.76,54.76,54.76,0,0,0-6.07.5,54.2,54.2,0,0,1-6.07.49c-1.28,0-1.92-.58-1.92-1.76q0-5.27.47-16.09t.46-16.08a3.78,3.78,0,0,1,.8-2.17,3.09,3.09,0,0,1,1.79-1.35q1.2-.21,15.26-.22,16,0,21.47.11c1,0,1.48.46,1.48,1.26a77.26,77.26,0,0,1-.65,8.57q-.82,7-2,7l-.61-.05q-12.4-1.09-15.48-1.1-6,0-6.48.66-.93,1.65-.93,6.2a1.88,1.88,0,0,0,.27,1.1c.91,0,2.36-.09,4.34-.27s3.31-.28,4.34-.28q10.22,0,17,5.44,7.31,5.82,7.31,15.92" fill="#c14343"/><path d="M282.14,186.61q0,24.55-30.26,24.55a98.55,98.55,0,0,1-11.75-.93q-9.56-1.22-10-2.91a27.72,27.72,0,0,1-.22-4.89,45.08,45.08,0,0,1,.55-6.15c.48-3.3,1-4.94,1.65-4.94a2.56,2.56,0,0,1,.93.33A33.14,33.14,0,0,0,248,195q12.14,0,12.14-7.91,0-4.34-4.45-6.53a18.15,18.15,0,0,0-8.29-1.76,54.76,54.76,0,0,0-6.07.5,54.2,54.2,0,0,1-6.07.49c-1.28,0-1.92-.58-1.92-1.76q0-5.27.47-16.09t.46-16.08a3.78,3.78,0,0,1,.8-2.17,3.09,3.09,0,0,1,1.79-1.35q1.2-.21,15.26-.22,16,0,21.47.11c1,0,1.48.46,1.48,1.26a77.26,77.26,0,0,1-.65,8.57q-.82,7-2,7l-.61-.05q-12.4-1.09-15.48-1.1-6,0-6.48.66-.93,1.65-.93,6.2a1.88,1.88,0,0,0,.27,1.1c.91,0,2.36-.09,4.34-.27s3.31-.28,4.34-.28q10.22,0,17,5.44Q282.14,176.51,282.14,186.61Z" fill="none" stroke="#000" stroke-miterlimit="10"/></g></g></g></g></svg>