<svg id="Layer_1" data-name="Layer 1" xmlns="http://www.w3.org/2000/svg" xmlns:xlink="http://www.w3.org/1999/xlink" viewBox="0 0 512 512"><defs><clipPath id="clip-path"><rect x="65.76" y="31.81" width="380.48" height="448.37" fill="none"/></clipPath><clipPath id="clip-path-2"><polygon points="138.86 236.37 255.95 33.81 373.14 236.37 255.95 290.81 138.86 236.37" fill="none"/></clipPath><linearGradient id="linear-gradient" x1="-1672.7" y1="-2741.69" x2="-1671.7" y2="-2741.69" gradientTransform="matrix(234.27, 0, 0, -234.27, 392008.89, -642146.48)" gradientUnits="userSpaceOnUse"><stop offset="0" stop-color="#f6e27a"/><stop offset="0.1" stop-color="#f6e27a"/><stop offset="0.34" stop-color="#f6eba3"/><stop offset="0.5" stop-color="#f6f2c0"/><stop offset="0.68" stop-color="#f6eba2"/><stop offset="0.9" stop-color="#f6e27a"/><stop offset="1" stop-color="#f6e27a"/></linearGradient><clipPath id="clip-path-3"><polygon points="375.11 235.91 263.48 42.85 442.81 267.32 375.11 235.91" fill="none"/></clipPath><linearGradient id="linear-gradient-2" x1="-1676.27" y1="-2708.85" x2="-1675.27" y2="-2708.85" gradientTransform="matrix(-186.96, 0, 0, 186.96, -312963.84, 506595.6)" gradientUnits="userSpaceOnUse"><stop offset="0" stop-color="#cb9b51"/><stop offset="0.2" stop-color="#cb9b51"/><stop offset="0.29" stop-color="#deba63"/><stop offset="0.4" stop-color="#f6e27a"/><stop offset="0.46" stop-color="#f6eba3"/><stop offset="0.5" stop-color="#f6f2c0"/><stop offset="0.55" stop-color="#f6eba2"/><stop offset="0.6" stop-color="#f6e27a"/><stop offset="0.8" stop-color="#cb9b51"/><stop offset="1" stop-color="#cb9b51"/></linearGradient><clipPath id="clip-path-4"><polygon points="248.52 42.85 136.89 235.91 69.19 267.32 248.52 42.85" fill="none"/></clipPath><linearGradient id="linear-gradient-3" x1="-1661.97" y1="-2720.86" x2="-1660.97" y2="-2720.86" gradientTransform="translate(-508526.17 310797.16) rotate(90) scale(186.96)" gradientUnits="userSpaceOnUse"><stop offset="0" stop-color="#cb9b51"/><stop offset="0.1" stop-color="#cb9b51"/><stop offset="0.19" stop-color="#deba63"/><stop offset="0.3" stop-color="#f6e27a"/><stop offset="0.42" stop-color="#f6eba3"/><stop offset="0.5" stop-color="#f6f2c0"/><stop offset="0.59" stop-color="#f6eba2"/><stop offset="0.7" stop-color="#f6e27a"/><stop offset="0.9" stop-color="#cb9b51"/><stop offset="1" stop-color="#cb9b51"/></linearGradient><clipPath id="clip-path-5"><polygon points="67.41 270.35 137.5 237.79 255 292.43 255 477.59 67.41 270.35" fill="none"/></clipPath><linearGradient id="linear-gradient-4" x1="-1687.49" y1="-2746.64" x2="-1686.49" y2="-2746.64" gradientTransform="matrix(181.83, 0, 0, -181.83, 306932.2, -499058.51)" gradientUnits="userSpaceOnUse"><stop offset="0" stop-color="#cb9b51"/><stop offset="0.1" stop-color="#cb9b51"/><stop offset="0.3" stop-color="#f6e27a"/><stop offset="0.5" stop-color="#f6f2c0"/><stop offset="0.7" stop-color="#f6e27a"/><stop offset="0.9" stop-color="#cb9b51"/><stop offset="1" stop-color="#cb9b51"/></linearGradient><clipPath id="clip-path-6"><polygon points="256.98 292.43 374.48 237.79 444.56 270.35 256.98 477.59 256.98 292.43" fill="none"/></clipPath><linearGradient id="linear-gradient-5" x1="-1699.84" y1="-2731.93" x2="-1698.84" y2="-2731.93" gradientTransform="translate(497092.08 -308657.8) rotate(-90) scale(181.83)" xlink:href="#linear-gradient-4"/><clipPath id="clip-path-7"><rect x="226.7" y="158.25" width="58.6" height="70.74" fill="none"/></clipPath></defs><title>6d10</title><g id="D10"><g id="D10-2" data-name="D10"><g clip-path="url(#clip-path)"><g clip-path="url(#clip-path-2)"><rect x="138.86" y="33.81" width="234.27" height="257" fill="url(#linear-gradient)"/></g><path d="M140.28,235.92,256,35.81,371.72,235.92,256,289.71ZM256,31.81l-118.5,205L256,291.91l118.6-55.1Z"/><g clip-path="url(#clip-path-3)"><rect x="212.32" y="11.47" width="281.66" height="287.22" transform="translate(-17.07 263.28) rotate(-40)" fill="url(#linear-gradient-2)"/></g><path d="M375.81,235.14,271,53.88,439.37,264.63ZM256,31.81,374.4,236.69,446.24,270Z"/><g clip-path="url(#clip-path-4)"><rect x="15.24" y="14.26" width="287.22" height="281.66" transform="translate(-62.06 177.09) rotate(-50)" fill="url(#linear-gradient-3)"/></g><path d="M241,53.88,136.19,235.14,72.63,264.63ZM65.76,270l71.84-33.33L256.05,31.81Z"/><g clip-path="url(#clip-path-5)"><rect x="9.07" y="208.77" width="304.28" height="297.84" transform="translate(-216.42 251.26) rotate(-50)" fill="url(#linear-gradient-4)"/></g><path d="M69.07,270.69l68.43-31.8L254,293.06V475ZM65.76,270,256,480.19V291.79l-118.5-55.1Z"/><g clip-path="url(#clip-path-6)"><rect x="201.85" y="205.55" width="297.84" height="304.28" transform="translate(-147.86 309.15) rotate(-40)" fill="url(#linear-gradient-5)"/></g><path d="M258,293.06l116.49-54.17,68.44,31.8L258,475Zm-2-1.27v188.4L446.21,270l-71.74-33.33Z"/></g></g><g id="_6" data-name="6"><g clip-path="url(#clip-path-7)"><g clip-path="url(#clip-path-7)"><path d="M284.8,202.85q0,12.3-8.13,19.16-7.64,6.48-20.2,6.48-13.52,0-21.53-8.79-7.74-8.44-7.74-22.07a35.53,35.53,0,0,1,13.12-28.33q12.47-10.55,30-10.55c.7,0,1.21.44,1.54,1.32q4.23,10.81,4.23,11.86c0,1.69-.81,2.53-2.42,2.53a41.78,41.78,0,0,0-12,1.64q-7.14,2.1-9.72,6.37a3.36,3.36,0,0,0-.6,1.49.29.29,0,0,0,.33.33,3.22,3.22,0,0,0,.82-.22A25.2,25.2,0,0,1,263,181.92q9.56,0,15.59,5.61,6.25,5.82,6.26,15.32m-18.89.22a8.84,8.84,0,0,0-2.52-6.46,8.61,8.61,0,0,0-6.37-2.55,9.89,9.89,0,0,0-6.87,2.42,8.41,8.41,0,0,0-2.69,6.59,11.06,11.06,0,0,0,2.25,7.24,8.35,8.35,0,0,0,6.87,3,8.74,8.74,0,0,0,7-2.91,11,11,0,0,0,2.36-7.3" fill="#c14343"/><path d="M284.8,202.85q0,12.3-8.13,19.16-7.64,6.48-20.2,6.48-13.52,0-21.53-8.79-7.74-8.44-7.74-22.07a35.53,35.53,0,0,1,13.12-28.33q12.47-10.55,30-10.55c.7,0,1.21.44,1.54,1.32q4.23,10.81,4.23,11.86c0,1.69-.81,2.53-2.42,2.53a41.78,41.78,0,0,0-12,1.64q-7.14,2.1-9.72,6.37a3.36,3.36,0,0,0-.6,1.49.29.29,0,0,0,.33.33,3.22,3.22,0,0,0,.82-.22A25.2,25.2,0,0,1,263,181.92q9.56,0,15.59,5.61Q284.79,193.35,284.8,202.85Zm-18.89.22a8.84,8.84,0,0,0-2.52-6.46,8.61,8.61,0,0,0-6.37-2.55,9.89,9.89,0,0,0-6.87,2.42,8.41,8.41,0,0,0-2.69,6.59,11.06,11.06,0,0,0,2.25,7.24,8.35,8.35,0,0,0,6.87,3,8.74,8.74,0,0,0,7-2.91A11,11,0,0,0,265.91,203.07Z" fill="none" stroke="#000" stroke-miterlimit="10"/></g></g></g></g></svg>