<svg id="Layer_1" data-name="Layer 1" xmlns="http://www.w3.org/2000/svg" xmlns:xlink="http://www.w3.org/1999/xlink" viewBox="0 0 512 512"><defs><clipPath id="clip-path"><rect x="106" y="106" width="300" height="300" fill="none"/></clipPath><clipPath id="clip-path-2"><rect x="107.5" y="107.5" width="297" height="297" fill="none"/></clipPath><linearGradient id="linear-gradient" x1="-557.49" y1="-2726.82" x2="-556.49" y2="-2726.82" gradientTransform="matrix(0, 566.08, 566.08, 0, 1543845.76, 315558.07)" gradientUnits="userSpaceOnUse"><stop offset="0" stop-color="#f6e27a"/><stop offset="0.2" stop-color="#f6e27a"/><stop offset="0.38" stop-color="#f6eba3"/><stop offset="0.5" stop-color="#f6f2c0"/><stop offset="0.59" stop-color="#f6eba2"/><stop offset="0.7" stop-color="#f6e27a"/><stop offset="0.9" stop-color="#cb9b51"/><stop offset="1" stop-color="#cb9b51"/></linearGradient><clipPath id="clip-path-4"><rect x="226.7" y="220.63" width="58.6" height="70.74" fill="none"/></clipPath></defs><title>6d6</title><g id="D6"><g id="D6-2" data-name="D6"><g clip-path="url(#clip-path)"><g clip-path="url(#clip-path-2)"><rect x="107.5" y="107.5" width="297" height="297" fill="url(#linear-gradient)"/></g><g clip-path="url(#clip-path)"><rect x="107.5" y="107.5" width="297" height="297" stroke-width="3" stroke="#000" stroke-linecap="round" stroke-linejoin="round" fill="none"/></g></g></g><g id="_6" data-name="6"><g clip-path="url(#clip-path-4)"><g clip-path="url(#clip-path-4)"><path d="M284.8,265.22q0,12.31-8.13,19.17-7.64,6.48-20.2,6.48-13.52,0-21.53-8.79-7.74-8.44-7.74-22.07a35.57,35.57,0,0,1,13.12-28.34q12.47-10.53,30-10.54c.7,0,1.21.44,1.54,1.32q4.23,10.81,4.23,11.86c0,1.68-.81,2.53-2.42,2.53a41.44,41.44,0,0,0-12,1.64q-7.14,2.09-9.72,6.37a3.36,3.36,0,0,0-.6,1.49.29.29,0,0,0,.33.33,3.22,3.22,0,0,0,.82-.22A25.2,25.2,0,0,1,263,244.3q9.56,0,15.59,5.6,6.25,5.83,6.26,15.32m-18.89.22a8.81,8.81,0,0,0-2.52-6.45,8.61,8.61,0,0,0-6.37-2.55,9.84,9.84,0,0,0-6.87,2.42,8.4,8.4,0,0,0-2.69,6.58,11.07,11.07,0,0,0,2.25,7.25,8.35,8.35,0,0,0,6.87,3,8.74,8.74,0,0,0,7-2.91,11,11,0,0,0,2.36-7.31" fill="#c14343"/><path d="M284.8,265.22q0,12.31-8.13,19.17-7.64,6.48-20.2,6.48-13.52,0-21.53-8.79-7.74-8.44-7.74-22.07a35.57,35.57,0,0,1,13.12-28.34q12.47-10.53,30-10.54c.7,0,1.21.44,1.54,1.32q4.23,10.81,4.23,11.86c0,1.68-.81,2.53-2.42,2.53a41.44,41.44,0,0,0-12,1.64q-7.14,2.09-9.72,6.37a3.36,3.36,0,0,0-.6,1.49.29.29,0,0,0,.33.33,3.22,3.22,0,0,0,.82-.22A25.2,25.2,0,0,1,263,244.3q9.56,0,15.59,5.6Q284.79,255.74,284.8,265.22Zm-18.89.22a8.81,8.81,0,0,0-2.52-6.45,8.61,8.61,0,0,0-6.37-2.55,9.84,9.84,0,0,0-6.87,2.42,8.4,8.4,0,0,0-2.69,6.58,11.07,11.07,0,0,0,2.25,7.25,8.35,8.35,0,0,0,6.87,3,8.74,8.74,0,0,0,7-2.91A11,11,0,0,0,265.91,265.44Z" fill="none" stroke="#000" stroke-miterlimit="10"/></g></g></g></g></svg>