<svg id="Layer_1" data-name="Layer 1" xmlns="http://www.w3.org/2000/svg" xmlns:xlink="http://www.w3.org/1999/xlink" viewBox="0 0 512 512"><defs><clipPath id="clip-path"><rect x="83.2" y="77.8" width="345.61" height="356.4" fill="none"/></clipPath><clipPath id="clip-path-2"><polygon points="202.09 326.66 168.79 224.17 255.97 160.83 343.14 224.17 309.85 326.66 202.09 326.66" fill="none"/></clipPath><linearGradient id="linear-gradient" x1="-2250.22" y1="-3805.77" x2="-2249.22" y2="-3805.77" gradientTransform="matrix(0, -398.95, -398.95, 0, -1518053.58, -897272.54)" gradientUnits="userSpaceOnUse"><stop offset="0" stop-color="#cb9b51"/><stop offset="0.25" stop-color="#f6e27a"/><stop offset="0.5" stop-color="#f6f2c0"/><stop offset="0.75" stop-color="#f6e27a"/><stop offset="1" stop-color="#cb9b51"/></linearGradient><clipPath id="clip-path-3"><polygon points="155.64 393.13 201.76 329.7 310.17 329.7 356.3 393.13 255.97 432.59 155.64 393.13" fill="none"/></clipPath><linearGradient id="linear-gradient-2" x1="-2222.5" y1="-3809.33" x2="-2221.5" y2="-3809.33" gradientTransform="translate(-942668.53 550388.44) rotate(90) scale(247.53)" gradientUnits="userSpaceOnUse"><stop offset="0" stop-color="#cb9b51"/><stop offset="0.2" stop-color="#cb9b51"/><stop offset="0.4" stop-color="#f6e27a"/><stop offset="0.42" stop-color="#f6e483"/><stop offset="0.46" stop-color="#f6ea9b"/><stop offset="0.5" stop-color="#f6f2c0"/><stop offset="0.6" stop-color="#f6e27a"/><stop offset="0.8" stop-color="#cb9b51"/><stop offset="1" stop-color="#cb9b51"/></linearGradient><clipPath id="clip-path-4"><polygon points="84.73 308.14 91.26 200.53 165.83 224.79 199.33 327.9 153.26 391.36 84.73 308.14" fill="none"/></clipPath><linearGradient id="linear-gradient-3" x1="-2243.24" y1="-3819.14" x2="-2242.24" y2="-3819.14" gradientTransform="translate(-555006.89 -945056.46) rotate(180) scale(247.53)" xlink:href="#linear-gradient-2"/><clipPath id="clip-path-5"><polygon points="312.67 327.91 346.17 224.8 420.74 200.54 427.27 308.15 358.74 391.38 312.67 327.91" fill="none"/></clipPath><linearGradient id="linear-gradient-4" x1="-2225.39" y1="-3813.34" x2="-2224.39" y2="-3813.34" gradientTransform="matrix(0, 247.53, 247.53, 0, 944289.91, 551028.49)" xlink:href="#linear-gradient-2"/><clipPath id="clip-path-6"><polygon points="257.51 158.16 257.48 79.74 361.85 106.79 419.82 197.68 345.22 221.89 257.51 158.16" fill="none"/></clipPath><linearGradient id="linear-gradient-5" x1="-2247.93" y1="-3782.28" x2="-2246.93" y2="-3782.28" gradientTransform="translate(556641.54 936383.3) scale(247.53)" xlink:href="#linear-gradient-2"/><clipPath id="clip-path-7"><polygon points="92.17 197.74 150.14 106.84 254.5 79.79 254.47 158.22 166.76 221.94 92.17 197.74" fill="none"/></clipPath><linearGradient id="linear-gradient-6" x1="-2258.96" y1="-3797.46" x2="-2257.96" y2="-3797.46" gradientTransform="matrix(0, -247.53, -247.53, 0, -939813.74, -558880.54)" xlink:href="#linear-gradient-2"/><clipPath id="clip-path-8"><rect x="229.12" y="220.47" width="53.77" height="71.07" fill="none"/></clipPath></defs><title>8d12</title><g id="D12"><g id="D12-2" data-name="D12"><g clip-path="url(#clip-path)"><g clip-path="url(#clip-path-2)"><rect x="168.79" y="160.83" width="174.36" height="165.83" fill="url(#linear-gradient)"/></g><path d="M256,162.69l85.41,62.06L308.76,325.16H203.18L170.55,224.75Zm0-3.71L167,223.6l34,104.56H310.94l34-104.56Z" fill="#0b0b0b"/><g clip-path="url(#clip-path-3)"><rect x="155.64" y="329.7" width="200.66" height="102.89" fill="url(#linear-gradient-2)"/></g><path d="M158,392.44l44.53-61.24H309.41l44.53,61.24L256,431Zm43-64.24-47.72,65.61L256,434.2l102.68-40.39L310.94,328.2Z" fill="#0b0b0b"/><g clip-path="url(#clip-path-4)"><rect x="58.05" y="187.49" width="167.97" height="216.91" transform="translate(-84.5 58.37) rotate(-18)" fill="url(#linear-gradient-3)"/></g><path d="M86.26,307.64l6.38-105.09,72,23.43,33,101.65-44.48,61.28Zm-3.06,1,70.14,85.17L201,328.16,167,223.6,89.88,198.5Z" fill="#0b0b0b"/><g clip-path="url(#clip-path-5)"><rect x="261.51" y="211.98" width="216.91" height="167.96" transform="translate(-25.83 556.36) rotate(-72)" fill="url(#linear-gradient-4)"/></g><path d="M314.33,327.65l33-101.66,72-23.42,6.38,105.08-66.93,81.28Zm30.65-104L311,328.17l47.66,65.66,70.14-85.18-6.68-110.14Z" fill="#0b0b0b"/><g clip-path="url(#clip-path-6)"><rect x="233.44" y="43.37" width="210.42" height="214.88" transform="translate(17.59 336.14) rotate(-54)" fill="url(#linear-gradient-5)"/></g><path d="M259,157.4l0-75.72L360.9,108.09l56.61,88.77-72,23.36Zm-3-79.6,0,81.13L345,223.55l77.17-25-59.34-93Z" fill="#0b0b0b"/><g clip-path="url(#clip-path-7)"><rect x="65.89" y="45.66" width="214.88" height="210.42" transform="translate(-55.57 130.7) rotate(-36)" fill="url(#linear-gradient-6)"/></g><path d="M94.47,196.91l56.62-88.77L253,81.73l0,75.72L166.5,220.28Zm54.72-91.37-59.33,93,77.17,25L256,159l0-81.13ZM256,77.85h0Z" fill="#0b0b0b"/></g></g><g id="_8" data-name="8"><g clip-path="url(#clip-path-8)"><g clip-path="url(#clip-path-8)"><path d="M282.38,270.44q0,10.05-7.9,15.65Q267.45,291,257,291q-12.13,0-19.22-5.21-8.13-5.88-8.13-17.52a14.2,14.2,0,0,1,2.15-7.41,23.15,23.15,0,0,1,4-4.84l2.09-2c0-.4-.57-1.21-1.71-2.42a18.19,18.19,0,0,1-3.23-4.12,14.65,14.65,0,0,1-1.76-7.24q0-9.88,8.18-15.05,6.87-4.29,17.35-4.28a29.39,29.39,0,0,1,16.2,4.72q8.46,5.43,8.46,13.84a17.16,17.16,0,0,1-1.93,8.12,18.71,18.71,0,0,1-3.46,4.73Q274,254.3,274,254.63a25.47,25.47,0,0,0,2.14,2.3,24.32,24.32,0,0,1,4.06,5.22,16.93,16.93,0,0,1,2.14,8.29m-21.25.61q0-5.34-8.89-8c-1.94-.62-3-.94-3.13-.94q-1.92,0-3.74,3.08a10.1,10.1,0,0,0-1.7,4.94,7.41,7.41,0,0,0,2.8,6,9.44,9.44,0,0,0,6.32,2.19q8.34,0,8.34-7.24m5.33-31.52a5.47,5.47,0,0,0-2.53-4.62,8.94,8.94,0,0,0-5.21-1.59q-7.7,0-7.69,6.48,0,4.29,9.83,7a5.12,5.12,0,0,0,1,.16c1.21,0,2.3-.95,3.29-2.86a10,10,0,0,0,1.32-4.55" fill="#c14343"/><path d="M282.38,270.44q0,10.05-7.9,15.65Q267.45,291,257,291q-12.13,0-19.22-5.21-8.13-5.88-8.13-17.52a14.2,14.2,0,0,1,2.15-7.41,23.15,23.15,0,0,1,4-4.84l2.09-2c0-.4-.57-1.21-1.71-2.42a18.19,18.19,0,0,1-3.23-4.12,14.65,14.65,0,0,1-1.76-7.24q0-9.88,8.18-15.05,6.87-4.29,17.35-4.28a29.39,29.39,0,0,1,16.2,4.72q8.46,5.43,8.46,13.84a17.16,17.16,0,0,1-1.93,8.12,18.71,18.71,0,0,1-3.46,4.73Q274,254.3,274,254.63a25.47,25.47,0,0,0,2.14,2.3,24.32,24.32,0,0,1,4.06,5.22A16.93,16.93,0,0,1,282.38,270.44Zm-21.25.61q0-5.34-8.89-8c-1.94-.62-3-.94-3.13-.94q-1.92,0-3.74,3.08a10.1,10.1,0,0,0-1.7,4.94,7.41,7.41,0,0,0,2.8,6,9.44,9.44,0,0,0,6.32,2.19Q261.13,278.29,261.13,271.05Zm5.33-31.52a5.47,5.47,0,0,0-2.53-4.62,8.94,8.94,0,0,0-5.21-1.59q-7.7,0-7.69,6.48,0,4.29,9.83,7a5.12,5.12,0,0,0,1,.16c1.21,0,2.3-.95,3.29-2.86A10,10,0,0,0,266.46,239.53Z" fill="none" stroke="#000" stroke-miterlimit="10"/></g></g></g></g></svg>