<svg id="Layer_1" data-name="Layer 1" xmlns="http://www.w3.org/2000/svg" xmlns:xlink="http://www.w3.org/1999/xlink" viewBox="0 0 512 512"><defs><clipPath id="clip-path"><rect x="92.31" y="31.81" width="327.38" height="448.37" fill="none"/></clipPath><clipPath id="clip-path-2"><polygon points="95.26 254.5 256 34.36 416.74 254.5 95.26 254.5" fill="none"/></clipPath><linearGradient id="linear-gradient" x1="-1119.05" y1="-3797.16" x2="-1118.05" y2="-3797.16" gradientTransform="matrix(-441.33, 0, 0, 441.33, -493500.78, 1675930.24)" gradientUnits="userSpaceOnUse"><stop offset="0" stop-color="#f6e27a"/><stop offset="0.3" stop-color="#f6e27a"/><stop offset="0.42" stop-color="#f6eba3"/><stop offset="0.5" stop-color="#f6f2c0"/><stop offset="0.59" stop-color="#f6eba2"/><stop offset="0.7" stop-color="#f6e27a"/><stop offset="0.9" stop-color="#cb9b51"/><stop offset="1" stop-color="#cb9b51"/></linearGradient><clipPath id="clip-path-3"><polygon points="95.26 257.5 416.74 257.5 256 477.64 95.26 257.5" fill="none"/></clipPath><linearGradient id="linear-gradient-2" x1="-1119.03" y1="-3797.18" x2="-1118.03" y2="-3797.18" gradientTransform="matrix(0, 440.66, 440.66, 0, 1673512.25, 493148.44)" gradientUnits="userSpaceOnUse"><stop offset="0" stop-color="#f6e27a"/><stop offset="0.2" stop-color="#f6e27a"/><stop offset="0.38" stop-color="#f6eba3"/><stop offset="0.5" stop-color="#f6f2c0"/><stop offset="0.59" stop-color="#f6eba2"/><stop offset="0.7" stop-color="#f6e27a"/><stop offset="0.9" stop-color="#cb9b51"/><stop offset="1" stop-color="#cb9b51"/></linearGradient><clipPath id="clip-path-4"><rect x="229.12" y="141.09" width="53.77" height="71.07" fill="none"/></clipPath></defs><title>8d8</title><g id="D8"><g id="D8-2" data-name="D8"><g clip-path="url(#clip-path)"><g clip-path="url(#clip-path-2)"><rect x="145.59" y="-16.54" width="220.81" height="321.93" transform="translate(111.04 400.13) rotate(-89.88)" fill="url(#linear-gradient)"/></g><path d="M256,36.9,413.78,253H98.22Zm0-5.09L92.31,256H419.69Z" fill="#0b0b0b"/><g clip-path="url(#clip-path-3)"><rect x="95.26" y="257.5" width="321.47" height="220.14" fill="url(#linear-gradient-2)"/></g><path d="M98.22,259H413.78L256,475.1Zm-5.91-3L256,480.19,419.69,256Z" fill="#0b0b0b"/></g></g><g id="_8" data-name="8"><g clip-path="url(#clip-path-4)"><g clip-path="url(#clip-path-4)"><path d="M282.38,191.06q0,10-7.9,15.65-7,4.95-17.52,4.94-12.13,0-19.22-5.21-8.13-5.88-8.13-17.52a14.2,14.2,0,0,1,2.15-7.41,22.86,22.86,0,0,1,4-4.83l2.09-2c0-.4-.57-1.21-1.71-2.42a18.19,18.19,0,0,1-3.23-4.12,14.62,14.62,0,0,1-1.76-7.24q0-9.88,8.18-15,6.87-4.27,17.35-4.28a29.39,29.39,0,0,1,16.2,4.72q8.46,5.43,8.46,13.84a17.16,17.16,0,0,1-1.93,8.12A18.54,18.54,0,0,1,275.9,173q-1.86,1.92-1.86,2.25a25.47,25.47,0,0,0,2.14,2.3,24.57,24.57,0,0,1,4.06,5.22,16.93,16.93,0,0,1,2.14,8.29m-21.25.61q0-5.32-8.89-8c-1.94-.62-3-.93-3.13-.93q-1.92,0-3.74,3.07a10.1,10.1,0,0,0-1.7,4.94,7.41,7.41,0,0,0,2.8,6,9.44,9.44,0,0,0,6.32,2.19q8.34,0,8.34-7.24m5.33-31.52a5.44,5.44,0,0,0-2.53-4.61,8.87,8.87,0,0,0-5.21-1.6q-7.7,0-7.69,6.48,0,4.29,9.83,7a4.44,4.44,0,0,0,1,.16c1.21,0,2.3-.95,3.29-2.85a10.07,10.07,0,0,0,1.32-4.56" fill="#c14343"/><path d="M282.38,191.06q0,10-7.9,15.65-7,4.95-17.52,4.94-12.13,0-19.22-5.21-8.13-5.88-8.13-17.52a14.2,14.2,0,0,1,2.15-7.41,22.86,22.86,0,0,1,4-4.83l2.09-2c0-.4-.57-1.21-1.71-2.42a18.19,18.19,0,0,1-3.23-4.12,14.62,14.62,0,0,1-1.76-7.24q0-9.88,8.18-15,6.87-4.27,17.35-4.28a29.39,29.39,0,0,1,16.2,4.72q8.46,5.43,8.46,13.84a17.16,17.16,0,0,1-1.93,8.12A18.54,18.54,0,0,1,275.9,173q-1.86,1.92-1.86,2.25a25.47,25.47,0,0,0,2.14,2.3,24.57,24.57,0,0,1,4.06,5.22A16.93,16.93,0,0,1,282.38,191.06Zm-21.25.61q0-5.32-8.89-8c-1.94-.62-3-.93-3.13-.93q-1.92,0-3.74,3.07a10.1,10.1,0,0,0-1.7,4.94,7.41,7.41,0,0,0,2.8,6,9.44,9.44,0,0,0,6.32,2.19Q261.13,198.91,261.13,191.67Zm5.33-31.52a5.44,5.44,0,0,0-2.53-4.61,8.87,8.87,0,0,0-5.21-1.6q-7.7,0-7.69,6.48,0,4.29,9.83,7a4.44,4.44,0,0,0,1,.16c1.21,0,2.3-.95,3.29-2.85A10.07,10.07,0,0,0,266.46,160.15Z" fill="none" stroke="#000" stroke-miterlimit="10"/></g></g></g></g></svg>