<svg id="Layer_1" data-name="Layer 1" xmlns="http://www.w3.org/2000/svg" xmlns:xlink="http://www.w3.org/1999/xlink" viewBox="0 0 512 512"><defs><clipPath id="clip-path"><rect x="83.2" y="77.8" width="345.61" height="356.4" fill="none"/></clipPath><clipPath id="clip-path-2"><polygon points="202.09 326.66 168.79 224.17 255.97 160.83 343.14 224.17 309.85 326.66 202.09 326.66" fill="none"/></clipPath><linearGradient id="linear-gradient" x1="-2251.56" y1="-4341.08" x2="-2250.56" y2="-4341.08" gradientTransform="matrix(0, -398.95, -398.95, 0, -1731612.76, -897807.84)" gradientUnits="userSpaceOnUse"><stop offset="0" stop-color="#cb9b51"/><stop offset="0.25" stop-color="#f6e27a"/><stop offset="0.5" stop-color="#f6f2c0"/><stop offset="0.75" stop-color="#f6e27a"/><stop offset="1" stop-color="#cb9b51"/></linearGradient><clipPath id="clip-path-3"><polygon points="155.64 393.13 201.76 329.7 310.17 329.7 356.3 393.13 255.97 432.59 155.64 393.13" fill="none"/></clipPath><linearGradient id="linear-gradient-2" x1="-2220.33" y1="-4344.64" x2="-2219.33" y2="-4344.64" gradientTransform="translate(-1075172.41 549853.14) rotate(90) scale(247.53)" gradientUnits="userSpaceOnUse"><stop offset="0" stop-color="#cb9b51"/><stop offset="0.2" stop-color="#cb9b51"/><stop offset="0.4" stop-color="#f6e27a"/><stop offset="0.42" stop-color="#f6e483"/><stop offset="0.46" stop-color="#f6ea9b"/><stop offset="0.5" stop-color="#f6f2c0"/><stop offset="0.6" stop-color="#f6e27a"/><stop offset="0.8" stop-color="#cb9b51"/><stop offset="1" stop-color="#cb9b51"/></linearGradient><clipPath id="clip-path-4"><polygon points="84.73 308.14 91.26 200.53 165.83 224.79 199.33 327.9 153.26 391.36 84.73 308.14" fill="none"/></clipPath><linearGradient id="linear-gradient-3" x1="-2242.57" y1="-4356.5" x2="-2241.57" y2="-4356.5" gradientTransform="translate(-554841.48 -1078069.44) rotate(180) scale(247.53)" xlink:href="#linear-gradient-2"/><clipPath id="clip-path-5"><polygon points="312.67 327.91 346.17 224.8 420.74 200.54 427.27 308.15 358.74 391.38 312.67 327.91" fill="none"/></clipPath><linearGradient id="linear-gradient-4" x1="-2224.72" y1="-4350.7" x2="-2223.72" y2="-4350.7" gradientTransform="matrix(0, 247.53, 247.53, 0, 1077303.32, 550863.07)" xlink:href="#linear-gradient-2"/><clipPath id="clip-path-6"><polygon points="257.51 158.16 257.48 79.74 361.85 106.79 419.82 197.68 345.22 221.89 257.51 158.16" fill="none"/></clipPath><linearGradient id="linear-gradient-5" x1="-2249.67" y1="-4316.31" x2="-2248.67" y2="-4316.31" gradientTransform="translate(557074.6 1068573.37) scale(247.53)" xlink:href="#linear-gradient-2"/><clipPath id="clip-path-7"><polygon points="92.17 197.74 150.14 106.84 254.5 79.79 254.47 158.22 166.76 221.94 92.17 197.74" fill="none"/></clipPath><linearGradient id="linear-gradient-6" x1="-2260.71" y1="-4331.49" x2="-2259.71" y2="-4331.49" gradientTransform="matrix(0, -247.53, -247.53, 0, -1072003.28, -559313.62)" xlink:href="#linear-gradient-2"/><clipPath id="clip-path-8"><rect x="226.59" y="220.3" width="58.82" height="71.4" fill="none"/></clipPath></defs><title>9d12</title><g id="D12"><g id="D12-2" data-name="D12"><g clip-path="url(#clip-path)"><g clip-path="url(#clip-path-2)"><rect x="168.79" y="160.83" width="174.36" height="165.83" fill="url(#linear-gradient)"/></g><path d="M256,162.69l85.41,62.06L308.76,325.16H203.18L170.55,224.75Zm0-3.71L167,223.6l34,104.56H310.94l34-104.56Z" fill="#0b0b0b"/><g clip-path="url(#clip-path-3)"><rect x="155.64" y="329.7" width="200.66" height="102.89" fill="url(#linear-gradient-2)"/></g><path d="M158,392.44l44.53-61.24H309.41l44.53,61.24L256,431Zm43-64.24-47.72,65.61L256,434.2l102.68-40.39L310.94,328.2Z" fill="#0b0b0b"/><g clip-path="url(#clip-path-4)"><rect x="58.05" y="187.49" width="167.97" height="216.91" transform="translate(-84.5 58.37) rotate(-18)" fill="url(#linear-gradient-3)"/></g><path d="M86.26,307.64l6.38-105.09,72,23.43,33,101.65-44.48,61.28Zm-3.06,1,70.14,85.17L201,328.16,167,223.6,89.88,198.5Z" fill="#0b0b0b"/><g clip-path="url(#clip-path-5)"><rect x="261.51" y="211.98" width="216.91" height="167.96" transform="translate(-25.83 556.36) rotate(-72)" fill="url(#linear-gradient-4)"/></g><path d="M314.33,327.65l33-101.66,72-23.42,6.38,105.08-66.93,81.28Zm30.65-104L311,328.17l47.66,65.66,70.14-85.18-6.68-110.14Z" fill="#0b0b0b"/><g clip-path="url(#clip-path-6)"><rect x="233.44" y="43.37" width="210.42" height="214.88" transform="translate(17.59 336.14) rotate(-54)" fill="url(#linear-gradient-5)"/></g><path d="M259,157.4l0-75.72L360.9,108.09l56.61,88.77-72,23.36Zm-3-79.6,0,81.13L345,223.55l77.17-25-59.34-93Z" fill="#0b0b0b"/><g clip-path="url(#clip-path-7)"><rect x="65.89" y="45.66" width="214.88" height="210.42" transform="translate(-55.57 130.7) rotate(-36)" fill="url(#linear-gradient-6)"/></g><path d="M94.47,196.91l56.62-88.77L253,81.73l0,75.72L166.5,220.28Zm54.72-91.37-59.33,93,77.17,25L256,159l0-81.13ZM256,77.85h0Z" fill="#0b0b0b"/></g></g><g id="_9" data-name="9"><g clip-path="url(#clip-path-8)"><g clip-path="url(#clip-path-8)"><path d="M284.91,251.83q0,18-13.4,29Q259,291.21,240.6,291.2c-.74,0-1.3-.5-1.71-1.48Q235,280.17,235,277.31c0-1.18.86-1.76,2.58-1.76q17.56,0,22.79-9a4.22,4.22,0,0,0,.71-1.75.29.29,0,0,0-.33-.33,4.32,4.32,0,0,0-1.26.44A24.66,24.66,0,0,1,249.05,267q-9.6,0-15.7-5.71-6.25-5.77-6.26-15.32,0-12.42,8.29-19.06,7.58-6.15,20.26-6.15,13.68,0,21.64,8.79,7.64,8.46,7.63,22.24m-20.59-5.27a11.1,11.1,0,0,0-2.36-7.14,8.12,8.12,0,0,0-6.65-3.24q-9.1,0-9.11,9.55a9.09,9.09,0,0,0,2.47,6.51,8.31,8.31,0,0,0,6.31,2.61,10.09,10.09,0,0,0,6.54-2.14,7.67,7.67,0,0,0,2.8-6.15" fill="#c14343"/><path d="M284.91,251.83q0,18-13.4,29Q259,291.21,240.6,291.2c-.74,0-1.3-.5-1.71-1.48Q235,280.17,235,277.31c0-1.18.86-1.76,2.58-1.76q17.56,0,22.79-9a4.22,4.22,0,0,0,.71-1.75.29.29,0,0,0-.33-.33,4.32,4.32,0,0,0-1.26.44A24.66,24.66,0,0,1,249.05,267q-9.6,0-15.7-5.71-6.25-5.77-6.26-15.32,0-12.42,8.29-19.06,7.58-6.15,20.26-6.15,13.68,0,21.64,8.79Q284.92,238.05,284.91,251.83Zm-20.59-5.27a11.1,11.1,0,0,0-2.36-7.14,8.12,8.12,0,0,0-6.65-3.24q-9.1,0-9.11,9.55a9.09,9.09,0,0,0,2.47,6.51,8.31,8.31,0,0,0,6.31,2.61,10.09,10.09,0,0,0,6.54-2.14A7.67,7.67,0,0,0,264.32,246.56Z" fill="none" stroke="#000" stroke-miterlimit="10"/></g></g></g></g></svg>