<svg id="Layer_1" data-name="Layer 1" xmlns="http://www.w3.org/2000/svg" xmlns:xlink="http://www.w3.org/1999/xlink" viewBox="0 0 512 512"><defs><style>.cls-1{fill:url(#linear-gradient);}.cls-2{fill:url(#linear-gradient-2);}.cls-3{fill:url(#linear-gradient-3);}.cls-4{fill:url(#New_Gradient_Swatch_4);}.cls-5{fill:url(#New_Gradient_Swatch_4-2);}.cls-6{fill:#c14343;stroke:#000;stroke-miterlimit:10;}</style><linearGradient id="linear-gradient" x1="138.86" y1="162.31" x2="373.14" y2="162.31" gradientUnits="userSpaceOnUse"><stop offset="0.1" stop-color="#f6e27a"/><stop offset="0.34" stop-color="#f6eba3"/><stop offset="0.5" stop-color="#f6f2c0"/><stop offset="0.68" stop-color="#f6eba2"/><stop offset="0.9" stop-color="#f6e27a"/></linearGradient><linearGradient id="linear-gradient-2" x1="436.84" y1="146.3" x2="261.2" y2="82.26" gradientTransform="matrix(0.5, -0.87, 0.87, 0.5, 65.58, 412.29)" gradientUnits="userSpaceOnUse"><stop offset="0.2" stop-color="#cb9b51"/><stop offset="0.29" stop-color="#deba63"/><stop offset="0.4" stop-color="#f6e27a"/><stop offset="0.46" stop-color="#f6eba3"/><stop offset="0.5" stop-color="#f6f2c0"/><stop offset="0.55" stop-color="#f6eba2"/><stop offset="0.6" stop-color="#f6e27a"/><stop offset="0.8" stop-color="#cb9b51"/></linearGradient><linearGradient id="linear-gradient-3" x1="531.9" y1="311.15" x2="356.25" y2="247.11" gradientTransform="matrix(-0.5, -0.87, -0.87, 0.5, 636.71, 412.29)" gradientUnits="userSpaceOnUse"><stop offset="0.1" stop-color="#cb9b51"/><stop offset="0.19" stop-color="#deba63"/><stop offset="0.3" stop-color="#f6e27a"/><stop offset="0.42" stop-color="#f6eba3"/><stop offset="0.5" stop-color="#f6f2c0"/><stop offset="0.59" stop-color="#f6eba2"/><stop offset="0.7" stop-color="#f6e27a"/><stop offset="0.9" stop-color="#cb9b51"/></linearGradient><linearGradient id="New_Gradient_Swatch_4" x1="128.98" y1="412.38" x2="245.86" y2="273.09" gradientUnits="userSpaceOnUse"><stop offset="0.1" stop-color="#cb9b51"/><stop offset="0.3" stop-color="#f6e27a"/><stop offset="0.5" stop-color="#f6f2c0"/><stop offset="0.7" stop-color="#f6e27a"/><stop offset="0.9" stop-color="#cb9b51"/></linearGradient><linearGradient id="New_Gradient_Swatch_4-2" x1="-61.13" y1="412.38" x2="55.75" y2="273.09" gradientTransform="matrix(-1, 0, 0, 1, 321.86, 0)" xlink:href="#New_Gradient_Swatch_4"/></defs><title>d10_4</title><polygon class="cls-1" points="138.86 236.37 255.95 33.81 373.14 236.37 255.95 290.81 138.86 236.37"/><path d="M256,35.81,371.72,235.92,256,289.71,140.28,235.92,256,35.81m0-4-118.5,205L256,291.91l118.6-55.1L256,31.81Z"/><polygon class="cls-2" points="375.11 235.91 263.48 42.85 442.81 267.32 375.11 235.91"/><path d="M271,53.88,439.37,264.63l-63.56-29.49L271,53.88M256,31.81,374.4,236.69,446.24,270,256,31.81Z"/><polygon class="cls-3" points="248.52 42.85 136.89 235.91 69.19 267.32 248.52 42.85"/><path d="M241,53.88,136.19,235.14,72.63,264.63,241,53.88m15.07-22.07L65.76,270l71.84-33.33L256.05,31.81Z"/><polygon class="cls-4" points="67.41 270.35 137.5 237.79 255 292.43 255 477.59 67.41 270.35"/><path d="M137.5,238.89,254,293.06V475L69.07,270.69l68.43-31.8m0-2.2L65.76,270,256,480.19V291.79l-118.5-55.1Z"/><polygon class="cls-5" points="256.98 292.43 374.48 237.79 444.56 270.35 256.98 477.59 256.98 292.43"/><path d="M374.48,238.89l68.43,31.8L258,475V293.06l116.5-54.17m0-2.2L256,291.79v188.4L446.21,270l-71.73-33.33Z"/><path class="cls-6" d="M284.91,194.1c0,.55-.46.91-1.37,1.1a12.45,12.45,0,0,1-2.75.05c-1.64-.11-2.34-.16-2.08-.16a1.9,1.9,0,0,0-2.15,2.14c0,.88.06,2.2.17,4s.16,3.1.16,4c0,1.28-.56,1.92-1.7,1.92q-18.94,0-19.93-.46c-.66-.32-1-.71-1-1.19a28.2,28.2,0,0,1,.69-4.06,26.26,26.26,0,0,0,.68-4.72c0-1.21-.67-1.81-2-1.81q-3.68,0-11,.22c-4.89.14-8.56.22-11,.22-2.93,0-4.39-1.16-4.39-3.46q0-1.75-.06-5.25c0-2.32,0-4.07,0-5.24a5.25,5.25,0,0,1,1.7-3.46,145.92,145.92,0,0,0,11.7-13.73q1.75-2.47,11.91-19.27a76.76,76.76,0,0,1,4.29-6.92,2.15,2.15,0,0,1,1.64-.93c.88,0,3.6.65,8.16,2s7.66,2,9.31,2c1.17,0,1.75.75,1.75,2.25a61.63,61.63,0,0,1-.49,6.45,62.78,62.78,0,0,0-.5,6.51v23.12a33.38,33.38,0,0,0,3.63-.33,27.11,27.11,0,0,1,3.57-.33c.69,0,1,.42,1,1.26s-.05,1.92-.14,3.46-.13,2.71-.13,3.52.06,2,.19,3.59S284.91,193.29,284.91,194.1Zm-27.13-34.71c0-.22-.12-.32-.38-.32s-.66.23-1,.71q-3.51,5.66-7,11.31a62.56,62.56,0,0,1-8.23,10.49q3,0,15.37-.77.11-2.19.77-10.82Q257.78,163.18,257.78,159.39Z"/></svg>