<svg id="Layer_1" data-name="Layer 1" xmlns="http://www.w3.org/2000/svg" xmlns:xlink="http://www.w3.org/1999/xlink" viewBox="0 0 512 512"><defs><style>.cls-1{fill:url(#linear-gradient);}.cls-2{fill:url(#linear-gradient-2);}.cls-3{fill:url(#linear-gradient-3);}.cls-4{fill:url(#New_Gradient_Swatch_4);}.cls-5{fill:url(#New_Gradient_Swatch_4-2);}.cls-6{fill:#c14343;stroke:#000;stroke-miterlimit:10;}</style><linearGradient id="linear-gradient" x1="138.86" y1="162.31" x2="373.14" y2="162.31" gradientUnits="userSpaceOnUse"><stop offset="0.1" stop-color="#f6e27a"/><stop offset="0.34" stop-color="#f6eba3"/><stop offset="0.5" stop-color="#f6f2c0"/><stop offset="0.68" stop-color="#f6eba2"/><stop offset="0.9" stop-color="#f6e27a"/></linearGradient><linearGradient id="linear-gradient-2" x1="436.84" y1="146.3" x2="261.2" y2="82.26" gradientTransform="matrix(0.5, -0.87, 0.87, 0.5, 65.58, 412.29)" gradientUnits="userSpaceOnUse"><stop offset="0.2" stop-color="#cb9b51"/><stop offset="0.29" stop-color="#deba63"/><stop offset="0.4" stop-color="#f6e27a"/><stop offset="0.46" stop-color="#f6eba3"/><stop offset="0.5" stop-color="#f6f2c0"/><stop offset="0.55" stop-color="#f6eba2"/><stop offset="0.6" stop-color="#f6e27a"/><stop offset="0.8" stop-color="#cb9b51"/></linearGradient><linearGradient id="linear-gradient-3" x1="531.9" y1="311.15" x2="356.25" y2="247.11" gradientTransform="matrix(-0.5, -0.87, -0.87, 0.5, 636.71, 412.29)" gradientUnits="userSpaceOnUse"><stop offset="0.1" stop-color="#cb9b51"/><stop offset="0.19" stop-color="#deba63"/><stop offset="0.3" stop-color="#f6e27a"/><stop offset="0.42" stop-color="#f6eba3"/><stop offset="0.5" stop-color="#f6f2c0"/><stop offset="0.59" stop-color="#f6eba2"/><stop offset="0.7" stop-color="#f6e27a"/><stop offset="0.9" stop-color="#cb9b51"/></linearGradient><linearGradient id="New_Gradient_Swatch_4" x1="128.98" y1="412.38" x2="245.86" y2="273.09" gradientUnits="userSpaceOnUse"><stop offset="0.1" stop-color="#cb9b51"/><stop offset="0.3" stop-color="#f6e27a"/><stop offset="0.5" stop-color="#f6f2c0"/><stop offset="0.7" stop-color="#f6e27a"/><stop offset="0.9" stop-color="#cb9b51"/></linearGradient><linearGradient id="New_Gradient_Swatch_4-2" x1="-61.13" y1="412.38" x2="55.75" y2="273.09" gradientTransform="matrix(-1, 0, 0, 1, 321.86, 0)" xlink:href="#New_Gradient_Swatch_4"/></defs><title>d10_3</title><polygon class="cls-1" points="138.86 236.37 255.95 33.81 373.14 236.37 255.95 290.81 138.86 236.37"/><path d="M256,35.81,371.72,235.92,256,289.71,140.28,235.92,256,35.81m0-4-118.5,205L256,291.91l118.6-55.1L256,31.81Z"/><polygon class="cls-2" points="375.11 235.91 263.48 42.85 442.81 267.32 375.11 235.91"/><path d="M271,53.88,439.37,264.63l-63.56-29.49L271,53.88M256,31.81,374.4,236.69,446.24,270,256,31.81Z"/><polygon class="cls-3" points="248.52 42.85 136.89 235.91 69.19 267.32 248.52 42.85"/><path d="M241,53.88,136.19,235.14,72.63,264.63,241,53.88m15.07-22.07L65.76,270l71.84-33.33L256.05,31.81Z"/><polygon class="cls-4" points="67.41 270.35 137.5 237.79 255 292.43 255 477.59 67.41 270.35"/><path d="M137.5,238.89,254,293.06V475L69.07,270.69l68.43-31.8m0-2.2L65.76,270,256,480.19V291.79l-118.5-55.1Z"/><polygon class="cls-5" points="256.98 292.43 374.48 237.79 444.56 270.35 256.98 477.59 256.98 292.43"/><path d="M374.48,238.89l68.43,31.8L258,475V293.06l116.5-54.17m0-2.2L256,291.79v188.4L446.21,270l-71.73-33.33Z"/><path class="cls-6" d="M281.7,186.41a17.62,17.62,0,0,1-8.4,15.65q-7.14,4.73-17.85,4.72a65.77,65.77,0,0,1-13.56-1.15q-11.59-2.41-11.59-4.28a3.75,3.75,0,0,1,.22-1q.76-2,2.25-6.1.45-2,1.54-6a1.74,1.74,0,0,1,1.65-1.37q-.17,0,4.91,1.81a26,26,0,0,0,8.32,1.81q10.77,0,10.76-7.19,0-5.76-10.21-5.76c-.91,0-2.12,0-3.62.11s-2.49.1-3,.1c-2.23,0-3.46,0-3.68,0-1.61-.18-2.41-.81-2.41-1.87q0-8.4.65-10.54a1.74,1.74,0,0,1,1.76-1.37,47.24,47.24,0,0,1,5.52.46,45.75,45.75,0,0,0,5.46.47,5.33,5.33,0,0,0,3.93-1.56,5.43,5.43,0,0,0,1.57-4q0-6.47-9.45-6.47A37.78,37.78,0,0,0,235.79,155a3.13,3.13,0,0,1-.49.05c-.48,0-.88-.51-1.21-1.54-.07-1.53-.18-3.29-.33-5.27,0-.44-.15-1.32-.33-2.63a20.9,20.9,0,0,1-.22-2.58q0-2.91,9-4.51a69,69,0,0,1,12-1.09,31.84,31.84,0,0,1,16.37,4.11q8.5,4.95,8.51,13.68,0,10.05-9.12,15.26a17,17,0,0,1,8.54,6.1A16.17,16.17,0,0,1,281.7,186.41Z"/></svg>