<?xml version="1.0" encoding="utf-8"?>
<!-- Generator: Adobe Illustrator 23.0.2, SVG Export Plug-In . SVG Version: 6.00 Build 0)  -->
<svg version="1.1" id="Layer_1" xmlns="http://www.w3.org/2000/svg" xmlns:xlink="http://www.w3.org/1999/xlink" x="0px" y="0px"
	 viewBox="0 0 512 512" style="enable-background:new 0 0 512 512;" xml:space="preserve">
<style type="text/css">
	.st0{fill:#C6C6C6;}
</style>
<polygon points="450.2,181.4 379.7,84.3 265.6,47.3 265.6,140 362,210 "/>
<path class="st0" d="M358.7,152.9c-0.6,2.4-1.6,4.6-3,6.6c-2.8,3.9-7.1,6.4-11.9,6.9c-5,0.6-10.3-1.1-15.7-5.1
	c-5.5-4-8.7-8.5-9.6-13.4c-1-4.7,0.1-9.6,2.9-13.4c1.5-1.9,3.3-3.6,5.4-4.9c2.3-1.5,5.3-2,9-1.6c-1.6-3.2-2.2-6.9-1.7-10.4
	c0.5-3.6,1.9-6.9,4-9.8c3.2-4.5,8.2-7.4,13.7-8c5.8-0.7,11.7,1.1,17.8,5.6c6.1,4.5,9.5,9.4,10.3,15c0.8,5.4-0.5,10.9-3.8,15.2
	c-2.1,2.9-4.9,5.3-8.1,6.8c-3.2,1.5-6.7,1.9-10.2,1.2C359.1,147.2,359.4,150.3,358.7,152.9L358.7,152.9z"/>
<path d="M348,144.7c0.3,2.2-0.3,4.4-1.7,6.2c-3.1,3.8-8.7,4.5-12.5,1.4c-1.6-1.3-2.7-3.1-3.2-5.1c-0.2-2.3,0.4-4.6,1.9-6.4
	c1.2-1.9,3.1-3.1,5.3-3.6c2.3-0.3,4.7,0.3,6.5,1.8C346.3,140.3,347.6,142.3,348,144.7L348,144.7z"/>
<path d="M357.5,132.9c-5.4,0.5-10.3-3.1-11.5-8.3c-0.4-2.5,0.5-5.1,2.5-7.9c1.5-2.4,3.9-4.1,6.7-4.8c5.4-0.5,10.4,3.1,11.5,8.4
	c0.2,2.8-0.7,5.6-2.5,7.8c-2,2.8-4.2,4.4-6.7,4.8L357.5,132.9z"/>
<polygon points="246.6,140 246.6,47.3 132.5,84.3 62,181.4 150.2,210 "/>
<path class="st0" d="M133.9,118.2l37.9-26.5c2.6,3.8,4.3,8.1,5.1,12.7c1,4.8,0.1,11.2-2.8,19.4c-1.8,4.7-3.3,9.6-4.3,14.5
	c-0.7,3.6,0.1,7.3,2.2,10.3c1.4,2.2,3.5,3.8,6,4.5c2.5,0.6,5.1,0,7.2-1.6c3.3-2.3,4.7-5.1,4.2-8.4c-0.7-2.8-1.9-5.3-3.6-7.6
	l10.6-7.4c3.1,4.8,4.9,9.2,5.4,13.2c1,7.6-2.3,13.9-9.7,19.1c-5.9,4.1-11.7,5.7-17.4,4.9c-5.7-0.8-10.5-3.9-14.2-9.2
	c-2.8-3.9-4.2-8.7-4-13.5c0.4-4.3,1.5-8.6,3.1-12.6l2.2-6.1c1.4-3.8,2.3-6.5,2.7-8.1c0.4-1.6,0.5-3.2,0.4-4.8l-24.2,16.9
	L133.9,118.2z"/>
<polygon points="198.6,333.6 313.6,333.6 349.1,224.2 256.1,156.6 163.1,224.2 "/>
<path class="st0" d="M287.9,238.5c-1.7-1.9-4.2-3-6.8-2.8c-4,0-6.8,1.5-8.2,4.5c-1,2.7-1.5,5.5-1.5,8.3h-12.9
	c0.2-5.7,1.3-10.4,3.1-13.9c3.5-6.7,9.8-10.1,18.9-10.1c7.2,0,12.8,2,17.1,6c4.2,4,6.3,9.2,6.2,15.6c0.1,4.8-1.5,9.5-4.5,13.3
	c-2.8,3.3-6,6.2-9.7,8.6l-5.3,3.8c-3.3,2.4-5.6,4.1-6.8,5.1c-1.2,1.1-2.3,2.3-3.1,3.7h29.5v11.7h-46.2c0.1-4.6,1.1-9.1,3.1-13.3
	c1.9-4.5,6.4-9.3,13.4-14.3c4.2-2.8,8.2-6,11.9-9.4c2.6-2.6,4.1-6,4.1-9.7C290.4,243,289.5,240.5,287.9,238.5L287.9,238.5z"/>
<path class="st0" d="M208.2,236.7c2.9-0.1,5.9-0.3,8.8-0.8c2.5-0.5,4.8-1.7,6.5-3.6c1.2-1.4,2.1-3,2.6-4.8c0.3-0.9,0.5-1.8,0.5-2.7
	h11.1v67.5h-13.6v-46.6h-15.9L208.2,236.7L208.2,236.7z"/>
<polygon points="196.5,352.7 142,427.7 256.1,464.7 370.1,427.7 315.7,352.7 "/>
<path class="st0" d="M273.7,436.5c-3.8,4.8-9.6,7.2-17.5,7.2c-8.5,0-14.8-3.6-18.8-10.7c-3.1-5.6-4.7-12.7-4.7-21.5
	c-0.1-4.2,0.2-8.4,0.7-12.6c0.6-5,2.1-9.9,4.5-14.3c1.9-3.2,4.5-5.9,7.6-7.9c3.4-2.1,7.3-3.1,11.2-3c6.3,0,11.3,1.6,15,4.8
	c3.7,3.3,6,7.9,6.3,12.8h-13.2c-0.1-1.3-0.5-2.5-1.3-3.6c-1.4-2.1-3.9-3.3-6.5-3.2c-4.3,0-7.4,2.4-9.2,7.3
	c-1.2,3.8-1.9,7.8-2.1,11.8c1.5-1.9,3.5-3.3,5.7-4.3c7.7-2.9,16.4-1,22.2,4.8c3.9,4.2,6,9.9,5.7,15.6
	C279.5,425.9,277.5,431.7,273.7,436.5L273.7,436.5z"/>
<path d="M263,411.9c1.9,2.1,2.9,5.1,2.9,9.1c0.1,3.1-0.8,6.1-2.5,8.6c-1.6,2.2-4.2,3.4-7,3.3c-2.9,0.1-5.6-1.2-7.5-3.4
	c-2-2.5-3-5.7-2.9-8.9c0-4.5,1.3-7.8,3.9-9.8c1.7-1.3,3.8-2.1,6-2C258.7,408.7,261.3,409.8,263,411.9L263,411.9z"/>
<polygon points="367.8,228.1 331,341.4 385.5,416.4 456,319.4 456,199.5 "/>
<polygon class="st0" points="433.9,315.1 420,310.9 412.3,336.5 401.2,333.2 369,297.7 373.3,283.4 413.7,295.4 415.9,288.1 
	425.9,291.1 423.7,298.4 437.6,302.6 "/>
<polygon points="382.2,299.7 410,308 405.3,324.2 "/>
<polygon points="144.2,228.1 56,199.5 56,319.4 126.5,416.4 181,341.4 "/>
<path d="M72.5,286.2l44.4-14l-4.8-15.1l8.6-2.7c0.9,2.8,2.1,5.5,3.4,8.1c1.2,2.2,3.1,4,5.3,5.1c1.7,0.8,3.5,1.1,5.4,1
	c0.9,0,1.8-0.1,2.7-0.3l3.3,10.6l-64.4,20.3L72.5,286.2z"/>
<path class="st0" d="M81.8,324.9l0.5-14.4l44.4-14l-4.8-15.1l8.6-2.7c0.9,2.8,2.1,5.5,3.4,8.1c1.2,2.2,3.1,4,5.3,5.1
	c1.7,0.8,3.5,1.1,5.4,1c0.9,0,1.8-0.1,2.7-0.3l-1.2,12L81.8,324.9z"/>
</svg>
