<svg id="Layer_1" data-name="Layer 1" xmlns="http://www.w3.org/2000/svg" xmlns:xlink="http://www.w3.org/1999/xlink" viewBox="0 0 512 512"><defs><style>.cls-1{fill:url(#linear-gradient);}.cls-2{fill:#0b0b0b;}.cls-3{fill:url(#New_Gradient_Swatch_3);}.cls-4{fill:url(#New_Gradient_Swatch_3-2);}.cls-5{fill:url(#New_Gradient_Swatch_3-3);}.cls-6{fill:url(#New_Gradient_Swatch_3-4);}.cls-7{fill:url(#New_Gradient_Swatch_3-5);}.cls-8{fill:#c14343;stroke:#000;stroke-miterlimit:10;}</style><linearGradient id="linear-gradient" x1="255.97" y1="449" x2="255.97" y2="50.05" gradientUnits="userSpaceOnUse"><stop offset="0" stop-color="#cb9b51"/><stop offset="0.25" stop-color="#f6e27a"/><stop offset="0.5" stop-color="#f6f2c0"/><stop offset="0.75" stop-color="#f6e27a"/><stop offset="1" stop-color="#cb9b51"/></linearGradient><linearGradient id="New_Gradient_Swatch_3" x1="255.97" y1="344.07" x2="255.97" y2="96.54" gradientTransform="matrix(1, 0, 0, -1, 0, 597.86)" gradientUnits="userSpaceOnUse"><stop offset="0.2" stop-color="#cb9b51"/><stop offset="0.4" stop-color="#f6e27a"/><stop offset="0.42" stop-color="#f6e483"/><stop offset="0.46" stop-color="#f6ea9b"/><stop offset="0.5" stop-color="#f6f2c0"/><stop offset="0.6" stop-color="#f6e27a"/><stop offset="0.8" stop-color="#cb9b51"/></linearGradient><linearGradient id="New_Gradient_Swatch_3-2" x1="65.38" y1="471.24" x2="65.38" y2="223.71" gradientTransform="matrix(0.31, 0.95, 0.95, -0.31, -213.61, 336.33)" xlink:href="#New_Gradient_Swatch_3"/><linearGradient id="New_Gradient_Swatch_3-3" x1="-4.99" y1="254.07" x2="-4.99" y2="6.54" gradientTransform="translate(497.32 336.16) rotate(108)" xlink:href="#New_Gradient_Swatch_3"/><linearGradient id="New_Gradient_Swatch_3-4" x1="184.02" y1="230.12" x2="184.02" y2="-17.41" gradientTransform="matrix(-0.81, -0.59, -0.59, 0.81, 540.89, 173.42)" xlink:href="#New_Gradient_Swatch_3"/><linearGradient id="New_Gradient_Swatch_3-5" x1="49.26" y1="132.61" x2="49.26" y2="-114.92" gradientTransform="translate(137.43 173.16) rotate(-36)" xlink:href="#New_Gradient_Swatch_3"/></defs><title>d12_4</title><polygon class="cls-1" points="202.09 326.66 168.79 224.17 255.97 160.83 343.14 224.17 309.85 326.66 202.09 326.66"/><path class="cls-2" d="M256,162.69l85.41,62.06L308.76,325.16H203.18L170.55,224.75,256,162.69m0-3.71L167,223.6l34,104.56H310.94l34-104.56L256,159Z"/><polygon class="cls-3" points="155.64 393.13 201.76 329.7 310.17 329.7 356.3 393.13 255.97 432.59 155.64 393.13"/><path class="cls-2" d="M202.52,331.2H309.41l44.53,61.24L256,431l-98-38.54,44.53-61.24m-1.52-3-47.72,65.61L256,434.2l102.68-40.39L310.94,328.2Z"/><polygon class="cls-4" points="84.73 308.14 91.26 200.53 165.83 224.79 199.33 327.9 153.26 391.36 84.73 308.14"/><path class="cls-2" d="M92.64,202.55l72,23.43,33,101.65-44.48,61.28L86.26,307.64l6.38-105.09m-2.76-4.05L83.2,308.64l70.14,85.17L201,328.16,167,223.6,89.88,198.5Z"/><polygon class="cls-5" points="312.67 327.91 346.17 224.8 420.74 200.54 427.27 308.15 358.74 391.38 312.67 327.91"/><path class="cls-2" d="M419.36,202.56l6.38,105.09-66.93,81.28-44.48-61.28,33-101.66,72-23.43m2.76-4.05L345,223.61,311,328.17l47.66,65.66,70.14-85.18-6.68-110.14Z"/><polygon class="cls-6" points="257.52 158.16 257.48 79.74 361.85 106.79 419.82 197.68 345.22 221.89 257.52 158.16"/><path class="cls-2" d="M259,81.68,360.9,108.09l56.61,88.76-72,23.37L259,157.4l0-75.72m-3-3.88,0,81.13L345,223.55l77.17-25-59.34-93L256,77.8Z"/><polygon class="cls-7" points="92.17 197.74 150.14 106.84 254.5 79.79 254.47 158.22 166.76 221.94 92.17 197.74"/><path class="cls-2" d="M253,81.73l0,75.72L166.5,220.28l-72-23.37,56.62-88.77L253,81.73m3-3.88h0Zm0,0L149.19,105.54l-59.33,93,77.17,25L256,159l0-81.13Z"/><path class="cls-8" d="M284.88,278c0,.55-.46.91-1.38,1.1a12.36,12.36,0,0,1-2.74.05c-1.65-.11-2.35-.16-2.09-.16a1.89,1.89,0,0,0-2.14,2.14c0,.88.05,2.21.16,4s.17,3.1.17,4c0,1.28-.57,1.92-1.7,1.92q-18.95,0-19.94-.46c-.65-.31-1-.71-1-1.18a27.41,27.41,0,0,1,.68-4.07,25.6,25.6,0,0,0,.69-4.72c0-1.21-.68-1.81-2-1.81q-3.69,0-11,.22c-4.89.14-8.56.22-11,.22-2.93,0-4.4-1.16-4.4-3.46,0-1.17,0-2.92,0-5.25s-.06-4.07-.06-5.24a5.22,5.22,0,0,1,1.71-3.46,145.51,145.51,0,0,0,11.69-13.73q1.76-2.46,11.92-19.27a80.08,80.08,0,0,1,4.28-6.92,2.16,2.16,0,0,1,1.65-.93q1.32,0,8.15,2t9.31,2c1.17,0,1.76.75,1.76,2.25a62.28,62.28,0,0,1-.5,6.45,62.15,62.15,0,0,0-.49,6.51v23.12a33.46,33.46,0,0,0,3.62-.33,27.11,27.11,0,0,1,3.57-.33q1,0,1,1.26c0,.77,0,1.92-.14,3.46s-.14,2.71-.14,3.52.07,2,.19,3.59S284.88,277.21,284.88,278Zm-27.13-34.7c0-.22-.13-.33-.38-.33s-.66.23-1,.71q-3.52,5.66-7,11.31a62.56,62.56,0,0,1-8.24,10.49q3,0,15.38-.77.11-2.19.77-10.82Q257.76,247.1,257.75,243.32Z"/></svg>