<svg id="Layer_1" data-name="Layer 1" xmlns="http://www.w3.org/2000/svg" xmlns:xlink="http://www.w3.org/1999/xlink" viewBox="0 0 512 512"><defs><style>.cls-1{fill:url(#linear-gradient);}.cls-2{fill:#0b0b0b;}.cls-3{fill:url(#New_Gradient_Swatch_3);}.cls-4{fill:url(#New_Gradient_Swatch_3-2);}.cls-5{fill:url(#New_Gradient_Swatch_3-3);}.cls-6{fill:url(#New_Gradient_Swatch_3-4);}.cls-7{fill:url(#New_Gradient_Swatch_3-5);}.cls-8{fill:#c14343;stroke:#000;stroke-miterlimit:10;}</style><linearGradient id="linear-gradient" x1="255.97" y1="449" x2="255.97" y2="50.05" gradientUnits="userSpaceOnUse"><stop offset="0" stop-color="#cb9b51"/><stop offset="0.25" stop-color="#f6e27a"/><stop offset="0.5" stop-color="#f6f2c0"/><stop offset="0.75" stop-color="#f6e27a"/><stop offset="1" stop-color="#cb9b51"/></linearGradient><linearGradient id="New_Gradient_Swatch_3" x1="255.97" y1="344.07" x2="255.97" y2="96.54" gradientTransform="matrix(1, 0, 0, -1, 0, 597.86)" gradientUnits="userSpaceOnUse"><stop offset="0.2" stop-color="#cb9b51"/><stop offset="0.4" stop-color="#f6e27a"/><stop offset="0.42" stop-color="#f6e483"/><stop offset="0.46" stop-color="#f6ea9b"/><stop offset="0.5" stop-color="#f6f2c0"/><stop offset="0.6" stop-color="#f6e27a"/><stop offset="0.8" stop-color="#cb9b51"/></linearGradient><linearGradient id="New_Gradient_Swatch_3-2" x1="65.38" y1="471.24" x2="65.38" y2="223.71" gradientTransform="matrix(0.31, 0.95, 0.95, -0.31, -213.61, 336.33)" xlink:href="#New_Gradient_Swatch_3"/><linearGradient id="New_Gradient_Swatch_3-3" x1="-4.99" y1="254.07" x2="-4.99" y2="6.54" gradientTransform="translate(497.32 336.16) rotate(108)" xlink:href="#New_Gradient_Swatch_3"/><linearGradient id="New_Gradient_Swatch_3-4" x1="184.02" y1="230.12" x2="184.02" y2="-17.41" gradientTransform="matrix(-0.81, -0.59, -0.59, 0.81, 540.89, 173.42)" xlink:href="#New_Gradient_Swatch_3"/><linearGradient id="New_Gradient_Swatch_3-5" x1="49.26" y1="132.61" x2="49.26" y2="-114.92" gradientTransform="translate(137.43 173.16) rotate(-36)" xlink:href="#New_Gradient_Swatch_3"/></defs><title>d12_10</title><polygon class="cls-1" points="202.09 326.66 168.79 224.17 255.97 160.83 343.14 224.17 309.85 326.66 202.09 326.66"/><path class="cls-2" d="M256,162.69l85.41,62.06L308.76,325.16H203.18L170.55,224.75,256,162.69m0-3.71L167,223.6l34,104.56H310.94l34-104.56L256,159Z"/><polygon class="cls-3" points="155.64 393.13 201.76 329.7 310.17 329.7 356.3 393.13 255.97 432.59 155.64 393.13"/><path class="cls-2" d="M202.52,331.2H309.41l44.53,61.24L256,431l-98-38.54,44.53-61.24m-1.52-3-47.72,65.61L256,434.2l102.68-40.39L310.94,328.2Z"/><polygon class="cls-4" points="84.73 308.14 91.26 200.53 165.83 224.79 199.33 327.9 153.26 391.36 84.73 308.14"/><path class="cls-2" d="M92.64,202.55l72,23.43,33,101.65-44.48,61.28L86.26,307.64l6.38-105.09m-2.76-4.05L83.2,308.64l70.14,85.17L201,328.16,167,223.6,89.88,198.5Z"/><polygon class="cls-5" points="312.67 327.91 346.17 224.8 420.74 200.54 427.27 308.15 358.74 391.38 312.67 327.91"/><path class="cls-2" d="M419.36,202.56l6.38,105.09-66.93,81.28-44.48-61.28,33-101.66,72-23.43m2.76-4.05L345,223.61,311,328.17l47.66,65.66,70.14-85.18-6.68-110.14Z"/><polygon class="cls-6" points="257.52 158.16 257.48 79.74 361.85 106.79 419.82 197.68 345.22 221.89 257.52 158.16"/><path class="cls-2" d="M259,81.68,360.9,108.09l56.61,88.76-72,23.37L259,157.4l0-75.72m-3-3.88,0,81.13L345,223.55l77.17-25-59.34-93L256,77.8Z"/><polygon class="cls-7" points="92.17 197.74 150.14 106.84 254.5 79.79 254.47 158.22 166.76 221.94 92.17 197.74"/><path class="cls-2" d="M253,81.73l0,75.72L166.5,220.28l-72-23.37,56.62-88.77L253,81.73m3-3.88h0Zm0,0L149.19,105.54l-59.33,93,77.17,25L256,159l0-81.13Z"/><path class="cls-8" d="M233.29,287a2.6,2.6,0,0,1-.94,1.92,2.89,2.89,0,0,1-2,.88c-1.76,0-4.39,0-7.91.05s-6.15.06-7.9.06c-1.36,0-2-.59-2-1.76l.06-.6q.76-21,.76-25.43V245.81c0-1-.23-1.53-.71-1.53a13,13,0,0,0-3.32.66,13.37,13.37,0,0,1-3.38.65c-1.13,0-1.7-.67-1.7-2s0-3.11-.06-5.6-.05-4.37-.05-5.65c0-.74.46-1.29,1.37-1.65a31.62,31.62,0,0,0,12.69-9c.62-.77,1.15-1.15,1.59-1.15a6.67,6.67,0,0,1,.66.11q2.09.44,6.2,1.37,2.21.28,6.43,1a1.1,1.1,0,0,1,.77,1.21,11.08,11.08,0,0,1-.11,1.15q-.61,4.83-.61,23.67,0,6.31.08,19T233.29,287Z"/><path class="cls-8" d="M307.8,256.63A35,35,0,0,1,298.63,281a31.53,31.53,0,0,1-47.06,0,36.63,36.63,0,0,1,0-48.6,31.8,31.8,0,0,1,47,0A34.75,34.75,0,0,1,307.8,256.63Zm-20.37,0a15.37,15.37,0,0,0-3.3-9.83,11.54,11.54,0,0,0-18.17-.05,15.35,15.35,0,0,0-3.24,9.88,15.87,15.87,0,0,0,3.24,9.94,11.2,11.2,0,0,0,18.12-.11A15.52,15.52,0,0,0,287.43,256.63Z"/></svg>