<?xml version="1.0" encoding="utf-8"?>
<!-- Generator: Adobe Illustrator 23.0.2, SVG Export Plug-In . SVG Version: 6.00 Build 0)  -->
<svg version="1.1" id="Layer_1" xmlns="http://www.w3.org/2000/svg" xmlns:xlink="http://www.w3.org/1999/xlink" x="0px" y="0px"
	 viewBox="0 0 512 512" style="enable-background:new 0 0 512 512;" xml:space="preserve">
<style type="text/css">
	.st0{fill:#C6C6C6;}
</style>
<g>
	<polygon points="487,456 25,456 256,56 	"/>
</g>
<path class="st0" d="M128.3,401.2l41.2-22.9l-6.7-12.1l-59.7,33.3l5.5,9.8c0.8-0.4,1.7-0.7,2.6-0.9c1.8-0.5,3.7-0.5,5.6-0.1
	c2.5,0.7,4.7,2.1,6.3,4c1.9,2.3,3.6,4.8,5.1,7.4l8-4.5L128.3,401.2z"/>
<path class="st0" d="M404.7,408.7c4.5-8,4.8-15.2,0.6-21.7c-2.2-3.4-5.7-6.7-10.7-9.7l-6.5,11.3c2.5,1.4,4.7,3.3,6.5,5.5
	c1.9,2.8,1.9,6-0.2,9.5c-1.2,2.4-3.3,4-5.9,4.6c-2.6,0.4-5.2-0.1-7.5-1.5c-3.2-1.9-5.5-4.9-6.4-8.5c-1.2-5-1.9-10.1-2.3-15.2
	c-0.9-8.7-2.8-15.1-5.8-19c-2.6-3.8-6.1-7-10.1-9.4l-23.3,40.7l10.3,5.9l14.8-25.9c0.8,1.4,1.4,3,1.7,4.6c0.3,1.6,0.7,4.5,1.1,8.6
	l0.6,6.6c0.3,4.4,1.2,8.7,2.7,12.8c1.9,4.5,5.2,8.3,9.5,10.6c5.7,3.3,11.4,4.1,17,2.3C396.5,419,401.1,415,404.7,408.7L404.7,408.7z
	"/>
<polygon class="st0" points="273.1,196.2 265.3,196.2 265.3,153.5 250.2,153.5 225.1,195 225.1,206.8 252.2,206.8 252.2,221.5 
	265.3,221.5 265.3,206.8 273.1,206.8 273.1,196.3 "/>
<polygon points="235.1,196.2 252.2,166.8 252.2,196.2 "/>
</svg>
