<svg id="Layer_1" data-name="Layer 1" xmlns="http://www.w3.org/2000/svg" xmlns:xlink="http://www.w3.org/1999/xlink" viewBox="0 0 512 512"><defs><style>.cls-1{stroke:#0b0b0b;stroke-linecap:round;stroke-linejoin:round;stroke-width:3px;fill:url(#New_Gradient_Swatch_5);}.cls-2{fill:none;}.cls-3{fill:#c14343;stroke:#000;stroke-miterlimit:10;}</style><linearGradient id="New_Gradient_Swatch_5" x1="256" y1="92.94" x2="256" y2="419.06" gradientUnits="userSpaceOnUse"><stop offset="0.2" stop-color="#f6e27a"/><stop offset="0.38" stop-color="#f6eba3"/><stop offset="0.5" stop-color="#f6f2c0"/><stop offset="0.59" stop-color="#f6eba2"/><stop offset="0.7" stop-color="#f6e27a"/><stop offset="0.9" stop-color="#cb9b51"/></linearGradient></defs><title>d4_1</title><polygon class="cls-1" points="459.82 419.06 52.18 419.06 256 92.94 459.82 419.06"/><rect class="cls-2" x="52.5" y="52.5" width="407" height="407"/><path class="cls-3" d="M270.3,287.79a2.63,2.63,0,0,1-.93,1.93,2.92,2.92,0,0,1-2,.87c-1.76,0-4.39,0-7.91.06s-6.15.05-7.91.05c-1.35,0-2-.58-2-1.75l0-.61q.78-21,.77-25.42V246.61c0-1-.24-1.54-.71-1.54a13,13,0,0,0-3.32.66,13.11,13.11,0,0,1-3.38.66c-1.14,0-1.7-.68-1.7-2s0-3.11-.06-5.6,0-4.38,0-5.66c0-.73.45-1.28,1.37-1.65a31.5,31.5,0,0,0,12.68-9c.63-.77,1.16-1.15,1.6-1.15a4.44,4.44,0,0,1,.66.11c1.39.29,3.45.75,6.2,1.37,1.46.18,3.61.51,6.42,1,.52.14.77.55.77,1.21a9,9,0,0,1-.11,1.15q-.6,4.83-.6,23.67,0,6.31.08,19T270.3,287.79Z"/></svg>