<svg id="Layer_1" data-name="Layer 1" xmlns="http://www.w3.org/2000/svg" xmlns:xlink="http://www.w3.org/1999/xlink" viewBox="0 0 512 512"><defs><style>.cls-1{stroke:#0b0b0b;stroke-linecap:round;stroke-linejoin:round;stroke-width:3px;fill:url(#New_Gradient_Swatch_5);}.cls-2{fill:none;}.cls-3{fill:#c14343;stroke:#000;stroke-miterlimit:10;}</style><linearGradient id="New_Gradient_Swatch_5" x1="256" y1="92.94" x2="256" y2="419.06" gradientUnits="userSpaceOnUse"><stop offset="0.2" stop-color="#f6e27a"/><stop offset="0.38" stop-color="#f6eba3"/><stop offset="0.5" stop-color="#f6f2c0"/><stop offset="0.59" stop-color="#f6eba2"/><stop offset="0.7" stop-color="#f6e27a"/><stop offset="0.9" stop-color="#cb9b51"/></linearGradient></defs><title>d4_2</title><polygon class="cls-1" points="459.82 419.06 52.18 419.06 256 92.94 459.82 419.06"/><rect class="cls-2" x="52.5" y="52.5" width="407" height="407"/><path class="cls-3" d="M284,274.15c0,.84-.09,2.1-.27,3.79s-.27,3-.27,3.84,0,2.26-.06,4.15,0,3.28,0,4.2-.61,1.37-1.82,1.37a46.49,46.49,0,0,1-5.16-1q-5-1.11-18.67-1.1-4.23,0-12.68.47t-12.58.46a1.42,1.42,0,0,1-1.59-1.37c-.11-1.25-.38-3.09-.82-5.55a53.39,53.39,0,0,1-1.38-6.42q0-1.21,4.62-1.81,5.37-.72,6.92-2a88.76,88.76,0,0,0,11.36-11.81q7.41-9,7.42-13.5a8.7,8.7,0,0,0-2.83-6.57,9.51,9.51,0,0,0-6.73-2.66,23.1,23.1,0,0,0-8.73,1.76,31.72,31.72,0,0,0-6.1,3.18,17,17,0,0,1-3,1.7c-1.24,0-1.87-1.46-1.87-4.39a31.88,31.88,0,0,0-.27-4.94,27.27,27.27,0,0,0-.83-3,10.13,10.13,0,0,1-.65-2.85,1.78,1.78,0,0,1,.93-1.37,35.53,35.53,0,0,1,12.19-5.11A56.1,56.1,0,0,1,254.35,222q10.44,0,17.46,4.62a17.21,17.21,0,0,1,8.3,15.32q0,13.23-20.05,30.91,14.22-.72,22.3-.71C283.46,272.12,284,272.79,284,274.15Z"/></svg>