<svg id="Layer_1" data-name="Layer 1" xmlns="http://www.w3.org/2000/svg" xmlns:xlink="http://www.w3.org/1999/xlink" viewBox="0 0 512 512"><defs><style>.cls-1{stroke:#0b0b0b;stroke-linecap:round;stroke-linejoin:round;stroke-width:3px;fill:url(#New_Gradient_Swatch_5);}.cls-2{fill:none;}.cls-3{fill:#c14343;stroke:#000;stroke-miterlimit:10;}</style><linearGradient id="New_Gradient_Swatch_5" x1="256" y1="92.94" x2="256" y2="419.06" gradientUnits="userSpaceOnUse"><stop offset="0.2" stop-color="#f6e27a"/><stop offset="0.38" stop-color="#f6eba3"/><stop offset="0.5" stop-color="#f6f2c0"/><stop offset="0.59" stop-color="#f6eba2"/><stop offset="0.7" stop-color="#f6e27a"/><stop offset="0.9" stop-color="#cb9b51"/></linearGradient></defs><title>d4_3</title><polygon class="cls-1" points="459.82 419.06 52.18 419.06 256 92.94 459.82 419.06"/><rect class="cls-2" x="52.5" y="52.5" width="407" height="407"/><path class="cls-3" d="M281.7,270.33A17.62,17.62,0,0,1,273.3,286q-7.14,4.72-17.85,4.72a65.77,65.77,0,0,1-13.56-1.15q-11.59-2.42-11.59-4.28a3.75,3.75,0,0,1,.22-1c.51-1.35,1.26-3.39,2.25-6.1q.45-2,1.54-6a1.74,1.74,0,0,1,1.65-1.37c-.11,0,1.53.61,4.91,1.81a26,26,0,0,0,8.32,1.82q10.77,0,10.76-7.2,0-5.76-10.21-5.76c-.91,0-2.12,0-3.62.11s-2.49.11-3,.11c-2.23,0-3.46,0-3.68-.06-1.61-.18-2.41-.8-2.41-1.87q0-8.4.65-10.54a1.74,1.74,0,0,1,1.76-1.37,47.24,47.24,0,0,1,5.52.46,45.75,45.75,0,0,0,5.46.47,5.33,5.33,0,0,0,3.93-1.56,5.42,5.42,0,0,0,1.57-4q0-6.48-9.45-6.48a37.78,37.78,0,0,0-10.71,2.14,3.13,3.13,0,0,1-.49,0c-.48,0-.88-.51-1.21-1.53q-.1-2.31-.33-5.28c0-.44-.15-1.31-.33-2.63a20.9,20.9,0,0,1-.22-2.58q0-2.91,9-4.51a69,69,0,0,1,12-1.09,31.84,31.84,0,0,1,16.37,4.11q8.5,5,8.51,13.68,0,10-9.12,15.26a17,17,0,0,1,8.54,6.1A16.17,16.17,0,0,1,281.7,270.33Z"/></svg>