<svg id="Layer_1" data-name="Layer 1" xmlns="http://www.w3.org/2000/svg" xmlns:xlink="http://www.w3.org/1999/xlink" viewBox="0 0 512 512"><defs><style>.cls-1{stroke:#0b0b0b;stroke-linecap:round;stroke-linejoin:round;stroke-width:3px;fill:url(#New_Gradient_Swatch_5);}.cls-2{fill:none;}.cls-3{fill:#c14343;stroke:#000;stroke-miterlimit:10;}</style><linearGradient id="New_Gradient_Swatch_5" x1="256" y1="92.94" x2="256" y2="419.06" gradientUnits="userSpaceOnUse"><stop offset="0.2" stop-color="#f6e27a"/><stop offset="0.38" stop-color="#f6eba3"/><stop offset="0.5" stop-color="#f6f2c0"/><stop offset="0.59" stop-color="#f6eba2"/><stop offset="0.7" stop-color="#f6e27a"/><stop offset="0.9" stop-color="#cb9b51"/></linearGradient></defs><title>d4_4</title><polygon class="cls-1" points="459.82 419.06 52.18 419.06 256 92.94 459.82 419.06"/><rect class="cls-2" x="52.5" y="52.5" width="407" height="407"/><path class="cls-3" d="M284.91,278c0,.55-.46.91-1.37,1.1a12.45,12.45,0,0,1-2.75.05c-1.64-.11-2.34-.16-2.08-.16a1.9,1.9,0,0,0-2.15,2.14c0,.88.06,2.21.17,4s.16,3.1.16,4c0,1.28-.56,1.92-1.7,1.92q-18.94,0-19.93-.46c-.66-.31-1-.71-1-1.18a28,28,0,0,1,.69-4.07,26.26,26.26,0,0,0,.68-4.72c0-1.21-.67-1.81-2-1.81q-3.68,0-11,.22c-4.89.14-8.56.22-11,.22-2.93,0-4.39-1.16-4.39-3.46q0-1.75-.06-5.25c0-2.32,0-4.07,0-5.24a5.25,5.25,0,0,1,1.7-3.46,145.92,145.92,0,0,0,11.7-13.73q1.75-2.46,11.91-19.27a78.2,78.2,0,0,1,4.29-6.92,2.15,2.15,0,0,1,1.64-.93q1.32,0,8.16,2t9.31,2c1.17,0,1.75.75,1.75,2.25a61.63,61.63,0,0,1-.49,6.45,62.78,62.78,0,0,0-.5,6.51v23.12a33.38,33.38,0,0,0,3.63-.33,27.11,27.11,0,0,1,3.57-.33c.69,0,1,.42,1,1.26s-.05,1.92-.14,3.46-.13,2.71-.13,3.52.06,2,.19,3.59S284.91,277.21,284.91,278Zm-27.13-34.7c0-.22-.12-.33-.38-.33s-.66.23-1,.71q-3.51,5.66-7,11.31a62.56,62.56,0,0,1-8.23,10.49q3,0,15.37-.77.11-2.19.77-10.82Q257.78,247.1,257.78,243.32Z"/></svg>