<svg id="Layer_1" data-name="Layer 1" xmlns="http://www.w3.org/2000/svg" xmlns:xlink="http://www.w3.org/1999/xlink" viewBox="0 0 512 512"><defs><style>.cls-1{fill:#fff;}.cls-2,.cls-3{stroke:#000;}.cls-2{stroke-linecap:round;stroke-linejoin:round;stroke-width:3px;fill:url(#New_Gradient_Swatch_5);}.cls-3{fill:#c14343;stroke-miterlimit:10;}</style><linearGradient id="New_Gradient_Swatch_5" x1="256" y1="-20.34" x2="256" y2="532.39" gradientUnits="userSpaceOnUse"><stop offset="0.2" stop-color="#f6e27a"/><stop offset="0.38" stop-color="#f6eba3"/><stop offset="0.5" stop-color="#f6f2c0"/><stop offset="0.59" stop-color="#f6eba2"/><stop offset="0.7" stop-color="#f6e27a"/><stop offset="0.9" stop-color="#cb9b51"/></linearGradient></defs><title>d6_1</title><path class="cls-1" d="M285.71,272.57q0,11.74-9.71,18.09-8.26,5.46-20.63,5.46a76,76,0,0,1-15.68-1.34q-13.4-2.79-13.4-4.95a4.1,4.1,0,0,1,.26-1.14q.88-2.34,2.6-7.05.51-2.34,1.78-7a2,2,0,0,1,1.9-1.58c-.13,0,1.77.69,5.68,2.09a30,30,0,0,0,9.62,2.09q12.44,0,12.44-8.31,0-6.66-11.81-6.67c-1,0-2.45.05-4.19.13s-2.87.13-3.42.13c-2.59,0-4,0-4.26-.07-1.86-.21-2.79-.93-2.79-2.15q0-9.72.76-12.19a2,2,0,0,1,2-1.59,54.74,54.74,0,0,1,6.38.54,54.8,54.8,0,0,0,6.32.54,6.15,6.15,0,0,0,4.54-1.81,6.25,6.25,0,0,0,1.81-4.6q0-7.49-10.92-7.49-4.58,0-12.38,2.48a3.07,3.07,0,0,1-.57.06c-.55,0-1-.59-1.4-1.78q-.12-2.67-.38-6.09c0-.51-.17-1.53-.38-3a22.6,22.6,0,0,1-.25-3q0-3.36,10.41-5.21a80.28,80.28,0,0,1,13.9-1.27,36.74,36.74,0,0,1,18.91,4.76q9.84,5.72,9.84,15.81,0,11.61-10.53,17.65a19.74,19.74,0,0,1,9.87,7A18.77,18.77,0,0,1,285.71,272.57Z"/><rect class="cls-2" x="111" y="111" width="290" height="290"/><path class="cls-3" d="M270.3,287.79a2.63,2.63,0,0,1-.93,1.93,2.92,2.92,0,0,1-2,.87c-1.76,0-4.39,0-7.91.06s-6.15.05-7.91.05c-1.35,0-2-.58-2-1.75l0-.61q.78-21,.77-25.42V246.61c0-1-.24-1.54-.71-1.54a13,13,0,0,0-3.32.66,13.11,13.11,0,0,1-3.38.66c-1.14,0-1.7-.68-1.7-2s0-3.11-.06-5.6,0-4.38,0-5.66c0-.73.45-1.28,1.37-1.65a31.5,31.5,0,0,0,12.68-9c.63-.77,1.16-1.15,1.6-1.15a4.44,4.44,0,0,1,.66.11c1.39.29,3.45.75,6.2,1.37,1.46.18,3.61.51,6.42,1,.52.14.77.55.77,1.21a9,9,0,0,1-.11,1.15q-.6,4.83-.6,23.67,0,6.31.08,19T270.3,287.79Z"/></svg>