<svg id="Layer_1" data-name="Layer 1" xmlns="http://www.w3.org/2000/svg" xmlns:xlink="http://www.w3.org/1999/xlink" viewBox="0 0 512 512"><defs><style>.cls-1{fill:#fff;}.cls-2,.cls-3{stroke:#000;}.cls-2{stroke-linecap:round;stroke-linejoin:round;stroke-width:3px;fill:url(#New_Gradient_Swatch_5);}.cls-3{fill:#c14343;stroke-miterlimit:10;}</style><linearGradient id="New_Gradient_Swatch_5" x1="256" y1="-20.34" x2="256" y2="532.39" gradientUnits="userSpaceOnUse"><stop offset="0.2" stop-color="#f6e27a"/><stop offset="0.38" stop-color="#f6eba3"/><stop offset="0.5" stop-color="#f6f2c0"/><stop offset="0.59" stop-color="#f6eba2"/><stop offset="0.7" stop-color="#f6e27a"/><stop offset="0.9" stop-color="#cb9b51"/></linearGradient></defs><title>d6_5</title><path class="cls-1" d="M285.71,272.57q0,11.74-9.71,18.09-8.26,5.46-20.63,5.46a76,76,0,0,1-15.68-1.34q-13.4-2.79-13.4-4.95a4.1,4.1,0,0,1,.26-1.14q.88-2.34,2.6-7.05.51-2.34,1.78-7a2,2,0,0,1,1.9-1.58c-.13,0,1.77.69,5.68,2.09a30,30,0,0,0,9.62,2.09q12.44,0,12.44-8.31,0-6.66-11.81-6.67c-1,0-2.45.05-4.19.13s-2.87.13-3.42.13c-2.59,0-4,0-4.26-.07-1.86-.21-2.79-.93-2.79-2.15q0-9.72.76-12.19a2,2,0,0,1,2-1.59,54.74,54.74,0,0,1,6.38.54,54.8,54.8,0,0,0,6.32.54,6.15,6.15,0,0,0,4.54-1.81,6.25,6.25,0,0,0,1.81-4.6q0-7.49-10.92-7.49-4.58,0-12.38,2.48a3.07,3.07,0,0,1-.57.06c-.55,0-1-.59-1.4-1.78q-.12-2.67-.38-6.09c0-.51-.17-1.53-.38-3a22.6,22.6,0,0,1-.25-3q0-3.36,10.41-5.21a80.28,80.28,0,0,1,13.9-1.27,36.74,36.74,0,0,1,18.91,4.76q9.84,5.72,9.84,15.81,0,11.61-10.53,17.65a19.74,19.74,0,0,1,9.87,7A18.77,18.77,0,0,1,285.71,272.57Z"/><rect class="cls-2" x="111" y="111" width="290" height="290"/><path class="cls-3" d="M282.14,266q0,24.56-30.26,24.55a98.7,98.7,0,0,1-11.75-.93q-9.56-1.22-10-2.91a27.72,27.72,0,0,1-.22-4.89,45.08,45.08,0,0,1,.55-6.15c.48-3.3,1-4.94,1.65-4.94a2.56,2.56,0,0,1,.93.33,33.17,33.17,0,0,0,15,3.29q12.14,0,12.14-7.91,0-4.33-4.45-6.53a18.15,18.15,0,0,0-8.29-1.76,54.76,54.76,0,0,0-6.07.5,54.2,54.2,0,0,1-6.07.49c-1.28,0-1.92-.59-1.92-1.76q0-5.26.47-16.09t.47-16.09a3.76,3.76,0,0,1,.79-2.16,3.09,3.09,0,0,1,1.79-1.35q1.2-.23,15.26-.22,16,0,21.47.11c1,0,1.48.46,1.48,1.26a77.26,77.26,0,0,1-.65,8.57q-.82,7-2,7l-.61-.05q-12.4-1.09-15.48-1.1-6,0-6.48.66-.93,1.65-.93,6.2a1.88,1.88,0,0,0,.27,1.1c.91,0,2.36-.09,4.34-.27s3.31-.28,4.34-.28q10.22,0,17,5.44Q282.14,255.89,282.14,266Z"/></svg>