<svg id="Layer_1" data-name="Layer 1" xmlns="http://www.w3.org/2000/svg" xmlns:xlink="http://www.w3.org/1999/xlink" viewBox="0 0 512 512"><defs><style>.cls-1{fill:url(#linear-gradient);}.cls-2{fill:#0b0b0b;}.cls-3{fill:url(#New_Gradient_Swatch_5);}.cls-4{fill:#c14343;stroke:#000;stroke-miterlimit:10;}</style><linearGradient id="linear-gradient" x1="256.46" y1="34.36" x2="255.54" y2="475.68" gradientUnits="userSpaceOnUse"><stop offset="0.3" stop-color="#f6e27a"/><stop offset="0.42" stop-color="#f6eba3"/><stop offset="0.5" stop-color="#f6f2c0"/><stop offset="0.59" stop-color="#f6eba2"/><stop offset="0.7" stop-color="#f6e27a"/><stop offset="0.9" stop-color="#cb9b51"/></linearGradient><linearGradient id="New_Gradient_Swatch_5" x1="256" y1="38.27" x2="256" y2="478.93" gradientUnits="userSpaceOnUse"><stop offset="0.2" stop-color="#f6e27a"/><stop offset="0.38" stop-color="#f6eba3"/><stop offset="0.5" stop-color="#f6f2c0"/><stop offset="0.59" stop-color="#f6eba2"/><stop offset="0.7" stop-color="#f6e27a"/><stop offset="0.9" stop-color="#cb9b51"/></linearGradient></defs><title>d8_2</title><polygon class="cls-1" points="95.26 254.5 256 34.36 416.74 254.5 95.26 254.5"/><path class="cls-2" d="M256,36.9,413.78,253H98.22L256,36.9m0-5.09L92.31,256H419.69L256,31.81Z"/><polygon class="cls-3" points="95.26 257.5 416.74 257.5 256 477.64 95.26 257.5"/><path class="cls-2" d="M413.78,259,256,475.1,98.22,259H413.78m5.91-3H92.31L256,480.19,419.69,256Z"/><path class="cls-4" d="M284,176.22q0,1.26-.27,3.78c-.18,1.69-.27,3-.27,3.85s0,2.26-.06,4.14,0,3.29,0,4.21-.61,1.37-1.82,1.37a45.22,45.22,0,0,1-5.16-1q-5-1.1-18.67-1.09-4.23,0-12.68.46t-12.58.47a1.42,1.42,0,0,1-1.59-1.37q-.16-1.87-.82-5.55a53.39,53.39,0,0,1-1.38-6.42c0-.81,1.54-1.41,4.62-1.82q5.37-.7,6.92-2a88.76,88.76,0,0,0,11.36-11.81q7.41-9,7.42-13.51a8.68,8.68,0,0,0-2.83-6.56,9.51,9.51,0,0,0-6.73-2.66,22.91,22.91,0,0,0-8.73,1.76,31.72,31.72,0,0,0-6.1,3.18,17,17,0,0,1-3,1.7c-1.24,0-1.87-1.46-1.87-4.39a31.8,31.8,0,0,0-.27-4.94,26.64,26.64,0,0,0-.83-3,10.13,10.13,0,0,1-.65-2.85,1.79,1.79,0,0,1,.93-1.38,35.73,35.73,0,0,1,12.19-5.1,56.1,56.1,0,0,1,13.23-1.65q10.44,0,17.46,4.61a17.23,17.23,0,0,1,8.3,15.32q0,13.25-20.05,30.92,14.22-.72,22.3-.72C283.46,174.18,284,174.86,284,176.22Z"/></svg>