<svg id="Layer_1" data-name="Layer 1" xmlns="http://www.w3.org/2000/svg" xmlns:xlink="http://www.w3.org/1999/xlink" viewBox="0 0 512 512"><defs><style>.cls-1{fill:url(#linear-gradient);}.cls-2{fill:#0b0b0b;}.cls-3{fill:url(#New_Gradient_Swatch_5);}.cls-4{fill:#c14343;stroke:#000;stroke-miterlimit:10;}</style><linearGradient id="linear-gradient" x1="256.46" y1="34.36" x2="255.54" y2="475.68" gradientUnits="userSpaceOnUse"><stop offset="0.3" stop-color="#f6e27a"/><stop offset="0.42" stop-color="#f6eba3"/><stop offset="0.5" stop-color="#f6f2c0"/><stop offset="0.59" stop-color="#f6eba2"/><stop offset="0.7" stop-color="#f6e27a"/><stop offset="0.9" stop-color="#cb9b51"/></linearGradient><linearGradient id="New_Gradient_Swatch_5" x1="256" y1="38.27" x2="256" y2="478.93" gradientUnits="userSpaceOnUse"><stop offset="0.2" stop-color="#f6e27a"/><stop offset="0.38" stop-color="#f6eba3"/><stop offset="0.5" stop-color="#f6f2c0"/><stop offset="0.59" stop-color="#f6eba2"/><stop offset="0.7" stop-color="#f6e27a"/><stop offset="0.9" stop-color="#cb9b51"/></linearGradient></defs><title>d8_3</title><polygon class="cls-1" points="95.26 254.5 256 34.36 416.74 254.5 95.26 254.5"/><path class="cls-2" d="M256,36.9,413.78,253H98.22L256,36.9m0-5.09L92.31,256H419.69L256,31.81Z"/><polygon class="cls-3" points="95.26 257.5 416.74 257.5 256 477.64 95.26 257.5"/><path class="cls-2" d="M413.78,259,256,475.1,98.22,259H413.78m5.91-3H92.31L256,480.19,419.69,256Z"/><path class="cls-4" d="M281.7,172.4a17.62,17.62,0,0,1-8.4,15.65q-7.14,4.72-17.85,4.72a65.77,65.77,0,0,1-13.56-1.15q-11.59-2.42-11.59-4.28a3.75,3.75,0,0,1,.22-1q.76-2,2.25-6.1c.3-1.35.81-3.37,1.54-6a1.74,1.74,0,0,1,1.65-1.37q-.17,0,4.91,1.81a26,26,0,0,0,8.32,1.81q10.77,0,10.76-7.19,0-5.76-10.21-5.77c-.91,0-2.12,0-3.62.11s-2.49.11-3,.11c-2.23,0-3.46,0-3.68-.05-1.61-.18-2.41-.81-2.41-1.87q0-8.4.65-10.54a1.73,1.73,0,0,1,1.76-1.37,47.24,47.24,0,0,1,5.52.46,48,48,0,0,0,5.46.47,5.3,5.3,0,0,0,3.93-1.57,5.4,5.4,0,0,0,1.57-4q0-6.48-9.45-6.48a37.86,37.86,0,0,0-10.71,2.15,3.13,3.13,0,0,1-.49.05c-.48,0-.88-.51-1.21-1.54-.07-1.53-.18-3.29-.33-5.27,0-.44-.15-1.32-.33-2.63a21.21,21.21,0,0,1-.22-2.58q0-2.91,9-4.51a69.07,69.07,0,0,1,12-1.1,31.84,31.84,0,0,1,16.37,4.12q8.5,5,8.51,13.68,0,10-9.12,15.26a17,17,0,0,1,8.54,6.1A16.17,16.17,0,0,1,281.7,172.4Z"/></svg>