<svg id="Layer_1" data-name="Layer 1" xmlns="http://www.w3.org/2000/svg" xmlns:xlink="http://www.w3.org/1999/xlink" viewBox="0 0 512 512"><defs><style>.cls-1{fill:url(#linear-gradient);}.cls-2{fill:#0b0b0b;}.cls-3{fill:url(#New_Gradient_Swatch_5);}.cls-4{fill:#c14343;stroke:#000;stroke-miterlimit:10;}</style><linearGradient id="linear-gradient" x1="256.46" y1="34.36" x2="255.54" y2="475.68" gradientUnits="userSpaceOnUse"><stop offset="0.3" stop-color="#f6e27a"/><stop offset="0.42" stop-color="#f6eba3"/><stop offset="0.5" stop-color="#f6f2c0"/><stop offset="0.59" stop-color="#f6eba2"/><stop offset="0.7" stop-color="#f6e27a"/><stop offset="0.9" stop-color="#cb9b51"/></linearGradient><linearGradient id="New_Gradient_Swatch_5" x1="256" y1="38.27" x2="256" y2="478.93" gradientUnits="userSpaceOnUse"><stop offset="0.2" stop-color="#f6e27a"/><stop offset="0.38" stop-color="#f6eba3"/><stop offset="0.5" stop-color="#f6f2c0"/><stop offset="0.59" stop-color="#f6eba2"/><stop offset="0.7" stop-color="#f6e27a"/><stop offset="0.9" stop-color="#cb9b51"/></linearGradient></defs><title>d8_4</title><polygon class="cls-1" points="95.26 254.5 256 34.36 416.74 254.5 95.26 254.5"/><path class="cls-2" d="M256,36.9,413.78,253H98.22L256,36.9m0-5.09L92.31,256H419.69L256,31.81Z"/><polygon class="cls-3" points="95.26 257.5 416.74 257.5 256 477.64 95.26 257.5"/><path class="cls-2" d="M413.78,259,256,475.1,98.22,259H413.78m5.91-3H92.31L256,480.19,419.69,256Z"/><path class="cls-4" d="M284.91,180.09c0,.55-.46.91-1.37,1.1a13.11,13.11,0,0,1-2.75.05c-1.64-.11-2.34-.16-2.08-.16a1.9,1.9,0,0,0-2.15,2.14c0,.88.06,2.2.17,4s.16,3.1.16,4c0,1.28-.56,1.92-1.7,1.92q-18.94,0-19.93-.47c-.66-.31-1-.7-1-1.18a28,28,0,0,1,.69-4.06,26.26,26.26,0,0,0,.68-4.72c0-1.21-.67-1.81-2-1.81q-3.68,0-11,.22c-4.89.14-8.56.22-11,.22-2.93,0-4.39-1.16-4.39-3.46,0-1.18,0-2.92-.06-5.25s0-4.07,0-5.24a5.25,5.25,0,0,1,1.7-3.46,145.92,145.92,0,0,0,11.7-13.73q1.75-2.47,11.91-19.27a76.76,76.76,0,0,1,4.29-6.92,2.17,2.17,0,0,1,1.64-.94q1.32,0,8.16,2t9.31,2c1.17,0,1.75.75,1.75,2.25a61.63,61.63,0,0,1-.49,6.45,62.59,62.59,0,0,0-.5,6.51v23.12a33.38,33.38,0,0,0,3.63-.33,27.11,27.11,0,0,1,3.57-.33c.69,0,1,.42,1,1.26s-.05,1.92-.14,3.46-.13,2.71-.13,3.51.06,2,.19,3.6S284.91,179.28,284.91,180.09Zm-27.13-34.71c0-.22-.12-.33-.38-.33s-.66.24-1,.72q-3.51,5.65-7,11.31a62.56,62.56,0,0,1-8.23,10.49q3,0,15.37-.77c.07-1.47.33-5.07.77-10.82Q257.78,149.17,257.78,145.38Z"/></svg>