<svg id="Layer_1" data-name="Layer 1" xmlns="http://www.w3.org/2000/svg" xmlns:xlink="http://www.w3.org/1999/xlink" viewBox="0 0 512 512"><defs><style>.cls-1{fill:url(#linear-gradient);}.cls-2{fill:#0b0b0b;}.cls-3{fill:url(#New_Gradient_Swatch_5);}.cls-4{fill:#c14343;stroke:#000;stroke-miterlimit:10;}</style><linearGradient id="linear-gradient" x1="256.46" y1="34.36" x2="255.54" y2="475.68" gradientUnits="userSpaceOnUse"><stop offset="0.3" stop-color="#f6e27a"/><stop offset="0.42" stop-color="#f6eba3"/><stop offset="0.5" stop-color="#f6f2c0"/><stop offset="0.59" stop-color="#f6eba2"/><stop offset="0.7" stop-color="#f6e27a"/><stop offset="0.9" stop-color="#cb9b51"/></linearGradient><linearGradient id="New_Gradient_Swatch_5" x1="256" y1="38.27" x2="256" y2="478.93" gradientUnits="userSpaceOnUse"><stop offset="0.2" stop-color="#f6e27a"/><stop offset="0.38" stop-color="#f6eba3"/><stop offset="0.5" stop-color="#f6f2c0"/><stop offset="0.59" stop-color="#f6eba2"/><stop offset="0.7" stop-color="#f6e27a"/><stop offset="0.9" stop-color="#cb9b51"/></linearGradient></defs><title>d8_5</title><polygon class="cls-1" points="95.26 254.5 256 34.36 416.74 254.5 95.26 254.5"/><path class="cls-2" d="M256,36.9,413.78,253H98.22L256,36.9m0-5.09L92.31,256H419.69L256,31.81Z"/><polygon class="cls-3" points="95.26 257.5 416.74 257.5 256 477.64 95.26 257.5"/><path class="cls-2" d="M413.78,259,256,475.1,98.22,259H413.78m5.91-3H92.31L256,480.19,419.69,256Z"/><path class="cls-4" d="M282.14,168.06q0,24.56-30.26,24.55a97,97,0,0,1-11.75-.94q-9.56-1.2-10-2.91a27.48,27.48,0,0,1-.22-4.88,45.08,45.08,0,0,1,.55-6.15c.48-3.3,1-4.95,1.65-4.95a2.56,2.56,0,0,1,.93.33,33,33,0,0,0,15,3.3q12.14,0,12.14-7.91,0-4.33-4.45-6.53a18.15,18.15,0,0,0-8.29-1.76,54.2,54.2,0,0,0-6.07.49,54.76,54.76,0,0,1-6.07.5c-1.28,0-1.92-.59-1.92-1.76q0-5.26.47-16.09t.47-16.09a3.79,3.79,0,0,1,.79-2.17,3.07,3.07,0,0,1,1.79-1.34q1.2-.23,15.26-.22,16,0,21.47.11c1,0,1.48.46,1.48,1.26a77.43,77.43,0,0,1-.65,8.57q-.82,7-2,7l-.61-.05q-12.4-1.11-15.48-1.1-6,0-6.48.66c-.62,1.1-.93,3.16-.93,6.2a1.9,1.9,0,0,0,.27,1.1c.91,0,2.36-.09,4.34-.27s3.31-.28,4.34-.28q10.22,0,17,5.44Q282.14,158,282.14,168.06Z"/></svg>