<svg id="Layer_1" data-name="Layer 1" xmlns="http://www.w3.org/2000/svg" xmlns:xlink="http://www.w3.org/1999/xlink" viewBox="0 0 512 512"><defs><style>.cls-1{fill:url(#linear-gradient);}.cls-2{fill:#0b0b0b;}.cls-3{fill:url(#New_Gradient_Swatch_5);}.cls-4{fill:#c14343;stroke:#000;stroke-miterlimit:10;}</style><linearGradient id="linear-gradient" x1="256.46" y1="34.36" x2="255.54" y2="475.68" gradientUnits="userSpaceOnUse"><stop offset="0.3" stop-color="#f6e27a"/><stop offset="0.42" stop-color="#f6eba3"/><stop offset="0.5" stop-color="#f6f2c0"/><stop offset="0.59" stop-color="#f6eba2"/><stop offset="0.7" stop-color="#f6e27a"/><stop offset="0.9" stop-color="#cb9b51"/></linearGradient><linearGradient id="New_Gradient_Swatch_5" x1="256" y1="38.27" x2="256" y2="478.93" gradientUnits="userSpaceOnUse"><stop offset="0.2" stop-color="#f6e27a"/><stop offset="0.38" stop-color="#f6eba3"/><stop offset="0.5" stop-color="#f6f2c0"/><stop offset="0.59" stop-color="#f6eba2"/><stop offset="0.7" stop-color="#f6e27a"/><stop offset="0.9" stop-color="#cb9b51"/></linearGradient></defs><title>d8_6</title><polygon class="cls-1" points="95.26 254.5 256 34.36 416.74 254.5 95.26 254.5"/><path class="cls-2" d="M256,36.9,413.78,253H98.22L256,36.9m0-5.09L92.31,256H419.69L256,31.81Z"/><polygon class="cls-3" points="95.26 257.5 416.74 257.5 256 477.64 95.26 257.5"/><path class="cls-2" d="M413.78,259,256,475.1,98.22,259H413.78m5.91-3H92.31L256,480.19,419.69,256Z"/><path class="cls-4" d="M284.8,167.29q0,12.3-8.13,19.17-7.64,6.48-20.2,6.48-13.52,0-21.53-8.79-7.74-8.46-7.74-22.07a35.55,35.55,0,0,1,13.12-28.34q12.47-10.55,30-10.54c.7,0,1.21.44,1.54,1.32q4.23,10.81,4.23,11.86c0,1.68-.81,2.52-2.42,2.52a41.43,41.43,0,0,0-12,1.65q-7.14,2.08-9.72,6.37a3.34,3.34,0,0,0-.6,1.48.29.29,0,0,0,.33.33,2.83,2.83,0,0,0,.82-.22A25.35,25.35,0,0,1,263,146.37q9.56,0,15.59,5.6Q284.79,157.79,284.8,167.29Zm-18.89.22a8.8,8.8,0,0,0-2.52-6.45,8.61,8.61,0,0,0-6.37-2.55,9.9,9.9,0,0,0-6.87,2.41,8.42,8.42,0,0,0-2.69,6.59,11.08,11.08,0,0,0,2.25,7.25,8.35,8.35,0,0,0,6.87,3,8.74,8.74,0,0,0,7-2.91A11,11,0,0,0,265.91,167.51Z"/></svg>