<svg id="Layer_1" data-name="Layer 1" xmlns="http://www.w3.org/2000/svg" xmlns:xlink="http://www.w3.org/1999/xlink" viewBox="0 0 512 512"><defs><style>.cls-1{fill:url(#linear-gradient);}.cls-2{fill:#0b0b0b;}.cls-3{fill:url(#New_Gradient_Swatch_5);}.cls-4{fill:#c14343;stroke:#000;stroke-miterlimit:10;}</style><linearGradient id="linear-gradient" x1="256.46" y1="34.36" x2="255.54" y2="475.68" gradientUnits="userSpaceOnUse"><stop offset="0.3" stop-color="#f6e27a"/><stop offset="0.42" stop-color="#f6eba3"/><stop offset="0.5" stop-color="#f6f2c0"/><stop offset="0.59" stop-color="#f6eba2"/><stop offset="0.7" stop-color="#f6e27a"/><stop offset="0.9" stop-color="#cb9b51"/></linearGradient><linearGradient id="New_Gradient_Swatch_5" x1="256" y1="38.27" x2="256" y2="478.93" gradientUnits="userSpaceOnUse"><stop offset="0.2" stop-color="#f6e27a"/><stop offset="0.38" stop-color="#f6eba3"/><stop offset="0.5" stop-color="#f6f2c0"/><stop offset="0.59" stop-color="#f6eba2"/><stop offset="0.7" stop-color="#f6e27a"/><stop offset="0.9" stop-color="#cb9b51"/></linearGradient></defs><title>d8_7</title><polygon class="cls-1" points="95.26 254.5 256 34.36 416.74 254.5 95.26 254.5"/><path class="cls-2" d="M256,36.9,413.78,253H98.22L256,36.9m0-5.09L92.31,256H419.69L256,31.81Z"/><polygon class="cls-3" points="95.26 257.5 416.74 257.5 256 477.64 95.26 257.5"/><path class="cls-2" d="M413.78,259,256,475.1,98.22,259H413.78m5.91-3H92.31L256,480.19,419.69,256Z"/><path class="cls-4" d="M281.7,137.26a3.74,3.74,0,0,1-1.43,2.36q-3.18,2.91-7.25,10.6a92.74,92.74,0,0,0-5.27,11.86,103.59,103.59,0,0,0-5.6,26.24q-.27,3.52-2.36,4.12c-1.06.33-4.49.5-10.27.5q-5.22,0-6.2-.11c-3.12-.33-4.67-1.21-4.67-2.64q0-7.91,5.1-20a175.13,175.13,0,0,1,9.5-18.67c3.41-5.85,5.11-8.75,5.11-8.67,0-.37-.77-.55-2.31-.55q-4.05,0-12.19.41t-12.19.41a1.21,1.21,0,0,1-1.37-1.37,25,25,0,0,1,.55-4.45c.4-2.23.64-3.71.71-4.45.15-1.64.22-4.39.22-8.23,0-.95.83-1.43,2.48-1.43s3.53.13,6,.38q5.06.56,6,.61,9.45.7,32.4.71a2.46,2.46,0,0,1,2.69,2.58Q281.7,131.38,281.7,137.26Z"/></svg>