<svg id="Layer_1" data-name="Layer 1" xmlns="http://www.w3.org/2000/svg" xmlns:xlink="http://www.w3.org/1999/xlink" viewBox="0 0 512 512"><defs><style>.cls-1{fill:url(#linear-gradient);}.cls-2{fill:#0b0b0b;}.cls-3{fill:url(#New_Gradient_Swatch_5);}.cls-4{fill:#c14343;stroke:#000;stroke-miterlimit:10;}</style><linearGradient id="linear-gradient" x1="256.46" y1="34.36" x2="255.54" y2="475.68" gradientUnits="userSpaceOnUse"><stop offset="0.3" stop-color="#f6e27a"/><stop offset="0.42" stop-color="#f6eba3"/><stop offset="0.5" stop-color="#f6f2c0"/><stop offset="0.59" stop-color="#f6eba2"/><stop offset="0.7" stop-color="#f6e27a"/><stop offset="0.9" stop-color="#cb9b51"/></linearGradient><linearGradient id="New_Gradient_Swatch_5" x1="256" y1="38.27" x2="256" y2="478.93" gradientUnits="userSpaceOnUse"><stop offset="0.2" stop-color="#f6e27a"/><stop offset="0.38" stop-color="#f6eba3"/><stop offset="0.5" stop-color="#f6f2c0"/><stop offset="0.59" stop-color="#f6eba2"/><stop offset="0.7" stop-color="#f6e27a"/><stop offset="0.9" stop-color="#cb9b51"/></linearGradient></defs><title>d8_8</title><polygon class="cls-1" points="95.26 254.5 256 34.36 416.74 254.5 95.26 254.5"/><path class="cls-2" d="M256,36.9,413.78,253H98.22L256,36.9m0-5.09L92.31,256H419.69L256,31.81Z"/><polygon class="cls-3" points="95.26 257.5 416.74 257.5 256 477.64 95.26 257.5"/><path class="cls-2" d="M413.78,259,256,475.1,98.22,259H413.78m5.91-3H92.31L256,480.19,419.69,256Z"/><path class="cls-4" d="M282.38,172.51q0,10.05-7.9,15.65-7,4.93-17.52,4.94-12.13,0-19.22-5.22-8.13-5.87-8.12-17.51a14.16,14.16,0,0,1,2.14-7.41,23.48,23.48,0,0,1,4-4.84l2.09-2c0-.41-.57-1.21-1.71-2.42a18.79,18.79,0,0,1-3.24-4.12,14.76,14.76,0,0,1-1.75-7.25q0-9.88,8.18-15,6.87-4.29,17.35-4.29a29.38,29.38,0,0,1,16.2,4.73q8.46,5.43,8.46,13.83a17.18,17.18,0,0,1-1.93,8.13,18.68,18.68,0,0,1-3.45,4.72c-1.25,1.29-1.87,2-1.87,2.26a25.47,25.47,0,0,0,2.14,2.3,24.32,24.32,0,0,1,4.06,5.22A16.93,16.93,0,0,1,282.38,172.51Zm-21.25.6q0-5.33-8.89-8c-1.94-.63-3-.94-3.13-.94q-1.92,0-3.74,3.08a10.1,10.1,0,0,0-1.7,4.94,7.43,7.43,0,0,0,2.8,6,9.44,9.44,0,0,0,6.32,2.19Q261.13,180.36,261.13,173.11Zm5.33-31.52a5.47,5.47,0,0,0-2.53-4.61,8.94,8.94,0,0,0-5.21-1.59q-7.7,0-7.69,6.48,0,4.27,9.83,7a4.59,4.59,0,0,0,1,.17c1.21,0,2.3-.95,3.29-2.86A10,10,0,0,0,266.46,141.59Z"/></svg>