<svg viewBox="-100 -100 700 700" height="60px"  width="60px"  xmlns="http://www.w3.org/2000/svg"><path d="m244.054688 511.996094c-31.621094 0-56.210938-7.484375-75.171876-22.878906-20.332031-16.511719-33.246093-41.269532-39.46875-75.679688-7.195312-31.066406-5.359374-60.351562-2.304687-87.378906 4.144531-36.050782 14.359375-69.058594 24.234375-100.976563 11.019531-35.605469 22.414062-72.425781 25.585938-114.105469.460937-6.0625 4.535156-11.246093 10.316406-13.125 5.777344-1.882812 12.125-.089843 16.0625 4.542969 17.6875 20.785157 36.074218 79.242188 46.515625 128.183594 10.207031 34.242187 23.589843 46.390625 30.09375 46.171875 6.144531-.191406 18.039062-12.550781 25.613281-45.800781 1.382812-6.074219 6.375-10.660157 12.542969-11.523438 6.152343-.867187 12.226562 2.167969 15.226562 7.625 16.5625 30.113281 33.695313 92.511719 33.695313 144.804688 0 82.511719-50.554688 140.140625-122.941406 140.140625zm0 0" fill="#ffcf2c"/><path d="m318.074219 219.425781c-6.167969.863281-11.15625 5.449219-12.539063 11.523438-7.578125 33.25-19.472656 45.609375-25.617187 45.800781-6.503907.222656-19.886719-11.929688-30.09375-46.167969-1.261719-5.914062-2.640625-11.964843-4.117188-18.074219v299.46875c71.5-.875 121.289063-58.242187 121.289063-140.121093 0-52.292969-17.132813-114.691407-33.695313-144.804688-3-5.457031-9.074219-8.492187-15.226562-7.625zm0 0" fill="#ffc12e"/><path d="m244.054688 451.996094c-15.789063 0-31.097657-8.335938-43.109376-23.472656-10.605468-13.363282-17.792968-30.96875-20.238281-49.566407-.730469-5.578125-1.71875-20.847656-.917969-28.9375.894532-9.03125 5.886719-36.589843 6.453126-39.703125 1.070312-5.894531 5.550781-10.589844 11.390624-11.933594 5.835938-1.347656 11.917969.914063 15.464844 5.75l16.949219 23.117188c7.507813 10.210938 17.089844 16.359375 26.980469 17.316406 8.421875.816406 16.753906-2.332031 24.105468-9.101562 4.09375-3.765625 9.933594-4.960938 15.175782-3.101563 5.242187 1.863281 9.023437 6.46875 9.828125 11.976563 3.707031 25.464844 3.644531 61.007812-17.730469 85.722656-13.988281 16.171875-32.082031 21.933594-44.351562 21.933594zm0 0" fill="#f2860a"/><path d="m296.308594 332.363281c-5.242188-1.859375-11.085938-.664062-15.179688 3.101563-7.347656 6.769531-15.679687 9.917968-24.101562 9.101562-3.855469-.371094-7.664063-1.542968-11.320313-3.429687v110.820312c12.199219-.492187 29.324219-6.433593 42.699219-21.894531 21.375-24.714844 21.4375-60.257812 17.726562-85.722656-.800781-5.507813-4.582031-10.113282-9.824218-11.976563zm0 0" fill="#ec6600"/><path d="m190.886719 64.113281c-8.285157 0-15-6.714843-15-15v-34.113281c0-8.285156 6.714843-15 15-15 8.285156 0 15 6.714844 15 15v34.113281c0 8.285157-6.714844 15-15 15zm0 0" fill="#f7a520"/><path d="m290.150867 161.83627 60.019495-.002762v60.022257l-60.019495-.002762zm0 0" style="fill:none;stroke-width:30;stroke-linecap:round;stroke-linejoin:round;stroke:#000;stroke-miterlimit:10" transform="matrix(.707094 .707094 -.707094 .707094 229.425708 -170.19917)"/><path d="m45.007812 511.976562c-11.523437 0-23.050781-4.386718-31.824218-13.160156-8.5-8.5-13.183594-19.804687-13.183594-31.828125 0-12.019531 4.683594-23.324219 13.183594-31.828125l306.976562-306.972656 63.652344 63.652344-306.976562 306.976562c-8.773438 8.773438-20.300782 13.160156-31.828126 13.160156zm0 0" fill="#a15615"/><path d="m45.007812 511.976562c11.527344 0 23.054688-4.386718 31.828126-13.160156l306.976562-306.976562-31.828125-31.824219-338.800781 338.800781c8.773437 8.773438 20.300781 13.160156 31.824218 13.160156zm0 0" fill="#783207"/><path d="m224.667969 223.675781 42.441406-42.441406 63.652344 63.652344-42.441407 42.441406zm0 0" fill="#783207"/><path d="m256.496094 255.5 42.4375-42.4375 31.828125 31.824219-42.441407 42.441406zm0 0" fill="#542000"/><path d="m454.546875 256.359375h-42.429687c-3.976563 0-7.792969-1.578125-10.605469-4.394531l-141.480469-141.480469c-2.8125-2.8125-4.394531-6.625-4.394531-10.605469v-42.425781c0-3.976563 1.582031-7.792969 4.394531-10.605469l42.453125-42.453125c2.8125-2.8125 6.628906-4.394531 10.605469-4.394531h42.425781c3.980469 0 7.796875 1.582031 10.609375 4.394531l141.480469 141.480469c2.8125 2.8125 4.394531 6.628906 4.394531 10.605469v42.425781c0 3.980469-1.582031 7.792969-4.394531 10.605469l-42.453125 42.453125c-2.8125 2.816406-6.628906 4.394531-10.605469 4.394531zm0 0" fill="#c9c5b1"/><path d="m401.511719 251.96875c2.8125 2.8125 6.628906 4.394531 10.609375 4.394531h42.425781c3.980469 0 7.792969-1.582031 10.605469-4.394531l42.457031-42.453125c2.8125-2.816406 4.390625-6.628906 4.390625-10.609375v-42.425781c0-3.976563-1.578125-7.792969-4.390625-10.605469l-70.742187-70.738281-106.09375 106.089843zm0 0" fill="#b0ac9b"/><path d="m281.253906 131.714844 106.09375-106.09375 99.027344 99.027344-106.09375 106.09375zm0 0" fill="#e5e2d6"/><path d="m330.769531 181.226562 106.09375-106.089843 49.511719 49.511719-106.09375 106.09375zm0 0" fill="#c9c5b1"/></svg>