<svg  viewBox="-100 -100 700 700" height="70px"  width="700px" xmlns="http://www.w3.org/2000/svg"><path d="m135.472656 269.402344 248.785156-247.453125c2.1875-2.175781 4.992188-3.625 8.035157-4.148438l102.164062-17.582031c4.804688-.828125 9.714844.734375 13.15625 4.183594 3.445313 3.453125 5 8.363281 4.164063 13.167968l-17.679688 101.613282c-.53125 3.058594-2 5.878906-4.199218 8.066406l-248.667969 247.335938zm0 0" fill="#e5e2d6"/><path d="m241.230469 374.585938 248.667969-247.335938c2.203124-2.1875 3.667968-5.003906 4.203124-8.0625l17.675782-101.617188c.835937-4.804687-.714844-9.714843-4.160156-13.167968-.007813-.003906-.015626-.011719-.023438-.019532l-318.425781 318.425782zm0 0" fill="#c9c5b1"/><path d="m178.027344 227.074219-42.554688 42.328125 105.757813 105.183594 42.378906-42.152344zm0 0" fill="#c9c5b1"/><path d="m231.519531 280.457031-42.351562 42.351563 52.0625 51.777344 42.378906-42.152344zm0 0" fill="#b0ac9b"/><path d="m52.179688 512c-3.871094 0-7.699219-1.496094-10.582032-4.367188l-37.175781-36.972656c-4.621094-4.597656-5.746094-11.652344-2.78125-17.457031l33.023437-64.679687c.71875-1.410157 1.65625-2.699219 2.78125-3.816407l106.855469-106.28125 87.851563 87.386719-106.96875 106.394531c-.945313.941407-2.015625 1.75-3.175782 2.410157l-62.429687 35.429687c-2.316406 1.3125-4.867187 1.953125-7.398437 1.953125zm0 0" fill="#a15615"/><path d="m41.597656 507.632812c2.882813 2.871094 6.710938 4.367188 10.582032 4.367188 2.53125 0 5.082031-.640625 7.398437-1.957031l62.429687-35.425781c1.160157-.660157 2.230469-1.472657 3.175782-2.414063l106.96875-106.390625-43.109375-42.878906-166.121094 166.125zm0 0" fill="#783207"/><path d="m134.117188 495.976562c-3.824219 0-7.648438-1.453124-10.578126-4.363281l-105.605468-105.042969c-5.875-5.839843-5.898438-15.339843-.054688-21.210937 5.839844-5.875 15.339844-5.898437 21.210938-.058594l105.605468 105.042969c5.875 5.839844 5.898438 15.339844.058594 21.210938-2.933594 2.945312-6.785156 4.421874-10.636718 4.421874zm0 0" fill="#783207"/><path d="m123.539062 491.613281c2.929688 2.910157 6.753907 4.363281 10.578126 4.363281 3.851562 0 7.707031-1.472656 10.636718-4.421874 5.84375-5.871094 5.816406-15.371094-.058594-21.210938l-51.667968-51.394531-21.210938 21.214843zm0 0" fill="#542000"/><path d="m272.71875 420.445312c-3.828125 0-7.652344-1.457031-10.578125-4.367187l-168.265625-167.363281c-2.832031-2.816406-4.421875-6.644532-4.421875-10.632813 0-3.992187 1.589844-7.820312 4.421875-10.636719l27.792969-27.648437c5.875-5.839844 15.375-5.816406 21.214843.058594 5.84375 5.871093 5.816407 15.371093-.058593 21.210937l-17.101563 17.015625 146.996094 146.207031 17.214844-17.128906c5.875-5.839844 15.375-5.8125 21.214844.058594 5.84375 5.875 5.816406 15.371094-.058594 21.214844l-27.792969 27.644531c-2.925781 2.910156-6.753906 4.367187-10.578125 4.367187zm0 0" fill="#783207"/><path d="m262.140625 416.078125c2.925781 2.910156 6.75 4.367187 10.578125 4.367187 3.824219 0 7.652344-1.457031 10.578125-4.367187l27.792969-27.644531c5.875-5.84375 5.902344-15.339844.058594-21.214844-5.839844-5.871094-15.339844-5.898438-21.214844-.058594l-17.214844 17.128906-72.710938-72.320312-21.210937 21.214844zm0 0" fill="#542000"/></svg>